WixMadeforDisplay-Bold.ufo
<glyph name="exclam" format="2">
	<unicode hex="0021"/>
	<advance width="262"/>
	<outline>
		<contour>
			<point x="214" y="71" type="curve" smooth="yes"/>
			<point x="214" y="116"/>
			<point x="177" y="152"/>
			<point x="131" y="152" type="curve" smooth="yes"/>
			<point x="85" y="152"/>
			<point x="48" y="116"/>
			<point x="48" y="71" type="curve" smooth="yes"/>
			<point x="48" y="25"/>
			<point x="85" y="-10"/>
			<point x="131" y="-10" type="curve" smooth="yes"/>
			<point x="177" y="-10"/>
			<point x="214" y="25"/>
		</contour>
		<contour>
			<point x="164" y="224" type="line"/>
			<point x="171" y="285"/>
			<point x="206" y="632"/>
			<point x="206" y="660" type="curve" smooth="yes"/>
			<point x="206" y="701"/>
			<point x="173" y="731"/>
			<point x="131" y="731" type="curve" smooth="yes"/>
			<point x="89" y="731"/>
			<point x="56" y="701"/>
			<point x="56" y="660" type="curve" smooth="yes"/>
			<point x="56" y="632"/>
			<point x="91" y="285"/>
			<point x="98" y="224" type="curve"/>
		</contour>
	</outline>
</glyph>
<glyph name="dollar" format="2">
	<unicode hex="0024"/>
	<advance width="660"/>
	<outline>
		<contour>
			<point x="49" y="119" type="line"/>
			<point x="116" y="41"/>
			<point x="219" y="-6"/>
			<point x="339" y="-6" type="curve" smooth="yes"/>
			<point x="500" y="-6"/>
			<point x="617" y="81"/>
			<point x="617" y="209" type="curve" smooth="yes"/>
			<point x="617" y="324"/>
			<point x="535" y="389"/>
			<point x="347" y="420" type="curve" smooth="yes"/>
			<point x="231" y="439"/>
			<point x="193" y="463"/>
			<point x="193" y="520" type="curve" smooth="yes"/>
			<point x="193" y="576"/>
			<point x="251" y="616"/>
			<point x="339" y="616" type="curve" smooth="yes"/>
			<point x="404" y="616"/>
			<point x="468" y="583"/>
			<point x="515" y="515" type="curve"/>
			<point x="597" y="596" type="line"/>
			<point x="532" y="674"/>
			<point x="438" y="721"/>
			<point x="336" y="721" type="curve" smooth="yes"/>
			<point x="185" y="721"/>
			<point x="73" y="633"/>
			<point x="73" y="513" type="curve" smooth="yes"/>
			<point x="73" y="404"/>
			<point x="152" y="340"/>
			<point x="323" y="312" type="curve" smooth="yes"/>
			<point x="453" y="290"/>
			<point x="497" y="262"/>
			<point x="497" y="203" type="curve" smooth="yes"/>
			<point x="497" y="140"/>
			<point x="431" y="99"/>
			<point x="336" y="99" type="curve" smooth="yes"/>
			<point x="259" y="99"/>
			<point x="186" y="132"/>
			<point x="131" y="200" type="curve"/>
		</contour>
		<contour>
			<point x="378" y="372" type="line"/>
			<point x="378" y="831" type="line"/>
			<point x="308" y="831" type="line"/>
			<point x="308" y="372" type="line"/>
		</contour>
		<contour>
			<point x="376" y="-116" type="line"/>
			<point x="376" y="362" type="line"/>
			<point x="306" y="362" type="line"/>
			<point x="306" y="-116" type="line"/>
		</contour>
	</outline>
</glyph>
<glyph name="quotesingle" format="2">
	<unicode hex="0027"/>
	<advance width="262"/>
	<outline>
		<contour>
			<point x="155" y="470" type="line"/>
			<point x="178" y="558"/>
			<point x="194" y="649"/>
			<point x="194" y="681" type="curve" smooth="yes"/>
			<point x="194" y="721"/>
			<point x="166" y="747"/>
			<point x="131" y="747" type="curve" smooth="yes"/>
			<point x="96" y="747"/>
			<point x="68" y="721"/>
			<point x="68" y="681" type="curve" smooth="yes"/>
			<point x="68" y="649"/>
			<point x="84" y="558"/>
			<point x="107" y="470" type="curve"/>
		</contour>
	</outline>
</glyph>
<glyph name="asterisk" format="2">
	<unicode hex="002A"/>
	<advance width="441"/>
	<outline>
		<contour>
			<point x="221" y="478" type="curve"/>
			<point x="240" y="425"/>
			<point x="262" y="378"/>
			<point x="275" y="360" type="curve" smooth="yes"/>
			<point x="286" y="343"/>
			<point x="300" y="336"/>
			<point x="317" y="336" type="curve" smooth="yes"/>
			<point x="344" y="336"/>
			<point x="367" y="359"/>
			<point x="367" y="383" type="curve" smooth="yes"/>
			<point x="367" y="396"/>
			<point x="363" y="408"/>
			<point x="354" y="420" type="curve" smooth="yes"/>
			<point x="341" y="438"/>
			<point x="305" y="472"/>
			<point x="260" y="506" type="curve"/>
			<point x="318" y="508"/>
			<point x="361" y="514"/>
			<point x="382" y="520" type="curve" smooth="yes"/>
			<point x="406" y="528"/>
			<point x="420" y="545"/>
			<point x="420" y="567" type="curve" smooth="yes"/>
			<point x="420" y="597"/>
			<point x="400" y="618"/>
			<point x="372" y="618" type="curve" smooth="yes"/>
			<point x="363" y="618"/>
			<point x="356" y="617"/>
			<point x="345" y="613" type="curve" smooth="yes"/>
			<point x="326" y="605"/>
			<point x="294" y="588"/>
			<point x="246" y="552" type="curve"/>
			<point x="261" y="607"/>
			<point x="271" y="657"/>
			<point x="271" y="679" type="curve" smooth="yes"/>
			<point x="271" y="711"/>
			<point x="251" y="732"/>
			<point x="221" y="732" type="curve" smooth="yes"/>
			<point x="190" y="732"/>
			<point x="171" y="711"/>
			<point x="171" y="679" type="curve" smooth="yes"/>
			<point x="171" y="657"/>
			<point x="180" y="607"/>
			<point x="196" y="552" type="curve"/>
			<point x="147" y="588"/>
			<point x="116" y="605"/>
			<point x="96" y="613" type="curve" smooth="yes"/>
			<point x="86" y="617"/>
			<point x="78" y="618"/>
			<point x="69" y="618" type="curve" smooth="yes"/>
			<point x="42" y="618"/>
			<point x="22" y="597"/>
			<point x="22" y="567" type="curve" smooth="yes"/>
			<point x="22" y="545"/>
			<point x="35" y="528"/>
			<point x="59" y="520" type="curve" smooth="yes"/>
			<point x="81" y="514"/>
			<point x="124" y="508"/>
			<point x="181" y="506" type="curve"/>
			<point x="137" y="472"/>
			<point x="101" y="438"/>
			<point x="88" y="420" type="curve" smooth="yes"/>
			<point x="79" y="408"/>
			<point x="74" y="396"/>
			<point x="74" y="383" type="curve" smooth="yes"/>
			<point x="74" y="359"/>
			<point x="97" y="336"/>
			<point x="125" y="336" type="curve" smooth="yes"/>
			<point x="141" y="336"/>
			<point x="155" y="343"/>
			<point x="167" y="360" type="curve" smooth="yes"/>
			<point x="180" y="378"/>
			<point x="201" y="425"/>
		</contour>
	</outline>
</glyph>
<glyph name="plus" format="2">
	<unicode hex="002B"/>
	<advance width="660"/>
	<outline>
		<contour>
			<point x="554" y="304" type="line"/>
			<point x="554" y="411" type="line"/>
			<point x="106" y="411" type="line"/>
			<point x="106" y="304" type="line"/>
		</contour>
		<contour>
			<point x="383" y="134" type="line"/>
			<point x="383" y="582" type="line"/>
			<point x="277" y="582" type="line"/>
			<point x="277" y="134" type="line"/>
		</contour>
	</outline>
</glyph>
<glyph name="comma" format="2">
	<unicode hex="002C"/>
	<advance width="262"/>
	<outline>
		<contour>
			<point x="124" y="-131" type="line"/>
			<point x="171" y="-81"/>
			<point x="214" y="-1"/>
			<point x="214" y="57" type="curve" smooth="yes"/>
			<point x="214" y="113"/>
			<point x="179" y="152"/>
			<point x="128" y="152" type="curve" smooth="yes"/>
			<point x="83" y="152"/>
			<point x="48" y="116"/>
			<point x="48" y="71" type="curve" smooth="yes"/>
			<point x="48" y="26"/>
			<point x="84" y="-8"/>
			<point x="131" y="-8" type="curve"/>
			<point x="110" y="17" type="line"/>
			<point x="113" y="-21"/>
			<point x="85" y="-83"/>
			<point x="43" y="-131" type="curve"/>
		</contour>
	</outline>
</glyph>
<glyph name="period" format="2">
	<unicode hex="002E"/>
	<advance width="262"/>
	<outline>
		<contour>
			<point x="214" y="71" type="curve" smooth="yes"/>
			<point x="214" y="116"/>
			<point x="177" y="152"/>
			<point x="131" y="152" type="curve" smooth="yes"/>
			<point x="85" y="152"/>
			<point x="48" y="116"/>
			<point x="48" y="71" type="curve" smooth="yes"/>
			<point x="48" y="25"/>
			<point x="85" y="-10"/>
			<point x="131" y="-10" type="curve" smooth="yes"/>
			<point x="177" y="-10"/>
			<point x="214" y="25"/>
		</contour>
	</outline>
</glyph>
<glyph name="zero" format="2">
	<unicode hex="0030"/>
	<advance width="656"/>
	<outline>
		<contour>
			<point x="328" y="-16" type="curve" smooth="yes"/>
			<point x="507" y="-16"/>
			<point x="613" y="121"/>
			<point x="613" y="357" type="curve" smooth="yes"/>
			<point x="613" y="595"/>
			<point x="507" y="731"/>
			<point x="328" y="731" type="curve" smooth="yes"/>
			<point x="150" y="731"/>
			<point x="43" y="595"/>
			<point x="43" y="357" type="curve" smooth="yes"/>
			<point x="43" y="121"/>
			<point x="150" y="-16"/>
		</contour>
		<contour>
			<point x="328" y="94" type="curve" smooth="yes"/>
			<point x="234" y="94"/>
			<point x="180" y="184"/>
			<point x="180" y="357" type="curve" smooth="yes"/>
			<point x="180" y="531"/>
			<point x="234" y="621"/>
			<point x="328" y="621" type="curve" smooth="yes"/>
			<point x="422" y="621"/>
			<point x="477" y="531"/>
			<point x="477" y="357" type="curve" smooth="yes"/>
			<point x="477" y="184"/>
			<point x="422" y="94"/>
		</contour>
	</outline>
</glyph>
<glyph name="one" format="2">
	<unicode hex="0031"/>
	<advance width="487"/>
	<outline>
		<contour>
			<point x="275" y="715" type="line"/>
			<point x="75" y="587" type="line"/>
			<point x="75" y="452" type="line"/>
			<point x="254" y="573" type="line"/>
			<point x="254" y="0" type="line"/>
			<point x="388" y="0" type="line"/>
			<point x="388" y="715" type="line"/>
		</contour>
	</outline>
</glyph>
<glyph name="three" format="2">
	<unicode hex="0033"/>
	<advance width="622"/>
	<outline>
		<contour>
			<point x="27" y="104" type="line"/>
			<point x="97" y="27"/>
			<point x="194" y="-16"/>
			<point x="302" y="-16" type="curve" smooth="yes"/>
			<point x="467" y="-16"/>
			<point x="578" y="78"/>
			<point x="578" y="203" type="curve" smooth="yes"/>
			<point x="578" y="317"/>
			<point x="481" y="397"/>
			<point x="341" y="397" type="curve"/>
			<point x="318" y="360" type="line"/>
			<point x="461" y="360"/>
			<point x="558" y="430"/>
			<point x="558" y="531" type="curve" smooth="yes"/>
			<point x="558" y="643"/>
			<point x="457" y="731"/>
			<point x="307" y="731" type="curve" smooth="yes"/>
			<point x="204" y="731"/>
			<point x="114" y="688"/>
			<point x="48" y="611" type="curve"/>
			<point x="135" y="525" type="line"/>
			<point x="178" y="584"/>
			<point x="233" y="619"/>
			<point x="303" y="619" type="curve" smooth="yes"/>
			<point x="372" y="619"/>
			<point x="421" y="581"/>
			<point x="421" y="519" type="curve" smooth="yes"/>
			<point x="421" y="464"/>
			<point x="369" y="425"/>
			<point x="297" y="425" type="curve" smooth="yes"/>
			<point x="231" y="425" type="line"/>
			<point x="231" y="314" type="line"/>
			<point x="297" y="314" type="line" smooth="yes"/>
			<point x="381" y="314"/>
			<point x="441" y="275"/>
			<point x="441" y="209" type="curve" smooth="yes"/>
			<point x="441" y="139"/>
			<point x="382" y="96"/>
			<point x="298" y="96" type="curve" smooth="yes"/>
			<point x="222" y="96"/>
			<point x="162" y="131"/>
			<point x="114" y="190" type="curve"/>
		</contour>
	</outline>
</glyph>
<glyph name="four" format="2">
	<unicode hex="0034"/>
	<advance width="667"/>
	<outline>
		<contour>
			<point x="530" y="0" type="line"/>
			<point x="530" y="145" type="line"/>
			<point x="630" y="145" type="line"/>
			<point x="630" y="251" type="line"/>
			<point x="530" y="251" type="line"/>
			<point x="530" y="715" type="line"/>
			<point x="398" y="715" type="line"/>
			<point x="38" y="251" type="line"/>
			<point x="38" y="145" type="line"/>
			<point x="398" y="145" type="line"/>
			<point x="398" y="0" type="line"/>
		</contour>
		<contour>
			<point x="398" y="546" type="line"/>
			<point x="398" y="251" type="line"/>
			<point x="166" y="251" type="line"/>
		</contour>
	</outline>
</glyph>
<glyph name="six" format="2">
	<unicode hex="0036"/>
	<advance width="636"/>
	<outline>
		<contour>
			<point x="319" y="-16" type="curve" smooth="yes"/>
			<point x="479" y="-16"/>
			<point x="598" y="90"/>
			<point x="598" y="239" type="curve" smooth="yes"/>
			<point x="598" y="379"/>
			<point x="492" y="479"/>
			<point x="349" y="479" type="curve" smooth="yes"/>
			<point x="277" y="479"/>
			<point x="218" y="444"/>
			<point x="183" y="391" type="curve"/>
			<point x="199" y="386" type="line"/>
			<point x="237" y="478"/>
			<point x="324" y="573"/>
			<point x="504" y="715" type="curve"/>
			<point x="328" y="715" type="line"/>
			<point x="157" y="572"/>
			<point x="43" y="428"/>
			<point x="43" y="258" type="curve" smooth="yes"/>
			<point x="43" y="98"/>
			<point x="156" y="-16"/>
		</contour>
		<contour>
			<point x="319" y="94" type="curve" smooth="yes"/>
			<point x="234" y="94"/>
			<point x="173" y="155"/>
			<point x="173" y="236" type="curve" smooth="yes"/>
			<point x="173" y="316"/>
			<point x="234" y="375"/>
			<point x="319" y="375" type="curve" smooth="yes"/>
			<point x="406" y="375"/>
			<point x="467" y="316"/>
			<point x="467" y="236" type="curve" smooth="yes"/>
			<point x="467" y="155"/>
			<point x="406" y="94"/>
		</contour>
	</outline>
</glyph>
<glyph name="seven" format="2">
	<unicode hex="0037"/>
	<advance width="603"/>
	<outline>
		<contour>
			<point x="557" y="715" type="line"/>
			<point x="46" y="715" type="line"/>
			<point x="46" y="606" type="line"/>
			<point x="419" y="606" type="line"/>
			<point x="74" y="0" type="line"/>
			<point x="219" y="0" type="line"/>
			<point x="557" y="606" type="line"/>
		</contour>
	</outline>
</glyph>
<glyph name="eight" format="2">
	<unicode hex="0038"/>
	<advance width="645"/>
	<outline>
		<contour>
			<point x="323" y="-16" type="curve" smooth="yes"/>
			<point x="488" y="-16"/>
			<point x="602" y="75"/>
			<point x="602" y="199" type="curve" smooth="yes"/>
			<point x="602" y="320"/>
			<point x="485" y="405"/>
			<point x="323" y="405" type="curve" smooth="yes"/>
			<point x="161" y="405"/>
			<point x="43" y="320"/>
			<point x="43" y="199" type="curve" smooth="yes"/>
			<point x="43" y="75"/>
			<point x="157" y="-16"/>
		</contour>
		<contour>
			<point x="323" y="354" type="curve" smooth="yes"/>
			<point x="468" y="354"/>
			<point x="574" y="429"/>
			<point x="574" y="535" type="curve" smooth="yes"/>
			<point x="574" y="647"/>
			<point x="472" y="731"/>
			<point x="323" y="731" type="curve" smooth="yes"/>
			<point x="174" y="731"/>
			<point x="72" y="647"/>
			<point x="72" y="535" type="curve" smooth="yes"/>
			<point x="72" y="429"/>
			<point x="178" y="354"/>
		</contour>
		<contour>
			<point x="323" y="94" type="curve" smooth="yes"/>
			<point x="241" y="94"/>
			<point x="180" y="140"/>
			<point x="180" y="205" type="curve" smooth="yes"/>
			<point x="180" y="270"/>
			<point x="241" y="316"/>
			<point x="323" y="316" type="curve" smooth="yes"/>
			<point x="405" y="316"/>
			<point x="465" y="270"/>
			<point x="465" y="205" type="curve" smooth="yes"/>
			<point x="465" y="140"/>
			<point x="405" y="94"/>
		</contour>
		<contour>
			<point x="323" y="424" type="curve" smooth="yes"/>
			<point x="255" y="424"/>
			<point x="204" y="467"/>
			<point x="204" y="523" type="curve" smooth="yes"/>
			<point x="204" y="580"/>
			<point x="255" y="623"/>
			<point x="323" y="623" type="curve" smooth="yes"/>
			<point x="390" y="623"/>
			<point x="441" y="580"/>
			<point x="441" y="523" type="curve" smooth="yes"/>
			<point x="441" y="467"/>
			<point x="390" y="424"/>
		</contour>
	</outline>
</glyph>
<glyph name="nine" format="2">
	<unicode hex="0039"/>
	<advance width="636"/>
	<outline>
		<contour>
			<point x="317" y="731" type="curve" smooth="yes"/>
			<point x="157" y="731"/>
			<point x="38" y="625"/>
			<point x="38" y="476" type="curve" smooth="yes"/>
			<point x="38" y="336"/>
			<point x="144" y="236"/>
			<point x="287" y="236" type="curve" smooth="yes"/>
			<point x="359" y="236"/>
			<point x="418" y="271"/>
			<point x="453" y="324" type="curve"/>
			<point x="437" y="329" type="line"/>
			<point x="399" y="237"/>
			<point x="312" y="142"/>
			<point x="132" y="0" type="curve"/>
			<point x="308" y="0" type="line"/>
			<point x="479" y="143"/>
			<point x="593" y="287"/>
			<point x="593" y="457" type="curve" smooth="yes"/>
			<point x="593" y="617"/>
			<point x="480" y="731"/>
		</contour>
		<contour>
			<point x="317" y="621" type="curve" smooth="yes"/>
			<point x="402" y="621"/>
			<point x="463" y="560"/>
			<point x="463" y="479" type="curve" smooth="yes"/>
			<point x="463" y="399"/>
			<point x="402" y="340"/>
			<point x="317" y="340" type="curve" smooth="yes"/>
			<point x="230" y="340"/>
			<point x="169" y="399"/>
			<point x="169" y="479" type="curve" smooth="yes"/>
			<point x="169" y="560"/>
			<point x="230" y="621"/>
		</contour>
	</outline>
</glyph>
<glyph name="less" format="2">
	<unicode hex="003C"/>
	<advance width="660"/>
	<outline>
		<contour>
			<point x="114" y="401" type="line"/>
			<point x="114" y="288" type="line"/>
			<point x="546" y="114" type="line"/>
			<point x="546" y="236" type="line"/>
		</contour>
		<contour>
			<point x="114" y="430" type="line"/>
			<point x="114" y="320" type="line"/>
			<point x="546" y="485" type="line"/>
			<point x="546" y="604" type="line"/>
		</contour>
	</outline>
</glyph>
<glyph name="equal" format="2">
	<unicode hex="003D"/>
	<advance width="660"/>
	<outline>
		<contour>
			<point x="550" y="194" type="line"/>
			<point x="550" y="301" type="line"/>
			<point x="109" y="301" type="line"/>
			<point x="109" y="194" type="line"/>
		</contour>
		<contour>
			<point x="550" y="414" type="line"/>
			<point x="550" y="520" type="line"/>
			<point x="109" y="520" type="line"/>
			<point x="109" y="414" type="line"/>
		</contour>
	</outline>
</glyph>
<glyph name="greater" format="2">
	<unicode hex="003E"/>
	<advance width="660"/>
	<outline>
		<contour>
			<point x="114" y="481" type="line"/>
			<point x="546" y="316" type="line"/>
			<point x="546" y="429" type="line"/>
			<point x="114" y="603" type="line"/>
		</contour>
		<contour>
			<point x="114" y="113" type="line"/>
			<point x="546" y="287" type="line"/>
			<point x="546" y="397" type="line"/>
			<point x="114" y="232" type="line"/>
		</contour>
	</outline>
</glyph>
<glyph name="at" format="2">
	<unicode hex="0040"/>
	<advance width="1024"/>
	<outline>
		<contour>
			<point x="476" y="44" type="curve" smooth="yes"/>
			<point x="588" y="44"/>
			<point x="677" y="129"/>
			<point x="658" y="245" type="curve"/>
			<point x="629" y="262" type="line"/>
			<point x="626" y="192"/>
			<point x="576" y="135"/>
			<point x="501" y="135" type="curve" smooth="yes"/>
			<point x="430" y="135"/>
			<point x="382" y="188"/>
			<point x="382" y="261" type="curve" smooth="yes"/>
			<point x="382" y="334"/>
			<point x="429" y="388"/>
			<point x="498" y="388" type="curve" smooth="yes"/>
			<point x="565" y="388"/>
			<point x="612" y="338"/>
			<point x="612" y="265" type="curve"/>
			<point x="638" y="254" type="line"/>
			<point x="642" y="270"/>
			<point x="643" y="286"/>
			<point x="643" y="300" type="curve" smooth="yes"/>
			<point x="643" y="406"/>
			<point x="573" y="478"/>
			<point x="476" y="478" type="curve" smooth="yes"/>
			<point x="363" y="478"/>
			<point x="270" y="390"/>
			<point x="270" y="261" type="curve" smooth="yes"/>
			<point x="270" y="133"/>
			<point x="362" y="44"/>
		</contour>
		<contour>
			<point x="743" y="-3" type="line"/>
			<point x="700" y="-54"/>
			<point x="616" y="-89"/>
			<point x="518" y="-89" type="curve" smooth="yes"/>
			<point x="316" y="-89"/>
			<point x="162" y="65"/>
			<point x="162" y="261" type="curve" smooth="yes"/>
			<point x="162" y="469"/>
			<point x="321" y="626"/>
			<point x="529" y="626" type="curve" smooth="yes"/>
			<point x="726" y="626"/>
			<point x="866" y="481"/>
			<point x="866" y="285" type="curve" smooth="yes"/>
			<point x="866" y="195"/>
			<point x="837" y="146"/>
			<point x="785" y="146" type="curve" smooth="yes"/>
			<point x="746" y="146"/>
			<point x="722" y="170"/>
			<point x="722" y="226" type="curve" smooth="yes"/>
			<point x="722" y="465" type="line"/>
			<point x="613" y="465" type="line"/>
			<point x="613" y="357" type="line"/>
			<point x="612" y="353" type="line"/>
			<point x="612" y="206" type="line" smooth="yes"/>
			<point x="612" y="108"/>
			<point x="677" y="44"/>
			<point x="774" y="44" type="curve" smooth="yes"/>
			<point x="903" y="44"/>
			<point x="979" y="136"/>
			<point x="979" y="291" type="curve" smooth="yes"/>
			<point x="979" y="536"/>
			<point x="788" y="731"/>
			<point x="529" y="731" type="curve" smooth="yes"/>
			<point x="257" y="731"/>
			<point x="48" y="529"/>
			<point x="48" y="262" type="curve" smooth="yes"/>
			<point x="48" y="4"/>
			<point x="250" y="-194"/>
			<point x="519" y="-194" type="curve" smooth="yes"/>
			<point x="653" y="-194"/>
			<point x="765" y="-148"/>
			<point x="819" y="-93" type="curve"/>
		</contour>
	</outline>
</glyph>
<glyph name="A" format="2">
	<unicode hex="0041"/>
	<advance width="773"/>
	<outline>
		<contour>
			<point x="597" y="157" type="line"/>
			<point x="597" y="271" type="line"/>
			<point x="173" y="271" type="line"/>
			<point x="173" y="157" type="line"/>
		</contour>
		<contour>
			<point x="743" y="0" type="line"/>
			<point x="461" y="715" type="line"/>
			<point x="312" y="715" type="line"/>
			<point x="30" y="0" type="line"/>
			<point x="170" y="0" type="line"/>
			<point x="404" y="620" type="line"/>
			<point x="364" y="620" type="line"/>
			<point x="598" y="0" type="line"/>
		</contour>
	</outline>
	<anchor name="bottom.UC" x="385" y="-50"/>
	<anchor name="ogonek.UC" x="586" y="-30"/>
	<anchor name="top.UC" x="385" y="750"/>
</glyph>
<glyph name="C" format="2">
	<unicode hex="0043"/>
	<advance width="752"/>
	<outline>
		<contour>
			<point x="629" y="208" type="line"/>
			<point x="584" y="144"/>
			<point x="514" y="104"/>
			<point x="430" y="104" type="curve" smooth="yes"/>
			<point x="294" y="104"/>
			<point x="193" y="211"/>
			<point x="193" y="358" type="curve" smooth="yes"/>
			<point x="193" y="504"/>
			<point x="294" y="611"/>
			<point x="430" y="611" type="curve" smooth="yes"/>
			<point x="514" y="611"/>
			<point x="584" y="571"/>
			<point x="629" y="507" type="curve"/>
			<point x="718" y="597" type="line"/>
			<point x="655" y="678"/>
			<point x="552" y="731"/>
			<point x="430" y="731" type="curve" smooth="yes"/>
			<point x="210" y="731"/>
			<point x="50" y="573"/>
			<point x="50" y="358" type="curve" smooth="yes"/>
			<point x="50" y="142"/>
			<point x="206" y="-16"/>
			<point x="427" y="-16" type="curve" smooth="yes"/>
			<point x="549" y="-16"/>
			<point x="655" y="37"/>
			<point x="718" y="118" type="curve"/>
		</contour>
	</outline>
	<anchor name="bottom.UC" x="424" y="-50"/>
	<anchor name="top.UC" x="424" y="750"/>
</glyph>
<glyph name="E" format="2">
	<unicode hex="0045"/>
	<advance width="619"/>
	<outline>
		<contour>
			<point x="574" y="0" type="line"/>
			<point x="574" y="114" type="line"/>
			<point x="206" y="114" type="line"/>
			<point x="206" y="601" type="line"/>
			<point x="574" y="601" type="line"/>
			<point x="574" y="715" type="line"/>
			<point x="71" y="715" type="line"/>
			<point x="71" y="0" type="line"/>
		</contour>
		<contour>
			<point x="555" y="305" type="line"/>
			<point x="555" y="419" type="line"/>
			<point x="196" y="419" type="line"/>
			<point x="196" y="305" type="line"/>
		</contour>
	</outline>
	<anchor name="bottom.UC" x="322" y="-50"/>
	<anchor name="ogonek.UC" x="448" y="-30"/>
	<anchor name="top.UC" x="322" y="750"/>
</glyph>
<glyph name="G" format="2">
	<unicode hex="0047"/>
	<advance width="810"/>
	<outline>
		<contour>
			<point x="756" y="0" type="line"/>
			<point x="756" y="391" type="line"/>
			<point x="424" y="391" type="line"/>
			<point x="424" y="282" type="line"/>
			<point x="630" y="282" type="line"/>
			<point x="630" y="179" type="line"/>
			<point x="640" y="217" type="line"/>
			<point x="606" y="142"/>
			<point x="528" y="101"/>
			<point x="435" y="101" type="curve" smooth="yes"/>
			<point x="293" y="101"/>
			<point x="192" y="208"/>
			<point x="192" y="358" type="curve" smooth="yes"/>
			<point x="192" y="504"/>
			<point x="293" y="611"/>
			<point x="433" y="611" type="curve" smooth="yes"/>
			<point x="521" y="611"/>
			<point x="595" y="571"/>
			<point x="642" y="507" type="curve"/>
			<point x="731" y="597" type="line"/>
			<point x="666" y="678"/>
			<point x="559" y="731"/>
			<point x="433" y="731" type="curve" smooth="yes"/>
			<point x="211" y="731"/>
			<point x="50" y="572"/>
			<point x="50" y="358" type="curve" smooth="yes"/>
			<point x="50" y="137"/>
			<point x="208" y="-16"/>
			<point x="417" y="-16" type="curve" smooth="yes"/>
			<point x="516" y="-16"/>
			<point x="597" y="23"/>
			<point x="643" y="93" type="curve"/>
			<point x="631" y="98" type="line"/>
			<point x="631" y="0" type="line"/>
		</contour>
	</outline>
	<anchor name="top.UC" x="431" y="750"/>
	<anchor name="bottom.UC" x="431" y="-50"/>
</glyph>
<glyph name="I" format="2">
	<unicode hex="0049"/>
	<advance width="277"/>
	<outline>
		<contour>
			<point x="206" y="0" type="line"/>
			<point x="206" y="715" type="line"/>
			<point x="71" y="715" type="line"/>
			<point x="71" y="0" type="line"/>
		</contour>
	</outline>
	<anchor name="bottom.UC" x="138" y="-50"/>
	<anchor name="ogonek.UC" x="80" y="-30"/>
	<anchor name="top.UC" x="138" y="750"/>
</glyph>
<glyph name="J" format="2">
	<unicode hex="004A"/>
	<advance width="676"/>
	<outline>
		<contour>
			<point x="611" y="715" type="line"/>
			<point x="476" y="715" type="line"/>
			<point x="476" y="278" type="line" smooth="yes"/>
			<point x="476" y="165"/>
			<point x="422" y="104"/>
			<point x="323" y="104" type="curve" smooth="yes"/>
			<point x="233" y="104"/>
			<point x="180" y="158"/>
			<point x="170" y="261" type="curve"/>
			<point x="36" y="246" type="line"/>
			<point x="47" y="83"/>
			<point x="155" y="-16"/>
			<point x="323" y="-16" type="curve" smooth="yes"/>
			<point x="508" y="-16"/>
			<point x="611" y="89"/>
			<point x="611" y="278" type="curve" smooth="yes"/>
		</contour>
	</outline>
	<anchor name="top.UC" x="549" y="750"/>
</glyph>
<glyph name="K" format="2">
	<unicode hex="004B"/>
	<advance width="740"/>
	<outline>
		<contour>
			<point x="206" y="0" type="line"/>
			<point x="206" y="715" type="line"/>
			<point x="71" y="715" type="line"/>
			<point x="71" y="0" type="line"/>
		</contour>
		<contour>
			<point x="725" y="0" type="line"/>
			<point x="342" y="385" type="line"/>
			<point x="342" y="357" type="line"/>
			<point x="683" y="715" type="line"/>
			<point x="516" y="715" type="line"/>
			<point x="197" y="371" type="line"/>
			<point x="181" y="371" type="line"/>
			<point x="542" y="0" type="line"/>
		</contour>
	</outline>
	<anchor name="bottom.UC" x="368" y="-50"/>
	<anchor name="top.UC" x="368" y="750"/>
</glyph>
<glyph name="M" format="2">
	<unicode hex="004D"/>
	<advance width="917"/>
	<outline>
		<contour>
			<point x="509" y="77" type="line"/>
			<point x="788" y="660" type="line"/>
			<point x="715" y="661" type="line"/>
			<point x="715" y="0" type="line"/>
			<point x="847" y="0" type="line"/>
			<point x="847" y="715" type="line"/>
			<point x="693" y="715" type="line"/>
			<point x="432" y="168" type="line"/>
			<point x="487" y="168" type="line"/>
			<point x="226" y="715" type="line"/>
			<point x="70" y="715" type="line"/>
			<point x="70" y="0" type="line"/>
			<point x="200" y="0" type="line"/>
			<point x="200" y="661" type="line"/>
			<point x="130" y="660" type="line"/>
			<point x="409" y="77" type="line"/>
		</contour>
	</outline>
</glyph>
<glyph name="N" format="2">
	<unicode hex="004E"/>
	<advance width="759"/>
	<outline>
		<contour>
			<point x="203" y="0" type="line"/>
			<point x="203" y="586" type="line"/>
			<point x="152" y="586" type="line"/>
			<point x="546" y="0" type="line"/>
			<point x="688" y="0" type="line"/>
			<point x="688" y="715" type="line"/>
			<point x="556" y="715" type="line"/>
			<point x="556" y="129" type="line"/>
			<point x="608" y="129" type="line"/>
			<point x="213" y="715" type="line"/>
			<point x="71" y="715" type="line"/>
			<point x="71" y="0" type="line"/>
		</contour>
	</outline>
	<anchor name="bottom.UC" x="379" y="-50"/>
	<anchor name="top.UC" x="379" y="750"/>
</glyph>
<glyph name="O" format="2">
	<unicode hex="004F"/>
	<advance width="864"/>
	<outline>
		<contour>
			<point x="432" y="-16" type="curve" smooth="yes"/>
			<point x="654" y="-16"/>
			<point x="814" y="143"/>
			<point x="814" y="358" type="curve" smooth="yes"/>
			<point x="814" y="572"/>
			<point x="654" y="731"/>
			<point x="432" y="731" type="curve" smooth="yes"/>
			<point x="211" y="731"/>
			<point x="50" y="572"/>
			<point x="50" y="358" type="curve" smooth="yes"/>
			<point x="50" y="143"/>
			<point x="211" y="-16"/>
		</contour>
		<contour>
			<point x="432" y="104" type="curve" smooth="yes"/>
			<point x="290" y="104"/>
			<point x="192" y="210"/>
			<point x="192" y="358" type="curve" smooth="yes"/>
			<point x="192" y="505"/>
			<point x="290" y="611"/>
			<point x="432" y="611" type="curve" smooth="yes"/>
			<point x="574" y="611"/>
			<point x="672" y="505"/>
			<point x="672" y="358" type="curve" smooth="yes"/>
			<point x="672" y="210"/>
			<point x="574" y="104"/>
		</contour>
	</outline>
	<anchor name="bottom.UC" x="432" y="-50"/>
	<anchor name="top.UC" x="432" y="750"/>
	<anchor name="topright.UC" x="537" y="750"/>
</glyph>
<glyph name="Q" format="2">
	<unicode hex="0051"/>
	<advance width="864"/>
	<outline>
		<contour>
			<point x="720" y="-45" type="line"/>
			<point x="797" y="31" type="line"/>
			<point x="515" y="319" type="line"/>
			<point x="438" y="242" type="line"/>
		</contour>
		<contour>
			<point x="432" y="-16" type="curve" smooth="yes"/>
			<point x="651" y="-16"/>
			<point x="814" y="145"/>
			<point x="814" y="358" type="curve" smooth="yes"/>
			<point x="814" y="572"/>
			<point x="654" y="731"/>
			<point x="432" y="731" type="curve" smooth="yes"/>
			<point x="211" y="731"/>
			<point x="50" y="572"/>
			<point x="50" y="358" type="curve" smooth="yes"/>
			<point x="50" y="143"/>
			<point x="211" y="-16"/>
		</contour>
		<contour>
			<point x="432" y="104" type="curve" smooth="yes"/>
			<point x="290" y="104"/>
			<point x="192" y="210"/>
			<point x="192" y="358" type="curve" smooth="yes"/>
			<point x="192" y="505"/>
			<point x="290" y="611"/>
			<point x="432" y="611" type="curve" smooth="yes"/>
			<point x="574" y="611"/>
			<point x="672" y="505"/>
			<point x="672" y="358" type="curve" smooth="yes"/>
			<point x="672" y="207"/>
			<point x="576" y="104"/>
		</contour>
	</outline>
</glyph>
<glyph name="V" format="2">
	<unicode hex="0056"/>
	<advance width="760"/>
	<outline>
		<contour>
			<point x="448" y="0" type="line"/>
			<point x="730" y="715" type="line"/>
			<point x="588" y="715" type="line"/>
			<point x="364" y="106" type="line"/>
			<point x="399" y="106" type="line"/>
			<point x="176" y="715" type="line"/>
			<point x="30" y="715" type="line"/>
			<point x="311" y="0" type="line"/>
		</contour>
	</outline>
</glyph>
<glyph name="W" format="2">
	<unicode hex="0057"/>
	<advance width="1072"/>
	<outline>
		<contour>
			<point x="833" y="0" type="line"/>
			<point x="1038" y="715" type="line"/>
			<point x="897" y="715" type="line"/>
			<point x="744" y="116" type="line"/>
			<point x="771" y="116" type="line"/>
			<point x="599" y="715" type="line"/>
			<point x="476" y="715" type="line"/>
			<point x="302" y="116" type="line"/>
			<point x="333" y="116" type="line"/>
			<point x="179" y="715" type="line"/>
			<point x="34" y="715" type="line"/>
			<point x="240" y="0" type="line"/>
			<point x="387" y="0" type="line"/>
			<point x="545" y="547" type="line"/>
			<point x="528" y="547" type="line"/>
			<point x="685" y="0" type="line"/>
		</contour>
	</outline>
	<anchor name="top.UC" x="536" y="750"/>
</glyph>
<glyph name="X" format="2">
	<unicode hex="0058"/>
	<advance width="725"/>
	<outline>
		<contour>
			<point x="175" y="0" type="line"/>
			<point x="377" y="298" type="line"/>
			<point x="349" y="298" type="line"/>
			<point x="550" y="0" type="line"/>
			<point x="710" y="0" type="line"/>
			<point x="435" y="391" type="line"/>
			<point x="435" y="350" type="line"/>
			<point x="685" y="715" type="line"/>
			<point x="527" y="715" type="line"/>
			<point x="350" y="444" type="line"/>
			<point x="376" y="444" type="line"/>
			<point x="199" y="715" type="line"/>
			<point x="39" y="715" type="line"/>
			<point x="291" y="350" type="line"/>
			<point x="291" y="391" type="line"/>
			<point x="15" y="0" type="line"/>
		</contour>
	</outline>
</glyph>
<glyph name="Y" format="2">
	<unicode hex="0059"/>
	<advance width="713"/>
	<outline>
		<contour>
			<point x="423" y="0" type="line"/>
			<point x="423" y="288" type="line"/>
			<point x="698" y="715" type="line"/>
			<point x="541" y="715" type="line"/>
			<point x="344" y="391" type="line"/>
			<point x="370" y="391" type="line"/>
			<point x="174" y="715" type="line"/>
			<point x="15" y="715" type="line"/>
			<point x="288" y="289" type="line"/>
			<point x="288" y="0" type="line"/>
		</contour>
	</outline>
	<anchor name="bottom.UC" x="355" y="-50"/>
	<anchor name="top.UC" x="355" y="750"/>
</glyph>
<glyph name="backslash" format="2">
	<unicode hex="005C"/>
	<advance width="505"/>
	<outline>
		<contour>
			<point x="459" y="0" type="line"/>
			<point x="171" y="731" type="line"/>
			<point x="46" y="731" type="line"/>
			<point x="334" y="0" type="line"/>
		</contour>
	</outline>
</glyph>
<glyph name="bracketright" format="2">
	<unicode hex="005D"/>
	<advance width="322"/>
	<outline>
		<contour>
			<point x="267" y="-129" type="line"/>
			<point x="267" y="731" type="line"/>
			<point x="30" y="731" type="line"/>
			<point x="30" y="628" type="line"/>
			<point x="139" y="628" type="line"/>
			<point x="139" y="-26" type="line"/>
			<point x="30" y="-26" type="line"/>
			<point x="30" y="-129" type="line"/>
		</contour>
	</outline>
</glyph>
<glyph name="asciicircum" format="2">
	<unicode hex="005E"/>
	<advance width="660"/>
	<outline>
		<contour>
			<point x="287" y="715" type="line"/>
			<point x="457" y="354" type="line"/>
			<point x="582" y="354" type="line"/>
			<point x="402" y="715" type="line"/>
		</contour>
		<contour>
			<point x="258" y="715" type="line"/>
			<point x="78" y="354" type="line"/>
			<point x="199" y="354" type="line"/>
			<point x="371" y="715" type="line"/>
		</contour>
	</outline>
</glyph>
<glyph name="underscore" format="2">
	<unicode hex="005F"/>
	<advance width="500"/>
	<outline>
		<contour>
			<point x="500" y="-150" type="line"/>
			<point x="500" y="-44" type="line"/>
			<point x="0" y="-44" type="line"/>
			<point x="0" y="-150" type="line"/>
		</contour>
	</outline>
</glyph>
<glyph name="a" format="2">
	<unicode hex="0061"/>
	<advance width="574"/>
	<outline>
		<contour>
			<point x="523" y="0" type="line"/>
			<point x="523" y="309" type="line" smooth="yes"/>
			<point x="523" y="442"/>
			<point x="423" y="519"/>
			<point x="276" y="519" type="curve" smooth="yes"/>
			<point x="187" y="519"/>
			<point x="108" y="487"/>
			<point x="55" y="434" type="curve"/>
			<point x="124" y="354" type="line"/>
			<point x="161" y="393"/>
			<point x="211" y="417"/>
			<point x="270" y="417" type="curve" smooth="yes"/>
			<point x="348" y="417"/>
			<point x="397" y="376"/>
			<point x="397" y="306" type="curve" smooth="yes"/>
			<point x="397" y="117" type="line"/>
			<point x="403" y="101" type="line"/>
			<point x="403" y="0" type="line"/>
		</contour>
		<contour>
			<point x="232" y="-16" type="curve" smooth="yes"/>
			<point x="359" y="-16"/>
			<point x="447" y="69"/>
			<point x="447" y="193" type="curve"/>
			<point x="409" y="211" type="line"/>
			<point x="403" y="136"/>
			<point x="341" y="83"/>
			<point x="263" y="83" type="curve" smooth="yes"/>
			<point x="208" y="83"/>
			<point x="171" y="111"/>
			<point x="171" y="154" type="curve" smooth="yes"/>
			<point x="171" y="202"/>
			<point x="219" y="228"/>
			<point x="291" y="228" type="curve" smooth="yes"/>
			<point x="410" y="228" type="line"/>
			<point x="410" y="314" type="line"/>
			<point x="281" y="314" type="line" smooth="yes"/>
			<point x="133" y="314"/>
			<point x="37" y="252"/>
			<point x="37" y="149" type="curve" smooth="yes"/>
			<point x="37" y="51"/>
			<point x="116" y="-16"/>
		</contour>
	</outline>
	<anchor name="bottom.LC" x="283" y="-50"/>
	<anchor name="ogonek.LC" x="397" y="-30"/>
	<anchor name="top.LC" x="283" y="544"/>
</glyph>
<glyph name="c" format="2">
	<unicode hex="0063"/>
	<advance width="568"/>
	<outline>
		<contour>
			<point x="452" y="167" type="line"/>
			<point x="424" y="124"/>
			<point x="382" y="94"/>
			<point x="323" y="94" type="curve" smooth="yes"/>
			<point x="239" y="94"/>
			<point x="177" y="160"/>
			<point x="177" y="252" type="curve" smooth="yes"/>
			<point x="177" y="343"/>
			<point x="239" y="409"/>
			<point x="323" y="409" type="curve" smooth="yes"/>
			<point x="381" y="409"/>
			<point x="425" y="379"/>
			<point x="452" y="337" type="curve"/>
			<point x="535" y="418" type="line"/>
			<point x="483" y="482"/>
			<point x="409" y="519"/>
			<point x="316" y="519" type="curve" smooth="yes"/>
			<point x="158" y="519"/>
			<point x="40" y="407"/>
			<point x="40" y="252" type="curve" smooth="yes"/>
			<point x="40" y="96"/>
			<point x="157" y="-16"/>
			<point x="313" y="-16" type="curve" smooth="yes"/>
			<point x="408" y="-16"/>
			<point x="482" y="21"/>
			<point x="535" y="86" type="curve"/>
		</contour>
	</outline>
	<anchor name="top.LC" x="317" y="544"/>
	<anchor name="bottom.LC" x="317" y="-50"/>
</glyph>
<glyph name="d" format="2">
	<unicode hex="0064"/>
	<advance width="651"/>
	<outline>
		<contour>
			<point x="593" y="0" type="line"/>
			<point x="593" y="720" type="line"/>
			<point x="461" y="720" type="line"/>
			<point x="461" y="347" type="line"/>
			<point x="493" y="347" type="line"/>
			<point x="480" y="448"/>
			<point x="406" y="519"/>
			<point x="291" y="519" type="curve" smooth="yes"/>
			<point x="152" y="519"/>
			<point x="40" y="409"/>
			<point x="40" y="252" type="curve" smooth="yes"/>
			<point x="40" y="93"/>
			<point x="152" y="-16"/>
			<point x="292" y="-16" type="curve" smooth="yes"/>
			<point x="424" y="-16"/>
			<point x="503" y="76"/>
			<point x="497" y="192" type="curve"/>
			<point x="468" y="210" type="line"/>
			<point x="459" y="141"/>
			<point x="398" y="94"/>
			<point x="324" y="94" type="curve" smooth="yes"/>
			<point x="236" y="94"/>
			<point x="177" y="160"/>
			<point x="177" y="252" type="curve" smooth="yes"/>
			<point x="177" y="343"/>
			<point x="233" y="409"/>
			<point x="319" y="409" type="curve" smooth="yes"/>
			<point x="402" y="409"/>
			<point x="461" y="346"/>
			<point x="461" y="248" type="curve" smooth="yes"/>
			<point x="461" y="126" type="line"/>
			<point x="462" y="119" type="line"/>
			<point x="462" y="0" type="line"/>
		</contour>
	</outline>
	<anchor name="top_right" x="705" y="540"/>
</glyph>
<glyph name="e" format="2">
	<unicode hex="0065"/>
	<advance width="609"/>
	<outline>
		<contour>
			<point x="493" y="157" type="line"/>
			<point x="452" y="111"/>
			<point x="402" y="88"/>
			<point x="341" y="88" type="curve" smooth="yes"/>
			<point x="242" y="88"/>
			<point x="174" y="148"/>
			<point x="174" y="254" type="curve" smooth="yes"/>
			<point x="174" y="354"/>
			<point x="230" y="416"/>
			<point x="311" y="416" type="curve" smooth="yes"/>
			<point x="389" y="416"/>
			<point x="440" y="355"/>
			<point x="440" y="264" type="curve" smooth="yes"/>
			<point x="440" y="250" type="line"/>
			<point x="569" y="250" type="line"/>
			<point x="569" y="256" type="line" smooth="yes"/>
			<point x="569" y="411"/>
			<point x="461" y="519"/>
			<point x="312" y="519" type="curve" smooth="yes"/>
			<point x="157" y="519"/>
			<point x="40" y="409"/>
			<point x="40" y="251" type="curve" smooth="yes"/>
			<point x="40" y="93"/>
			<point x="159" y="-16"/>
			<point x="334" y="-16" type="curve" smooth="yes"/>
			<point x="429" y="-16"/>
			<point x="511" y="18"/>
			<point x="563" y="76" type="curve"/>
		</contour>
		<contour>
			<point x="569" y="210" type="line"/>
			<point x="569" y="256" type="line"/>
			<point x="553" y="296" type="line"/>
			<point x="125" y="296" type="line"/>
			<point x="125" y="210" type="line"/>
		</contour>
	</outline>
	<anchor name="bottom.LC" x="311" y="-50"/>
	<anchor name="ogonek.LC.round" x="386" y="-30"/>
	<anchor name="top.LC" x="311" y="544"/>
</glyph>
<glyph name="g" format="2">
	<unicode hex="0067"/>
	<advance width="651"/>
	<outline>
		<contour>
			<point x="593" y="62" type="curve" smooth="yes"/>
			<point x="593" y="503" type="line"/>
			<point x="462" y="503" type="line"/>
			<point x="462" y="347" type="line"/>
			<point x="491" y="347" type="line"/>
			<point x="476" y="453"/>
			<point x="400" y="519"/>
			<point x="291" y="519" type="curve" smooth="yes"/>
			<point x="154" y="519"/>
			<point x="40" y="411"/>
			<point x="40" y="257" type="curve" smooth="yes"/>
			<point x="40" y="102"/>
			<point x="153" y="-2"/>
			<point x="292" y="-2" type="curve" smooth="yes"/>
			<point x="422" y="-2"/>
			<point x="504" y="88"/>
			<point x="497" y="206" type="curve"/>
			<point x="468" y="224" type="line"/>
			<point x="459" y="155"/>
			<point x="397" y="108"/>
			<point x="324" y="108" type="curve" smooth="yes"/>
			<point x="235" y="108"/>
			<point x="177" y="170"/>
			<point x="177" y="257" type="curve" smooth="yes"/>
			<point x="177" y="343"/>
			<point x="233" y="409"/>
			<point x="319" y="409" type="curve" smooth="yes"/>
			<point x="398" y="409"/>
			<point x="461" y="352"/>
			<point x="461" y="248" type="curve" smooth="yes"/>
			<point x="461" y="55" type="line" smooth="yes"/>
			<point x="461" y="-43"/>
			<point x="398" y="-101"/>
			<point x="297" y="-101" type="curve" smooth="yes"/>
			<point x="231" y="-101"/>
			<point x="180" y="-78"/>
			<point x="141" y="-37" type="curve"/>
			<point x="69" y="-125" type="line"/>
			<point x="122" y="-178"/>
			<point x="209" y="-210"/>
			<point x="304" y="-210" type="curve" smooth="yes"/>
			<point x="475" y="-210"/>
			<point x="593" y="-103"/>
		</contour>
	</outline>
	<anchor name="top.LC" x="319" y="544"/>
</glyph>
<glyph name="h" format="2">
	<unicode hex="0068"/>
	<advance width="600"/>
	<outline>
		<contour>
			<point x="548" y="0" type="line"/>
			<point x="548" y="304" type="line" smooth="yes"/>
			<point x="548" y="443"/>
			<point x="474" y="519"/>
			<point x="354" y="519" type="curve" smooth="yes"/>
			<point x="278" y="519"/>
			<point x="190" y="482"/>
			<point x="173" y="347" type="curve"/>
			<point x="190" y="347" type="line"/>
			<point x="190" y="720" type="line"/>
			<point x="58" y="720" type="line"/>
			<point x="58" y="0" type="line"/>
			<point x="190" y="0" type="line"/>
			<point x="190" y="244" type="line" smooth="yes"/>
			<point x="190" y="360"/>
			<point x="251" y="409"/>
			<point x="316" y="409" type="curve" smooth="yes"/>
			<point x="377" y="409"/>
			<point x="416" y="369"/>
			<point x="416" y="291" type="curve" smooth="yes"/>
			<point x="416" y="0" type="line"/>
		</contour>
	</outline>
	<anchor name="bottom.LC" x="303" y="-50"/>
</glyph>
<glyph name="j" format="2">
	<unicode hex="006A"/>
	<advance width="249"/>
	<outline>
		<contour>
			<point x="-33" y="-194" type="line"/>
			<point x="49" y="-194" type="line" smooth="yes"/>
			<point x="145" y="-194"/>
			<point x="190" y="-148"/>
			<point x="190" y="-53" type="curve" smooth="yes"/>
			<point x="190" y="503" type="line"/>
			<point x="58" y="503" type="line"/>
			<point x="58" y="-30" type="line" smooth="yes"/>
			<point x="58" y="-70"/>
			<point x="43" y="-86"/>
			<point x="4" y="-86" type="curve" smooth="yes"/>
			<point x="-33" y="-86" type="line"/>
		</contour>
		<contour>
			<point x="124" y="590" type="curve" smooth="yes"/>
			<point x="169" y="590"/>
			<point x="204" y="624"/>
			<point x="204" y="667" type="curve" smooth="yes"/>
			<point x="204" y="711"/>
			<point x="169" y="745"/>
			<point x="124" y="745" type="curve" smooth="yes"/>
			<point x="79" y="745"/>
			<point x="44" y="711"/>
			<point x="44" y="667" type="curve" smooth="yes"/>
			<point x="44" y="624"/>
			<point x="79" y="590"/>
		</contour>
	</outline>
</glyph>
<glyph name="l" format="2">
	<unicode hex="006C"/>
	<advance width="250"/>
	<outline>
		<contour>
			<point x="191" y="0" type="line"/>
			<point x="191" y="720" type="line"/>
			<point x="59" y="720" type="line"/>
			<point x="59" y="0" type="line"/>
		</contour>
	</outline>
	<anchor name="bottom.LC" x="125" y="-50"/>
	<anchor name="top_right" x="303" y="540"/>
	<anchor name="top.LC" x="125" y="766"/>
</glyph>
<glyph name="n" format="2">
	<unicode hex="006E"/>
	<advance width="600"/>
	<outline>
		<contour>
			<point x="548" y="0" type="line"/>
			<point x="548" y="304" type="line" smooth="yes"/>
			<point x="548" y="443"/>
			<point x="474" y="519"/>
			<point x="354" y="519" type="curve" smooth="yes"/>
			<point x="278" y="519"/>
			<point x="190" y="482"/>
			<point x="173" y="347" type="curve"/>
			<point x="189" y="347" type="line"/>
			<point x="189" y="503" type="line"/>
			<point x="58" y="503" type="line"/>
			<point x="58" y="0" type="line"/>
			<point x="190" y="0" type="line"/>
			<point x="190" y="244" type="line" smooth="yes"/>
			<point x="190" y="360"/>
			<point x="251" y="409"/>
			<point x="316" y="409" type="curve" smooth="yes"/>
			<point x="377" y="409"/>
			<point x="416" y="369"/>
			<point x="416" y="291" type="curve" smooth="yes"/>
			<point x="416" y="0" type="line"/>
		</contour>
	</outline>
	<anchor name="top.LC" x="317" y="544"/>
	<anchor name="bottom.LC" x="303" y="-50"/>
</glyph>
<glyph name="o" format="2">
	<unicode hex="006F"/>
	<advance width="637"/>
	<outline>
		<contour>
			<point x="318" y="-16" type="curve" smooth="yes"/>
			<point x="482" y="-16"/>
			<point x="597" y="95"/>
			<point x="597" y="252" type="curve" smooth="yes"/>
			<point x="597" y="408"/>
			<point x="482" y="519"/>
			<point x="318" y="519" type="curve" smooth="yes"/>
			<point x="155" y="519"/>
			<point x="40" y="408"/>
			<point x="40" y="252" type="curve" smooth="yes"/>
			<point x="40" y="95"/>
			<point x="155" y="-16"/>
		</contour>
		<contour>
			<point x="318" y="94" type="curve" smooth="yes"/>
			<point x="234" y="94"/>
			<point x="177" y="159"/>
			<point x="177" y="252" type="curve" smooth="yes"/>
			<point x="177" y="344"/>
			<point x="234" y="409"/>
			<point x="318" y="409" type="curve" smooth="yes"/>
			<point x="403" y="409"/>
			<point x="460" y="344"/>
			<point x="460" y="252" type="curve" smooth="yes"/>
			<point x="460" y="159"/>
			<point x="403" y="94"/>
		</contour>
	</outline>
	<anchor name="bottom.LC" x="318" y="-50"/>
	<anchor name="top.LC" x="318" y="544"/>
	<anchor name="topright.LC" x="453" y="493"/>
</glyph>
<glyph name="q" format="2">
	<unicode hex="0071"/>
	<advance width="651"/>
	<outline>
		<contour>
			<point x="593" y="-194" type="line"/>
			<point x="593" y="503" type="line"/>
			<point x="462" y="503" type="line"/>
			<point x="462" y="347" type="line"/>
			<point x="491" y="347" type="line"/>
			<point x="477" y="448"/>
			<point x="404" y="519"/>
			<point x="291" y="519" type="curve" smooth="yes"/>
			<point x="152" y="519"/>
			<point x="40" y="409"/>
			<point x="40" y="252" type="curve" smooth="yes"/>
			<point x="40" y="93"/>
			<point x="152" y="-16"/>
			<point x="292" y="-16" type="curve" smooth="yes"/>
			<point x="424" y="-16"/>
			<point x="503" y="76"/>
			<point x="497" y="192" type="curve"/>
			<point x="468" y="210" type="line"/>
			<point x="459" y="141"/>
			<point x="398" y="94"/>
			<point x="324" y="94" type="curve" smooth="yes"/>
			<point x="236" y="94"/>
			<point x="177" y="160"/>
			<point x="177" y="252" type="curve" smooth="yes"/>
			<point x="177" y="343"/>
			<point x="233" y="409"/>
			<point x="319" y="409" type="curve" smooth="yes"/>
			<point x="403" y="409"/>
			<point x="461" y="346"/>
			<point x="461" y="248" type="curve" smooth="yes"/>
			<point x="461" y="-194" type="line"/>
		</contour>
	</outline>
</glyph>
<glyph name="r" format="2">
	<unicode hex="0072"/>
	<advance width="398"/>
	<outline>
		<contour>
			<point x="371" y="512" type="line"/>
			<point x="353" y="512" type="line" smooth="yes"/>
			<point x="279" y="512"/>
			<point x="190" y="474"/>
			<point x="173" y="340" type="curve"/>
			<point x="189" y="340" type="line"/>
			<point x="189" y="503" type="line"/>
			<point x="58" y="503" type="line"/>
			<point x="58" y="0" type="line"/>
			<point x="190" y="0" type="line"/>
			<point x="190" y="215" type="line" smooth="yes"/>
			<point x="190" y="340"/>
			<point x="251" y="392"/>
			<point x="344" y="392" type="curve" smooth="yes"/>
			<point x="371" y="392" type="line"/>
		</contour>
	</outline>
	<anchor name="top.LC" x="220" y="544"/>
</glyph>
<glyph name="s" format="2">
	<unicode hex="0073"/>
	<advance width="541"/>
	<outline>
		<contour>
			<point x="21" y="76" type="line"/>
			<point x="80" y="19"/>
			<point x="168" y="-16"/>
			<point x="268" y="-16" type="curve" smooth="yes"/>
			<point x="408" y="-16"/>
			<point x="504" y="50"/>
			<point x="504" y="153" type="curve" smooth="yes"/>
			<point x="504" y="247"/>
			<point x="431" y="293"/>
			<point x="287" y="314" type="curve" smooth="yes"/>
			<point x="204" y="326"/>
			<point x="175" y="336"/>
			<point x="175" y="364" type="curve" smooth="yes"/>
			<point x="175" y="394"/>
			<point x="212" y="418"/>
			<point x="268" y="418" type="curve" smooth="yes"/>
			<point x="328" y="418"/>
			<point x="384" y="390"/>
			<point x="426" y="347" type="curve"/>
			<point x="500" y="431" type="line"/>
			<point x="444" y="484"/>
			<point x="367" y="519"/>
			<point x="267" y="519" type="curve" smooth="yes"/>
			<point x="138" y="519"/>
			<point x="47" y="451"/>
			<point x="47" y="352" type="curve" smooth="yes"/>
			<point x="47" y="268"/>
			<point x="121" y="222"/>
			<point x="260" y="201" type="curve" smooth="yes"/>
			<point x="334" y="189"/>
			<point x="374" y="173"/>
			<point x="374" y="142" type="curve" smooth="yes"/>
			<point x="374" y="111"/>
			<point x="335" y="85"/>
			<point x="274" y="85" type="curve" smooth="yes"/>
			<point x="208" y="85"/>
			<point x="141" y="114"/>
			<point x="95" y="159" type="curve"/>
		</contour>
	</outline>
	<anchor name="bottom.LC" x="267" y="-50"/>
	<anchor name="top.LC" x="267" y="544"/>
</glyph>
<glyph name="u" format="2">
	<unicode hex="0075"/>
	<advance width="598"/>
	<outline>
		<contour>
			<point x="540" y="0" type="line"/>
			<point x="540" y="503" type="line"/>
			<point x="408" y="503" type="line"/>
			<point x="408" y="124" type="line"/>
			<point x="409" y="96" type="line"/>
			<point x="409" y="0" type="line"/>
		</contour>
		<contour>
			<point x="415" y="210" type="line"/>
			<point x="406" y="142"/>
			<point x="349" y="94"/>
			<point x="284" y="94" type="curve" smooth="yes"/>
			<point x="222" y="94"/>
			<point x="185" y="131"/>
			<point x="185" y="203" type="curve" smooth="yes"/>
			<point x="185" y="503" type="line"/>
			<point x="53" y="503" type="line"/>
			<point x="53" y="189" type="line" smooth="yes"/>
			<point x="53" y="56"/>
			<point x="128" y="-16"/>
			<point x="246" y="-16" type="curve" smooth="yes"/>
			<point x="366" y="-16"/>
			<point x="445" y="68"/>
			<point x="442" y="192" type="curve"/>
		</contour>
	</outline>
	<anchor name="bottom.LC" x="296" y="-50"/>
	<anchor name="ogonek.LC" x="414" y="-30"/>
	<anchor name="top.LC" x="296" y="544"/>
	<anchor name="topright.LC" x="439" y="544"/>
</glyph>
<glyph name="v" format="2">
	<unicode hex="0076"/>
	<advance width="590"/>
	<outline>
		<contour>
			<point x="359" y="0" type="line"/>
			<point x="573" y="503" type="line"/>
			<point x="441" y="503" type="line"/>
			<point x="281" y="91" type="line"/>
			<point x="312" y="91" type="line"/>
			<point x="153" y="503" type="line"/>
			<point x="17" y="503" type="line"/>
			<point x="231" y="0" type="line"/>
		</contour>
	</outline>
</glyph>
<glyph name="w" format="2">
	<unicode hex="0077"/>
	<advance width="826"/>
	<outline>
		<contour>
			<point x="652" y="0" type="line"/>
			<point x="809" y="503" type="line"/>
			<point x="682" y="503" type="line"/>
			<point x="568" y="83" type="line"/>
			<point x="602" y="83" type="line"/>
			<point x="470" y="503" type="line"/>
			<point x="360" y="503" type="line"/>
			<point x="228" y="83" type="line"/>
			<point x="261" y="83" type="line"/>
			<point x="147" y="503" type="line"/>
			<point x="17" y="503" type="line"/>
			<point x="174" y="0" type="line"/>
			<point x="305" y="0" type="line"/>
			<point x="430" y="384" type="line"/>
			<point x="395" y="384" type="line"/>
			<point x="521" y="0" type="line"/>
		</contour>
	</outline>
	<anchor name="top.LC" x="413" y="544"/>
</glyph>
<glyph name="y" format="2">
	<unicode hex="0079"/>
	<advance width="590"/>
	<outline>
		<contour>
			<point x="441" y="503" type="line"/>
			<point x="275" y="75" type="line"/>
			<point x="318" y="75" type="line"/>
			<point x="153" y="503" type="line"/>
			<point x="17" y="503" type="line"/>
			<point x="232" y="-1" type="line"/>
			<point x="221" y="-29" type="line" smooth="yes"/>
			<point x="204" y="-69"/>
			<point x="178" y="-86"/>
			<point x="138" y="-86" type="curve" smooth="yes"/>
			<point x="80" y="-86" type="line"/>
			<point x="80" y="-194" type="line"/>
			<point x="145" y="-194" type="line" smooth="yes"/>
			<point x="242" y="-194"/>
			<point x="296" y="-148"/>
			<point x="334" y="-58" type="curve" smooth="yes"/>
			<point x="573" y="503" type="line"/>
		</contour>
	</outline>
	<anchor name="bottom.LC" x="443" y="-50"/>
	<anchor name="top.LC" x="296" y="544"/>
</glyph>
<glyph name="z" format="2">
	<unicode hex="007A"/>
	<advance width="519"/>
	<outline>
		<contour>
			<point x="482" y="0" type="line"/>
			<point x="482" y="106" type="line"/>
			<point x="202" y="106" type="line"/>
			<point x="472" y="397" type="line"/>
			<point x="472" y="503" type="line"/>
			<point x="48" y="503" type="line"/>
			<point x="48" y="397" type="line"/>
			<point x="308" y="397" type="line"/>
			<point x="38" y="106" type="line"/>
			<point x="38" y="0" type="line"/>
		</contour>
	</outline>
	<anchor name="top.LC" x="257" y="544"/>
</glyph>
<glyph name="bar" format="2">
	<unicode hex="007C"/>
	<advance width="237"/>
	<outline>
		<contour>
			<point x="183" y="-129" type="line"/>
			<point x="183" y="736" type="line"/>
			<point x="54" y="736" type="line"/>
			<point x="54" y="-129" type="line"/>
		</contour>
	</outline>
</glyph>
<glyph name="braceright" format="2">
	<unicode hex="007D"/>
	<advance width="393"/>
	<outline>
		<contour>
			<point x="35" y="-129" type="line"/>
			<point x="131" y="-129" type="line" smooth="yes"/>
			<point x="227" y="-129"/>
			<point x="272" y="-83"/>
			<point x="272" y="12" type="curve" smooth="yes"/>
			<point x="272" y="195" type="line" smooth="yes"/>
			<point x="272" y="235"/>
			<point x="287" y="250"/>
			<point x="327" y="250" type="curve" smooth="yes"/>
			<point x="356" y="250" type="line"/>
			<point x="356" y="353" type="line"/>
			<point x="327" y="353" type="line" smooth="yes"/>
			<point x="287" y="353"/>
			<point x="272" y="369"/>
			<point x="272" y="409" type="curve" smooth="yes"/>
			<point x="272" y="590" type="line" smooth="yes"/>
			<point x="272" y="685"/>
			<point x="227" y="731"/>
			<point x="131" y="731" type="curve" smooth="yes"/>
			<point x="35" y="731" type="line"/>
			<point x="35" y="628" type="line"/>
			<point x="89" y="628" type="line" smooth="yes"/>
			<point x="128" y="628"/>
			<point x="143" y="612"/>
			<point x="143" y="572" type="curve" smooth="yes"/>
			<point x="143" y="430" type="line" smooth="yes"/>
			<point x="143" y="334"/>
			<point x="189" y="289"/>
			<point x="284" y="289" type="curve"/>
			<point x="284" y="315" type="line"/>
			<point x="189" y="315"/>
			<point x="143" y="269"/>
			<point x="143" y="174" type="curve" smooth="yes"/>
			<point x="143" y="30" type="line" smooth="yes"/>
			<point x="143" y="-10"/>
			<point x="128" y="-26"/>
			<point x="89" y="-26" type="curve" smooth="yes"/>
			<point x="35" y="-26" type="line"/>
		</contour>
	</outline>
</glyph>
<glyph name="cent" format="2">
	<unicode hex="00A2"/>
	<advance width="660"/>
	<outline>
		<contour>
			<point x="503" y="161" type="line"/>
			<point x="476" y="121"/>
			<point x="430" y="87"/>
			<point x="368" y="87" type="curve" smooth="yes"/>
			<point x="278" y="87"/>
			<point x="212" y="156"/>
			<point x="212" y="252" type="curve" smooth="yes"/>
			<point x="212" y="347"/>
			<point x="278" y="416"/>
			<point x="368" y="416" type="curve" smooth="yes"/>
			<point x="430" y="416"/>
			<point x="476" y="382"/>
			<point x="503" y="343" type="curve"/>
			<point x="579" y="418" type="line"/>
			<point x="527" y="482"/>
			<point x="453" y="519"/>
			<point x="360" y="519" type="curve" smooth="yes"/>
			<point x="202" y="519"/>
			<point x="84" y="407"/>
			<point x="84" y="252" type="curve" smooth="yes"/>
			<point x="84" y="96"/>
			<point x="201" y="-16"/>
			<point x="357" y="-16" type="curve" smooth="yes"/>
			<point x="453" y="-16"/>
			<point x="526" y="21"/>
			<point x="579" y="86" type="curve"/>
		</contour>
		<contour>
			<point x="396" y="-116" type="line"/>
			<point x="396" y="619" type="line"/>
			<point x="326" y="619" type="line"/>
			<point x="326" y="-116" type="line"/>
		</contour>
	</outline>
</glyph>
<glyph name="sterling" format="2">
	<unicode hex="00A3"/>
	<advance width="660"/>
	<outline>
		<contour>
			<point x="612" y="0" type="line"/>
			<point x="612" y="108" type="line"/>
			<point x="59" y="108" type="line"/>
			<point x="59" y="0" type="line"/>
		</contour>
		<contour>
			<point x="497" y="302" type="line"/>
			<point x="497" y="404" type="line"/>
			<point x="69" y="404" type="line"/>
			<point x="69" y="302" type="line"/>
		</contour>
		<contour>
			<point x="614" y="611" type="line"/>
			<point x="563" y="688"/>
			<point x="485" y="731"/>
			<point x="392" y="731" type="curve" smooth="yes"/>
			<point x="242" y="731"/>
			<point x="150" y="631"/>
			<point x="150" y="484" type="curve" smooth="yes"/>
			<point x="150" y="55" type="line"/>
			<point x="280" y="55" type="line"/>
			<point x="280" y="486" type="line" smooth="yes"/>
			<point x="280" y="567"/>
			<point x="321" y="619"/>
			<point x="392" y="619" type="curve" smooth="yes"/>
			<point x="445" y="619"/>
			<point x="487" y="591"/>
			<point x="526" y="530" type="curve"/>
		</contour>
	</outline>
</glyph>
<glyph name="brokenbar" format="2">
	<unicode hex="00A6"/>
	<advance width="237"/>
	<outline>
		<contour>
			<point x="54" y="390" type="line"/>
			<point x="183" y="390" type="line"/>
			<point x="183" y="736" type="line"/>
			<point x="54" y="736" type="line"/>
		</contour>
		<contour>
			<point x="54" y="-129" type="line"/>
			<point x="183" y="-129" type="line"/>
			<point x="183" y="217" type="line"/>
			<point x="54" y="217" type="line"/>
		</contour>
	</outline>
</glyph>
<glyph name="section" format="2">
	<unicode hex="00A7"/>
	<advance width="577"/>
	<outline>
		<contour>
			<point x="528" y="314" type="curve" smooth="yes"/>
			<point x="528" y="408"/>
			<point x="450" y="455"/>
			<point x="313" y="483" type="curve" smooth="yes"/>
			<point x="227" y="500"/>
			<point x="199" y="525"/>
			<point x="199" y="563" type="curve" smooth="yes"/>
			<point x="199" y="609"/>
			<point x="238" y="637"/>
			<point x="295" y="637" type="curve" smooth="yes"/>
			<point x="354" y="637"/>
			<point x="410" y="605"/>
			<point x="444" y="563" type="curve"/>
			<point x="510" y="637" type="line"/>
			<point x="462" y="691"/>
			<point x="383" y="731"/>
			<point x="294" y="731" type="curve" smooth="yes"/>
			<point x="179" y="731"/>
			<point x="88" y="658"/>
			<point x="88" y="557" type="curve" smooth="yes"/>
			<point x="88" y="504"/>
			<point x="112" y="461"/>
			<point x="158" y="431" type="curve"/>
			<point x="102" y="401"/>
			<point x="64" y="353"/>
			<point x="64" y="291" type="curve" smooth="yes"/>
			<point x="64" y="196"/>
			<point x="145" y="149"/>
			<point x="281" y="121" type="curve" smooth="yes"/>
			<point x="367" y="104"/>
			<point x="396" y="79"/>
			<point x="396" y="38" type="curve" smooth="yes"/>
			<point x="396" y="-4"/>
			<point x="358" y="-33"/>
			<point x="292" y="-33" type="curve" smooth="yes"/>
			<point x="229" y="-33"/>
			<point x="161" y="-2"/>
			<point x="125" y="40" type="curve"/>
			<point x="60" y="-33" type="line"/>
			<point x="110" y="-88"/>
			<point x="196" y="-128"/>
			<point x="291" y="-128" type="curve" smooth="yes"/>
			<point x="413" y="-128"/>
			<point x="508" y="-58"/>
			<point x="508" y="44" type="curve" smooth="yes"/>
			<point x="508" y="101"/>
			<point x="481" y="144"/>
			<point x="435" y="174" type="curve"/>
			<point x="491" y="204"/>
			<point x="528" y="252"/>
		</contour>
		<contour>
			<point x="417" y="295" type="curve"/>
			<point x="417" y="255"/>
			<point x="382" y="226"/>
			<point x="340" y="213" type="curve"/>
			<point x="305" y="222" type="line" smooth="yes"/>
			<point x="215" y="245"/>
			<point x="176" y="264"/>
			<point x="176" y="310" type="curve" smooth="yes"/>
			<point x="176" y="350"/>
			<point x="211" y="379"/>
			<point x="252" y="391" type="curve"/>
			<point x="287" y="383" type="line" smooth="yes"/>
			<point x="379" y="363"/>
			<point x="416" y="340"/>
		</contour>
	</outline>
</glyph>
<glyph name="copyright" format="2">
	<unicode hex="00A9"/>
	<advance width="852"/>
	<outline>
		<contour>
			<point x="539" y="286" type="line"/>
			<point x="515" y="252"/>
			<point x="478" y="231"/>
			<point x="435" y="231" type="curve" smooth="yes"/>
			<point x="366" y="231"/>
			<point x="316" y="284"/>
			<point x="316" y="359" type="curve" smooth="yes"/>
			<point x="316" y="433"/>
			<point x="366" y="486"/>
			<point x="435" y="486" type="curve" smooth="yes"/>
			<point x="478" y="486"/>
			<point x="515" y="465"/>
			<point x="539" y="432" type="curve"/>
			<point x="602" y="496" type="line"/>
			<point x="566" y="541"/>
			<point x="506" y="572"/>
			<point x="431" y="572" type="curve" smooth="yes"/>
			<point x="304" y="572"/>
			<point x="211" y="483"/>
			<point x="211" y="359" type="curve" smooth="yes"/>
			<point x="211" y="234"/>
			<point x="302" y="145"/>
			<point x="429" y="145" type="curve" smooth="yes"/>
			<point x="504" y="145"/>
			<point x="566" y="176"/>
			<point x="602" y="221" type="curve"/>
		</contour>
		<contour>
			<point x="426" y="-26" type="curve" smooth="yes"/>
			<point x="639" y="-26"/>
			<point x="807" y="144"/>
			<point x="807" y="358" type="curve" smooth="yes"/>
			<point x="807" y="572"/>
			<point x="639" y="742"/>
			<point x="426" y="742" type="curve" smooth="yes"/>
			<point x="213" y="742"/>
			<point x="45" y="572"/>
			<point x="45" y="358" type="curve" smooth="yes"/>
			<point x="45" y="144"/>
			<point x="213" y="-26"/>
		</contour>
		<contour>
			<point x="426" y="55" type="curve" smooth="yes"/>
			<point x="259" y="55"/>
			<point x="127" y="189"/>
			<point x="127" y="358" type="curve" smooth="yes"/>
			<point x="127" y="527"/>
			<point x="259" y="661"/>
			<point x="426" y="661" type="curve" smooth="yes"/>
			<point x="593" y="661"/>
			<point x="725" y="527"/>
			<point x="725" y="358" type="curve" smooth="yes"/>
			<point x="725" y="189"/>
			<point x="593" y="55"/>
		</contour>
	</outline>
</glyph>
<glyph name="ordfeminine" format="2">
	<unicode hex="00AA"/>
	<advance width="475"/>
	<outline>
		<contour>
			<point x="423" y="307" type="line"/>
			<point x="423" y="548" type="line" smooth="yes"/>
			<point x="423" y="654"/>
			<point x="344" y="715"/>
			<point x="225" y="715" type="curve" smooth="yes"/>
			<point x="156" y="715"/>
			<point x="92" y="690"/>
			<point x="51" y="651" type="curve"/>
			<point x="108" y="583" type="line"/>
			<point x="137" y="611"/>
			<point x="175" y="629"/>
			<point x="219" y="629" type="curve" smooth="yes"/>
			<point x="278" y="629"/>
			<point x="316" y="599"/>
			<point x="316" y="546" type="curve" smooth="yes"/>
			<point x="316" y="397" type="line"/>
			<point x="321" y="388" type="line"/>
			<point x="321" y="307" type="line"/>
		</contour>
		<contour>
			<point x="190" y="294" type="curve" smooth="yes"/>
			<point x="288" y="294"/>
			<point x="353" y="359"/>
			<point x="353" y="457" type="curve"/>
			<point x="325" y="470" type="line"/>
			<point x="320" y="417"/>
			<point x="276" y="378"/>
			<point x="219" y="378" type="curve" smooth="yes"/>
			<point x="179" y="378"/>
			<point x="152" y="398"/>
			<point x="152" y="429" type="curve" smooth="yes"/>
			<point x="152" y="463"/>
			<point x="186" y="483"/>
			<point x="239" y="483" type="curve" smooth="yes"/>
			<point x="323" y="483" type="line"/>
			<point x="323" y="554" type="line"/>
			<point x="231" y="554" type="line" smooth="yes"/>
			<point x="112" y="554"/>
			<point x="38" y="505"/>
			<point x="38" y="424" type="curve" smooth="yes"/>
			<point x="38" y="347"/>
			<point x="100" y="294"/>
		</contour>
	</outline>
</glyph>
<glyph name="logicalnot" format="2">
	<unicode hex="00AC"/>
	<advance width="660"/>
	<outline>
		<contour>
			<point x="560" y="155" type="line"/>
			<point x="560" y="411" type="line"/>
			<point x="100" y="411" type="line"/>
			<point x="100" y="304" type="line"/>
			<point x="454" y="304" type="line"/>
			<point x="454" y="155" type="line"/>
		</contour>
	</outline>
</glyph>
<glyph name="micro" format="2">
	<unicode hex="00B5"/>
	<advance width="660"/>
	<outline>
		<contour>
			<point x="443" y="0" type="line"/>
			<point x="574" y="0" type="line"/>
			<point x="574" y="503" type="line"/>
			<point x="442" y="503" type="line"/>
			<point x="442" y="124" type="line"/>
			<point x="443" y="96" type="line"/>
		</contour>
		<contour>
			<point x="87" y="-194" type="line"/>
			<point x="219" y="-194" type="line"/>
			<point x="219" y="83" type="line"/>
			<point x="173" y="44" type="line"/>
			<point x="192" y="4"/>
			<point x="235" y="-16"/>
			<point x="293" y="-16" type="curve" smooth="yes"/>
			<point x="404" y="-16"/>
			<point x="479" y="68"/>
			<point x="476" y="192" type="curve"/>
			<point x="449" y="210" type="line"/>
			<point x="440" y="142"/>
			<point x="383" y="94"/>
			<point x="318" y="94" type="curve" smooth="yes"/>
			<point x="256" y="94"/>
			<point x="219" y="131"/>
			<point x="219" y="203" type="curve" smooth="yes"/>
			<point x="219" y="503" type="line"/>
			<point x="87" y="503" type="line"/>
		</contour>
	</outline>
</glyph>
<glyph name="paragraph" format="2">
	<unicode hex="00B6"/>
	<advance width="650"/>
	<outline>
		<contour>
			<point x="356" y="-130" type="line"/>
			<point x="356" y="603" type="line"/>
			<point x="457" y="603" type="line"/>
			<point x="457" y="-130" type="line"/>
			<point x="575" y="-130" type="line"/>
			<point x="575" y="715" type="line"/>
			<point x="292" y="715" type="line" smooth="yes"/>
			<point x="137" y="715"/>
			<point x="34" y="624"/>
			<point x="34" y="487" type="curve" smooth="yes"/>
			<point x="34" y="370"/>
			<point x="116" y="281"/>
			<point x="238" y="265" type="curve"/>
			<point x="238" y="-130" type="line"/>
		</contour>
	</outline>
</glyph>
<glyph name="ordmasculine" format="2">
	<unicode hex="00BA"/>
	<advance width="526"/>
	<outline>
		<contour>
			<point x="263" y="295" type="curve" smooth="yes"/>
			<point x="393" y="295"/>
			<point x="484" y="382"/>
			<point x="484" y="505" type="curve" smooth="yes"/>
			<point x="484" y="628"/>
			<point x="393" y="715"/>
			<point x="263" y="715" type="curve" smooth="yes"/>
			<point x="133" y="715"/>
			<point x="42" y="628"/>
			<point x="42" y="505" type="curve" smooth="yes"/>
			<point x="42" y="382"/>
			<point x="133" y="295"/>
		</contour>
		<contour>
			<point x="263" y="390" type="curve" smooth="yes"/>
			<point x="203" y="390"/>
			<point x="161" y="438"/>
			<point x="161" y="505" type="curve" smooth="yes"/>
			<point x="161" y="572"/>
			<point x="203" y="620"/>
			<point x="263" y="620" type="curve" smooth="yes"/>
			<point x="323" y="620"/>
			<point x="365" y="572"/>
			<point x="365" y="505" type="curve" smooth="yes"/>
			<point x="365" y="438"/>
			<point x="323" y="390"/>
		</contour>
	</outline>
</glyph>
<glyph name="Eth" format="2">
	<unicode hex="00D0"/>
	<advance width="755"/>
	<outline>
		<contour>
			<point x="71" y="0" type="line"/>
			<point x="321" y="0" type="line" smooth="yes"/>
			<point x="551" y="0"/>
			<point x="706" y="149"/>
			<point x="706" y="358" type="curve" smooth="yes"/>
			<point x="706" y="566"/>
			<point x="551" y="715"/>
			<point x="321" y="715" type="curve" smooth="yes"/>
			<point x="71" y="715" type="line"/>
		</contour>
		<contour>
			<point x="206" y="115" type="line"/>
			<point x="206" y="600" type="line"/>
			<point x="321" y="600" type="line" smooth="yes"/>
			<point x="471" y="600"/>
			<point x="564" y="504"/>
			<point x="564" y="358" type="curve" smooth="yes"/>
			<point x="564" y="211"/>
			<point x="471" y="115"/>
			<point x="321" y="115" type="curve" smooth="yes"/>
		</contour>
		<contour>
			<point x="366" y="305" type="line"/>
			<point x="366" y="419" type="line"/>
			<point x="7" y="419" type="line"/>
			<point x="7" y="305" type="line"/>
		</contour>
	</outline>
</glyph>
<glyph name="multiply" format="2">
	<unicode hex="00D7"/>
	<advance width="660"/>
	<outline>
		<contour>
			<point x="545" y="215" type="line"/>
			<point x="188" y="573" type="line"/>
			<point x="115" y="500" type="line"/>
			<point x="472" y="143" type="line"/>
		</contour>
		<contour>
			<point x="472" y="573" type="line"/>
			<point x="115" y="215" type="line"/>
			<point x="188" y="143" type="line"/>
			<point x="545" y="500" type="line"/>
		</contour>
	</outline>
</glyph>
<glyph name="germandbls" format="2">
	<unicode hex="00DF"/>
	<advance width="647"/>
	<outline>
		<contour>
			<point x="185" y="0" type="line"/>
			<point x="185" y="455" type="line" smooth="yes"/>
			<point x="185" y="572"/>
			<point x="238" y="625"/>
			<point x="315" y="625" type="curve" smooth="yes"/>
			<point x="382" y="625"/>
			<point x="419" y="584"/>
			<point x="419" y="530" type="curve" smooth="yes"/>
			<point x="419" y="468"/>
			<point x="373" y="425"/>
			<point x="307" y="425" type="curve" smooth="yes"/>
			<point x="285" y="425" type="line"/>
			<point x="285" y="318" type="line"/>
			<point x="330" y="318" type="line" smooth="yes"/>
			<point x="409" y="318"/>
			<point x="477" y="271"/>
			<point x="477" y="194" type="curve" smooth="yes"/>
			<point x="477" y="132"/>
			<point x="434" y="90"/>
			<point x="377" y="90" type="curve" smooth="yes"/>
			<point x="341" y="90"/>
			<point x="306" y="102"/>
			<point x="282" y="125" type="curve"/>
			<point x="227" y="35" type="line"/>
			<point x="259" y="4"/>
			<point x="328" y="-16"/>
			<point x="385" y="-16" type="curve" smooth="yes"/>
			<point x="520" y="-16"/>
			<point x="610" y="68"/>
			<point x="610" y="191" type="curve" smooth="yes"/>
			<point x="610" y="327"/>
			<point x="494" y="407"/>
			<point x="346" y="407" type="curve" smooth="yes"/>
			<point x="304" y="407" type="line"/>
			<point x="304" y="349" type="line"/>
			<point x="307" y="349" type="line" smooth="yes"/>
			<point x="459" y="349"/>
			<point x="552" y="427"/>
			<point x="552" y="533" type="curve" smooth="yes"/>
			<point x="552" y="642"/>
			<point x="457" y="731"/>
			<point x="313" y="731" type="curve" smooth="yes"/>
			<point x="163" y="731"/>
			<point x="53" y="636"/>
			<point x="53" y="467" type="curve" smooth="yes"/>
			<point x="53" y="0" type="line"/>
		</contour>
	</outline>
</glyph>
<glyph name="eth" format="2">
	<unicode hex="00F0"/>
	<advance width="637"/>
	<outline>
		<contour>
			<point x="503" y="238" type="line"/>
			<point x="503" y="384"/>
			<point x="449" y="489"/>
			<point x="300" y="489" type="curve" smooth="yes"/>
			<point x="157" y="489"/>
			<point x="40" y="384"/>
			<point x="40" y="238" type="curve" smooth="yes"/>
			<point x="40" y="93"/>
			<point x="157" y="-16"/>
			<point x="318" y="-16" type="curve" smooth="yes"/>
			<point x="480" y="-16"/>
			<point x="597" y="89"/>
			<point x="597" y="286" type="curve" smooth="yes"/>
			<point x="597" y="495"/>
			<point x="478" y="674"/>
			<point x="271" y="774" type="curve"/>
			<point x="165" y="731" type="line"/>
			<point x="376" y="614"/>
			<point x="476" y="467"/>
			<point x="476" y="238" type="curve"/>
		</contour>
		<contour>
			<point x="318" y="94" type="curve" smooth="yes"/>
			<point x="235" y="94"/>
			<point x="177" y="156"/>
			<point x="177" y="238" type="curve" smooth="yes"/>
			<point x="177" y="323"/>
			<point x="235" y="383"/>
			<point x="318" y="383" type="curve" smooth="yes"/>
			<point x="402" y="383"/>
			<point x="460" y="323"/>
			<point x="460" y="238" type="curve" smooth="yes"/>
			<point x="460" y="156"/>
			<point x="402" y="94"/>
		</contour>
		<contour>
			<point x="541" y="653" type="line"/>
			<point x="505" y="742" type="line"/>
			<point x="176" y="605" type="line"/>
			<point x="212" y="515" type="line"/>
		</contour>
	</outline>
</glyph>
<glyph name="divide" format="2">
	<unicode hex="00F7"/>
	<advance width="660"/>
	<outline>
		<contour>
			<point x="574" y="304" type="line"/>
			<point x="574" y="411" type="line"/>
			<point x="86" y="411" type="line"/>
			<point x="86" y="304" type="line"/>
		</contour>
		<contour>
			<point x="330" y="465" type="curve" smooth="yes"/>
			<point x="373" y="465"/>
			<point x="407" y="498"/>
			<point x="407" y="539" type="curve" smooth="yes"/>
			<point x="407" y="582"/>
			<point x="373" y="614"/>
			<point x="330" y="614" type="curve" smooth="yes"/>
			<point x="287" y="614"/>
			<point x="253" y="582"/>
			<point x="253" y="539" type="curve" smooth="yes"/>
			<point x="253" y="498"/>
			<point x="287" y="465"/>
		</contour>
		<contour>
			<point x="330" y="101" type="curve" smooth="yes"/>
			<point x="373" y="101"/>
			<point x="407" y="134"/>
			<point x="407" y="175" type="curve" smooth="yes"/>
			<point x="407" y="217"/>
			<point x="373" y="250"/>
			<point x="330" y="250" type="curve" smooth="yes"/>
			<point x="287" y="250"/>
			<point x="253" y="217"/>
			<point x="253" y="175" type="curve" smooth="yes"/>
			<point x="253" y="134"/>
			<point x="287" y="101"/>
		</contour>
	</outline>
</glyph>
<glyph name="oslash" format="2">
	<unicode hex="00F8"/>
	<advance width="643"/>
	<outline>
		<contour>
			<point x="322" y="-16" type="curve" smooth="yes"/>
			<point x="486" y="-16"/>
			<point x="601" y="95"/>
			<point x="601" y="252" type="curve" smooth="yes"/>
			<point x="601" y="408"/>
			<point x="486" y="519"/>
			<point x="322" y="519" type="curve" smooth="yes"/>
			<point x="159" y="519"/>
			<point x="44" y="408"/>
			<point x="44" y="252" type="curve" smooth="yes"/>
			<point x="44" y="95"/>
			<point x="159" y="-16"/>
		</contour>
		<contour>
			<point x="322" y="94" type="curve" smooth="yes"/>
			<point x="238" y="94"/>
			<point x="181" y="159"/>
			<point x="181" y="252" type="curve" smooth="yes"/>
			<point x="181" y="344"/>
			<point x="238" y="409"/>
			<point x="322" y="409" type="curve" smooth="yes"/>
			<point x="407" y="409"/>
			<point x="464" y="344"/>
			<point x="464" y="252" type="curve" smooth="yes"/>
			<point x="464" y="159"/>
			<point x="407" y="94"/>
		</contour>
		<contour>
			<point x="90" y="-31" type="line"/>
			<point x="615" y="472" type="line"/>
			<point x="554" y="534" type="line"/>
			<point x="28" y="31" type="line"/>
		</contour>
	</outline>
</glyph>
<glyph name="thorn" format="2">
	<unicode hex="00FE"/>
	<advance width="651"/>
	<outline>
		<contour>
			<point x="190" y="-194" type="line"/>
			<point x="190" y="248" type="line" smooth="yes"/>
			<point x="190" y="346"/>
			<point x="250" y="409"/>
			<point x="334" y="409" type="curve" smooth="yes"/>
			<point x="420" y="409"/>
			<point x="475" y="343"/>
			<point x="475" y="252" type="curve" smooth="yes"/>
			<point x="475" y="160"/>
			<point x="416" y="94"/>
			<point x="328" y="94" type="curve" smooth="yes"/>
			<point x="254" y="94"/>
			<point x="193" y="141"/>
			<point x="183" y="210" type="curve"/>
			<point x="155" y="192" type="line"/>
			<point x="149" y="76"/>
			<point x="228" y="-16"/>
			<point x="359" y="-16" type="curve" smooth="yes"/>
			<point x="500" y="-16"/>
			<point x="612" y="93"/>
			<point x="612" y="252" type="curve" smooth="yes"/>
			<point x="612" y="409"/>
			<point x="501" y="519"/>
			<point x="362" y="519" type="curve" smooth="yes"/>
			<point x="251" y="519"/>
			<point x="175" y="446"/>
			<point x="162" y="347" type="curve"/>
			<point x="190" y="347" type="line"/>
			<point x="190" y="720" type="line"/>
			<point x="58" y="720" type="line"/>
			<point x="58" y="-194" type="line"/>
		</contour>
	</outline>
</glyph>
<glyph name="dcroat" format="2">
	<unicode hex="0111"/>
	<advance width="686"/>
	<outline>
		<contour>
			<point x="593" y="0" type="line"/>
			<point x="593" y="720" type="line"/>
			<point x="461" y="720" type="line"/>
			<point x="461" y="328" type="line"/>
			<point x="493" y="328" type="line"/>
			<point x="479" y="429"/>
			<point x="405" y="501"/>
			<point x="291" y="501" type="curve" smooth="yes"/>
			<point x="151" y="501"/>
			<point x="40" y="394"/>
			<point x="40" y="242" type="curve" smooth="yes"/>
			<point x="40" y="89"/>
			<point x="152" y="-16"/>
			<point x="292" y="-16" type="curve" smooth="yes"/>
			<point x="423" y="-16"/>
			<point x="502" y="76"/>
			<point x="497" y="192" type="curve"/>
			<point x="468" y="210" type="line"/>
			<point x="459" y="141"/>
			<point x="400" y="94"/>
			<point x="324" y="94" type="curve" smooth="yes"/>
			<point x="237" y="94"/>
			<point x="176" y="155"/>
			<point x="176" y="242" type="curve" smooth="yes"/>
			<point x="176" y="327"/>
			<point x="233" y="391"/>
			<point x="318" y="391" type="curve" smooth="yes"/>
			<point x="402" y="391"/>
			<point x="461" y="328"/>
			<point x="461" y="230" type="curve" smooth="yes"/>
			<point x="461" y="126" type="line"/>
			<point x="462" y="119" type="line"/>
			<point x="462" y="0" type="line"/>
		</contour>
		<contour>
			<point x="674" y="552" type="line"/>
			<point x="674" y="646" type="line"/>
			<point x="309" y="646" type="line"/>
			<point x="309" y="552" type="line"/>
		</contour>
	</outline>
</glyph>
<glyph name="Hbar" format="2">
	<unicode hex="0126"/>
	<advance width="759"/>
	<outline>
		<contour>
			<point x="550" y="0" type="line"/>
			<point x="685" y="0" type="line"/>
			<point x="685" y="715" type="line"/>
			<point x="550" y="715" type="line"/>
		</contour>
		<contour>
			<point x="209" y="0" type="line"/>
			<point x="209" y="715" type="line"/>
			<point x="74" y="715" type="line"/>
			<point x="74" y="0" type="line"/>
		</contour>
		<contour>
			<point x="199" y="310" type="line"/>
			<point x="560" y="310" type="line"/>
			<point x="560" y="425" type="line"/>
			<point x="199" y="425" type="line"/>
		</contour>
		<contour>
			<point x="747" y="517" type="line"/>
			<point x="747" y="625" type="line"/>
			<point x="12" y="625" type="line"/>
			<point x="12" y="517" type="line"/>
		</contour>
	</outline>
</glyph>
<glyph name="hbar" format="2">
	<unicode hex="0127"/>
	<advance width="636"/>
	<outline>
		<contour>
			<point x="377" y="552" type="line"/>
			<point x="377" y="646" type="line"/>
			<point x="13" y="646" type="line"/>
			<point x="13" y="552" type="line"/>
		</contour>
		<contour>
			<point x="583" y="0" type="line"/>
			<point x="583" y="286" type="line" smooth="yes"/>
			<point x="583" y="425"/>
			<point x="509" y="501"/>
			<point x="390" y="501" type="curve" smooth="yes"/>
			<point x="313" y="501"/>
			<point x="225" y="463"/>
			<point x="208" y="328" type="curve"/>
			<point x="226" y="328" type="line"/>
			<point x="226" y="720" type="line"/>
			<point x="94" y="720" type="line"/>
			<point x="94" y="0" type="line"/>
			<point x="226" y="0" type="line"/>
			<point x="226" y="226" type="line" smooth="yes"/>
			<point x="226" y="342"/>
			<point x="286" y="391"/>
			<point x="352" y="391" type="curve" smooth="yes"/>
			<point x="412" y="391"/>
			<point x="451" y="351"/>
			<point x="451" y="272" type="curve" smooth="yes"/>
			<point x="451" y="0" type="line"/>
		</contour>
	</outline>
</glyph>
<glyph name="dotlessi" format="2">
	<unicode hex="0131"/>
	<advance width="249"/>
	<outline>
		<contour>
			<point x="190" y="0" type="line"/>
			<point x="190" y="503" type="line"/>
			<point x="58" y="503" type="line"/>
			<point x="58" y="0" type="line"/>
		</contour>
	</outline>
	<anchor name="top.LC" x="124" y="544"/>
</glyph>
<glyph name="IJ" format="2">
	<unicode hex="0132"/>
	<advance width="706"/>
	<outline>
		<contour>
			<point x="200" y="349" type="line"/>
			<point x="200" y="715" type="line"/>
			<point x="65" y="715" type="line"/>
			<point x="65" y="349" type="line"/>
		</contour>
		<contour>
			<point x="641" y="715" type="line"/>
			<point x="506" y="715" type="line"/>
			<point x="506" y="278" type="line" smooth="yes"/>
			<point x="506" y="165"/>
			<point x="453" y="104"/>
			<point x="353" y="104" type="curve" smooth="yes"/>
			<point x="264" y="104"/>
			<point x="211" y="158"/>
			<point x="201" y="261" type="curve"/>
			<point x="66" y="246" type="line"/>
			<point x="78" y="83"/>
			<point x="185" y="-16"/>
			<point x="353" y="-16" type="curve" smooth="yes"/>
			<point x="539" y="-16"/>
			<point x="641" y="89"/>
			<point x="641" y="278" type="curve" smooth="yes"/>
		</contour>
	</outline>
	<anchor name="top.UC_1" x="132" y="750"/>
	<anchor name="top.UC_2" x="574" y="750"/>
</glyph>
<glyph name="Lslash" format="2">
	<unicode hex="0141"/>
	<advance width="623"/>
	<outline>
		<contour>
			<point x="591" y="0" type="line"/>
			<point x="591" y="117" type="line"/>
			<point x="253" y="117" type="line"/>
			<point x="253" y="715" type="line"/>
			<point x="118" y="715" type="line"/>
			<point x="118" y="0" type="line"/>
		</contour>
		<contour>
			<point x="450" y="423" type="line"/>
			<point x="393" y="518" type="line"/>
			<point x="10" y="284" type="line"/>
			<point x="66" y="189" type="line"/>
		</contour>
	</outline>
</glyph>
<glyph name="Eng" format="2">
	<unicode hex="014A"/>
	<advance width="759"/>
	<outline>
		<contour>
			<point x="230" y="-147" type="line"/>
			<point x="272" y="-183"/>
			<point x="342" y="-204"/>
			<point x="418" y="-204" type="curve" smooth="yes"/>
			<point x="592" y="-204"/>
			<point x="688" y="-110"/>
			<point x="688" y="81" type="curve" smooth="yes"/>
			<point x="688" y="715" type="line"/>
			<point x="556" y="715" type="line"/>
			<point x="556" y="81" type="line" smooth="yes"/>
			<point x="556" y="-32"/>
			<point x="508" y="-84"/>
			<point x="418" y="-84" type="curve" smooth="yes"/>
			<point x="376" y="-84"/>
			<point x="331" y="-71"/>
			<point x="299" y="-42" type="curve"/>
		</contour>
		<contour>
			<point x="203" y="0" type="line"/>
			<point x="203" y="586" type="line"/>
			<point x="152" y="586" type="line"/>
			<point x="561" y="0" type="line"/>
			<point x="623" y="129" type="line"/>
			<point x="213" y="715" type="line"/>
			<point x="71" y="715" type="line"/>
			<point x="71" y="0" type="line"/>
		</contour>
	</outline>
</glyph>
<glyph name="oe" format="2">
	<unicode hex="0153"/>
	<advance width="1029"/>
	<outline>
		<contour>
			<point x="311" y="-16" type="curve" smooth="yes"/>
			<point x="465" y="-16"/>
			<point x="568" y="95"/>
			<point x="568" y="252" type="curve" smooth="yes"/>
			<point x="568" y="408"/>
			<point x="465" y="519"/>
			<point x="311" y="519" type="curve" smooth="yes"/>
			<point x="155" y="519"/>
			<point x="40" y="408"/>
			<point x="40" y="252" type="curve" smooth="yes"/>
			<point x="40" y="95"/>
			<point x="155" y="-16"/>
		</contour>
		<contour>
			<point x="318" y="94" type="curve" smooth="yes"/>
			<point x="234" y="94"/>
			<point x="177" y="159"/>
			<point x="177" y="252" type="curve" smooth="yes"/>
			<point x="177" y="344"/>
			<point x="234" y="409"/>
			<point x="318" y="409" type="curve" smooth="yes"/>
			<point x="403" y="409"/>
			<point x="460" y="344"/>
			<point x="460" y="252" type="curve" smooth="yes"/>
			<point x="460" y="159"/>
			<point x="403" y="94"/>
		</contour>
		<contour>
			<point x="913" y="157" type="line"/>
			<point x="872" y="111"/>
			<point x="822" y="88"/>
			<point x="761" y="88" type="curve" smooth="yes"/>
			<point x="662" y="88"/>
			<point x="594" y="148"/>
			<point x="594" y="254" type="curve" smooth="yes"/>
			<point x="594" y="354"/>
			<point x="650" y="416"/>
			<point x="731" y="416" type="curve" smooth="yes"/>
			<point x="809" y="416"/>
			<point x="860" y="355"/>
			<point x="860" y="264" type="curve" smooth="yes"/>
			<point x="860" y="250" type="line"/>
			<point x="989" y="250" type="line"/>
			<point x="989" y="256" type="line" smooth="yes"/>
			<point x="989" y="411"/>
			<point x="881" y="519"/>
			<point x="732" y="519" type="curve" smooth="yes"/>
			<point x="586" y="519"/>
			<point x="475" y="409"/>
			<point x="475" y="251" type="curve" smooth="yes"/>
			<point x="475" y="93"/>
			<point x="588" y="-16"/>
			<point x="754" y="-16" type="curve" smooth="yes"/>
			<point x="849" y="-16"/>
			<point x="931" y="18"/>
			<point x="983" y="76" type="curve"/>
		</contour>
		<contour>
			<point x="989" y="210" type="line"/>
			<point x="989" y="256" type="line"/>
			<point x="973" y="296" type="line"/>
			<point x="545" y="296" type="line"/>
			<point x="545" y="210" type="line"/>
		</contour>
	</outline>
</glyph>
<glyph name="Tbar" format="2">
	<unicode hex="0166"/>
	<advance width="649"/>
	<outline>
		<contour>
			<point x="392" y="0" type="line"/>
			<point x="392" y="609" type="line"/>
			<point x="257" y="609" type="line"/>
			<point x="257" y="0" type="line"/>
		</contour>
		<contour>
			<point x="616" y="599" type="line"/>
			<point x="616" y="715" type="line"/>
			<point x="33" y="715" type="line"/>
			<point x="33" y="599" type="line"/>
		</contour>
		<contour>
			<point x="546" y="305" type="line"/>
			<point x="546" y="419" type="line"/>
			<point x="103" y="419" type="line"/>
			<point x="103" y="305" type="line"/>
		</contour>
	</outline>
</glyph>
<glyph name="tbar" format="2">
	<unicode hex="0167"/>
	<advance width="420"/>
	<outline>
		<contour>
			<point x="384" y="0" type="line"/>
			<point x="384" y="108" type="line"/>
			<point x="303" y="108" type="line" smooth="yes"/>
			<point x="268" y="108"/>
			<point x="253" y="124"/>
			<point x="253" y="160" type="curve" smooth="yes"/>
			<point x="253" y="636" type="line"/>
			<point x="121" y="636" type="line"/>
			<point x="121" y="137" type="line" smooth="yes"/>
			<point x="121" y="46"/>
			<point x="167" y="0"/>
			<point x="258" y="0" type="curve" smooth="yes"/>
		</contour>
		<contour>
			<point x="378" y="396" type="line"/>
			<point x="378" y="503" type="line"/>
			<point x="33" y="503" type="line"/>
			<point x="33" y="396" type="line"/>
		</contour>
		<contour>
			<point x="378" y="220" type="line"/>
			<point x="378" y="315" type="line"/>
			<point x="33" y="315" type="line"/>
			<point x="33" y="220" type="line"/>
		</contour>
	</outline>
</glyph>
<glyph name="Ohorn" format="2">
	<unicode hex="01A0"/>
	<advance width="876"/>
	<outline>
		<contour>
			<point x="432" y="-16" type="curve" smooth="yes"/>
			<point x="654" y="-16"/>
			<point x="814" y="143"/>
			<point x="814" y="358" type="curve" smooth="yes"/>
			<point x="814" y="482"/>
			<point x="761" y="587"/>
			<point x="673" y="654" type="curve"/>
			<point x="659" y="638" type="line"/>
			<point x="669" y="636"/>
			<point x="685" y="634"/>
			<point x="696" y="634" type="curve" smooth="yes"/>
			<point x="802" y="633"/>
			<point x="862" y="698"/>
			<point x="862" y="815" type="curve" smooth="yes"/>
			<point x="862" y="877" type="line"/>
			<point x="749" y="877" type="line"/>
			<point x="749" y="807" type="line" smooth="yes"/>
			<point x="749" y="733"/>
			<point x="717" y="714"/>
			<point x="645" y="714" type="curve" smooth="yes"/>
			<point x="597" y="714"/>
			<point x="553" y="716"/>
			<point x="523" y="721" type="curve" smooth="yes"/>
			<point x="489" y="728"/>
			<point x="461" y="731"/>
			<point x="432" y="731" type="curve" smooth="yes"/>
			<point x="211" y="731"/>
			<point x="50" y="572"/>
			<point x="50" y="358" type="curve" smooth="yes"/>
			<point x="50" y="143"/>
			<point x="211" y="-16"/>
		</contour>
		<contour>
			<point x="432" y="103" type="curve" smooth="yes"/>
			<point x="290" y="103"/>
			<point x="192" y="210"/>
			<point x="192" y="358" type="curve" smooth="yes"/>
			<point x="192" y="505"/>
			<point x="290" y="612"/>
			<point x="432" y="612" type="curve" smooth="yes"/>
			<point x="574" y="612"/>
			<point x="672" y="505"/>
			<point x="672" y="358" type="curve" smooth="yes"/>
			<point x="672" y="210"/>
			<point x="574" y="103"/>
		</contour>
	</outline>
	<anchor name="bottom.UC" x="432" y="-50"/>
	<anchor name="top.UC" x="432" y="750"/>
</glyph>
<glyph name="ohorn" format="2">
	<unicode hex="01A1"/>
	<advance width="659"/>
	<outline>
		<contour>
			<point x="318" y="-16" type="curve" smooth="yes"/>
			<point x="482" y="-16"/>
			<point x="596" y="95"/>
			<point x="596" y="251" type="curve" smooth="yes"/>
			<point x="596" y="332"/>
			<point x="565" y="401"/>
			<point x="515" y="448" type="curve"/>
			<point x="498" y="422" type="line"/>
			<point x="603" y="430"/>
			<point x="651" y="480"/>
			<point x="651" y="581" type="curve" smooth="yes"/>
			<point x="651" y="621" type="line"/>
			<point x="544" y="621" type="line"/>
			<point x="544" y="577" type="line" smooth="yes"/>
			<point x="544" y="524"/>
			<point x="520" y="502"/>
			<point x="465" y="502" type="curve" smooth="yes"/>
			<point x="444" y="502"/>
			<point x="421" y="505"/>
			<point x="390" y="511" type="curve" smooth="yes"/>
			<point x="367" y="516"/>
			<point x="343" y="519"/>
			<point x="318" y="519" type="curve" smooth="yes"/>
			<point x="154" y="519"/>
			<point x="40" y="408"/>
			<point x="40" y="251" type="curve" smooth="yes"/>
			<point x="40" y="95"/>
			<point x="154" y="-16"/>
		</contour>
		<contour>
			<point x="318" y="94" type="curve" smooth="yes"/>
			<point x="234" y="94"/>
			<point x="176" y="159"/>
			<point x="176" y="251" type="curve" smooth="yes"/>
			<point x="176" y="344"/>
			<point x="234" y="409"/>
			<point x="318" y="409" type="curve" smooth="yes"/>
			<point x="402" y="409"/>
			<point x="460" y="344"/>
			<point x="460" y="251" type="curve" smooth="yes"/>
			<point x="460" y="159"/>
			<point x="402" y="94"/>
		</contour>
	</outline>
	<anchor name="bottom.LC" x="318" y="-50"/>
	<anchor name="top.LC" x="318" y="544"/>
</glyph>
<glyph name="dotlessj" format="2">
	<unicode hex="0237"/>
	<advance width="249"/>
	<outline>
		<contour>
			<point x="-33" y="-194" type="line"/>
			<point x="49" y="-194" type="line" smooth="yes"/>
			<point x="145" y="-194"/>
			<point x="190" y="-148"/>
			<point x="190" y="-53" type="curve" smooth="yes"/>
			<point x="190" y="503" type="line"/>
			<point x="58" y="503" type="line"/>
			<point x="58" y="-30" type="line" smooth="yes"/>
			<point x="58" y="-70"/>
			<point x="43" y="-86"/>
			<point x="4" y="-86" type="curve" smooth="yes"/>
			<point x="-33" y="-86" type="line"/>
		</contour>
	</outline>
	<anchor name="top.LC" x="125" y="544"/>
</glyph>
<glyph name="circumflexcomb" format="2">
	<unicode hex="0302"/>
	<outline>
		<contour>
			<point x="194" y="587" type="line"/>
			<point x="70" y="761" type="line"/>
			<point x="-70" y="761" type="line"/>
			<point x="-194" y="587" type="line"/>
			<point x="-78" y="587" type="line"/>
			<point x="49" y="745" type="line"/>
			<point x="-52" y="745" type="line"/>
			<point x="75" y="587" type="line"/>
		</contour>
	</outline>
	<anchor name="_top.LC" x="0" y="544"/>
	<anchor name="top.LC" x="196" y="662"/>
</glyph>
<glyph name="tildecomb" format="2">
	<unicode hex="0303"/>
	<outline>
		<contour>
			<point x="107" y="739" type="line"/>
			<point x="100" y="697"/>
			<point x="87" y="677"/>
			<point x="68" y="677" type="curve" smooth="yes"/>
			<point x="56" y="677"/>
			<point x="41" y="685"/>
			<point x="21" y="700" type="curve" smooth="yes"/>
			<point x="-6" y="719"/>
			<point x="-39" y="737"/>
			<point x="-75" y="737" type="curve" smooth="yes"/>
			<point x="-130" y="737"/>
			<point x="-175" y="696"/>
			<point x="-190" y="620" type="curve"/>
			<point x="-108" y="585" type="line"/>
			<point x="-101" y="627"/>
			<point x="-88" y="647"/>
			<point x="-69" y="647" type="curve" smooth="yes"/>
			<point x="-57" y="647"/>
			<point x="-42" y="639"/>
			<point x="-22" y="624" type="curve" smooth="yes"/>
			<point x="5" y="605"/>
			<point x="38" y="587"/>
			<point x="74" y="587" type="curve" smooth="yes"/>
			<point x="129" y="587"/>
			<point x="174" y="628"/>
			<point x="189" y="704" type="curve"/>
		</contour>
	</outline>
	<anchor name="_top.LC" x="0" y="544"/>
</glyph>
<glyph name="macroncomb" format="2">
	<unicode hex="0304"/>
	<outline>
		<contour>
			<point x="151" y="604" type="line"/>
			<point x="151" y="695" type="line"/>
			<point x="-151" y="695" type="line"/>
			<point x="-151" y="604" type="line"/>
		</contour>
	</outline>
	<anchor name="_top.LC" x="0" y="544"/>
</glyph>
<glyph name="brevecomb" format="2">
	<unicode hex="0306"/>
	<outline>
		<contour>
			<point x="0" y="585" type="curve" smooth="yes"/>
			<point x="88" y="585"/>
			<point x="161" y="645"/>
			<point x="171" y="747" type="curve"/>
			<point x="72" y="747" type="line"/>
			<point x="65" y="695"/>
			<point x="36" y="673"/>
			<point x="0" y="673" type="curve" smooth="yes"/>
			<point x="-36" y="673"/>
			<point x="-65" y="695"/>
			<point x="-72" y="747" type="curve"/>
			<point x="-171" y="747" type="line"/>
			<point x="-161" y="645"/>
			<point x="-88" y="585"/>
		</contour>
	</outline>
	<anchor name="_top.LC" x="0" y="544"/>
	<anchor name="top.LC" x="0" y="720"/>
</glyph>
<glyph name="dotaccentcomb" format="2">
	<unicode hex="0307"/>
	<outline>
		<contour>
			<point x="0" y="593" type="curve" smooth="yes"/>
			<point x="43" y="593"/>
			<point x="77" y="625"/>
			<point x="77" y="667" type="curve" smooth="yes"/>
			<point x="77" y="710"/>
			<point x="43" y="743"/>
			<point x="0" y="743" type="curve" smooth="yes"/>
			<point x="-43" y="743"/>
			<point x="-77" y="710"/>
			<point x="-77" y="667" type="curve" smooth="yes"/>
			<point x="-77" y="625"/>
			<point x="-43" y="593"/>
		</contour>
	</outline>
	<anchor name="_top.LC" x="0" y="544"/>
</glyph>
<glyph name="dieresiscomb" format="2">
	<unicode hex="0308"/>
	<outline>
		<contour>
			<point x="112" y="593" type="curve" smooth="yes"/>
			<point x="155" y="593"/>
			<point x="189" y="625"/>
			<point x="189" y="667" type="curve" smooth="yes"/>
			<point x="189" y="710"/>
			<point x="155" y="743"/>
			<point x="112" y="743" type="curve" smooth="yes"/>
			<point x="69" y="743"/>
			<point x="35" y="710"/>
			<point x="35" y="667" type="curve" smooth="yes"/>
			<point x="35" y="625"/>
			<point x="69" y="593"/>
		</contour>
		<contour>
			<point x="-112" y="593" type="curve" smooth="yes"/>
			<point x="-69" y="593"/>
			<point x="-35" y="625"/>
			<point x="-35" y="667" type="curve" smooth="yes"/>
			<point x="-35" y="710"/>
			<point x="-69" y="743"/>
			<point x="-112" y="743" type="curve" smooth="yes"/>
			<point x="-155" y="743"/>
			<point x="-189" y="710"/>
			<point x="-189" y="667" type="curve" smooth="yes"/>
			<point x="-189" y="625"/>
			<point x="-155" y="593"/>
		</contour>
	</outline>
	<anchor name="_top.LC" x="0" y="544"/>
</glyph>
<glyph name="hookabovecomb" format="2">
	<unicode hex="0309"/>
	<outline>
		<contour>
			<point x="-7" y="560" type="line"/>
			<point x="70" y="589"/>
			<point x="112" y="633"/>
			<point x="112" y="685" type="curve" smooth="yes"/>
			<point x="112" y="743"/>
			<point x="63" y="785"/>
			<point x="-2" y="785" type="curve" smooth="yes"/>
			<point x="-45" y="785"/>
			<point x="-82" y="770"/>
			<point x="-114" y="739" type="curve"/>
			<point x="-72" y="687" type="line"/>
			<point x="-53" y="701"/>
			<point x="-36" y="708"/>
			<point x="-16" y="708" type="curve" smooth="yes"/>
			<point x="8" y="708"/>
			<point x="23" y="696"/>
			<point x="23" y="676" type="curve" smooth="yes"/>
			<point x="23" y="655"/>
			<point x="5" y="637"/>
			<point x="-39" y="617" type="curve"/>
		</contour>
	</outline>
	<anchor name="_top.LC" x="0" y="544"/>
</glyph>
<glyph name="ringcomb" format="2">
	<unicode hex="030A"/>
	<outline>
		<contour>
			<point x="123" y="679" type="curve" smooth="yes"/>
			<point x="123" y="747"/>
			<point x="69" y="801"/>
			<point x="0" y="801" type="curve" smooth="yes"/>
			<point x="-69" y="801"/>
			<point x="-123" y="747"/>
			<point x="-123" y="679" type="curve" smooth="yes"/>
			<point x="-123" y="611"/>
			<point x="-69" y="558"/>
			<point x="0" y="558" type="curve" smooth="yes"/>
			<point x="69" y="558"/>
			<point x="123" y="611"/>
		</contour>
		<contour>
			<point x="50" y="679" type="curve" smooth="yes"/>
			<point x="50" y="649"/>
			<point x="28" y="626"/>
			<point x="0" y="626" type="curve" smooth="yes"/>
			<point x="-28" y="626"/>
			<point x="-50" y="649"/>
			<point x="-50" y="679" type="curve" smooth="yes"/>
			<point x="-50" y="708"/>
			<point x="-28" y="731"/>
			<point x="0" y="731" type="curve" smooth="yes"/>
			<point x="28" y="731"/>
			<point x="50" y="708"/>
		</contour>
	</outline>
	<anchor name="_top.LC" x="0" y="544"/>
</glyph>
<glyph name="hungarumlautcomb" format="2">
	<unicode hex="030B"/>
	<outline>
		<contour>
			<point x="101" y="761" type="line"/>
			<point x="-42" y="761" type="line"/>
			<point x="-165" y="587" type="line"/>
			<point x="-50" y="587" type="line"/>
		</contour>
		<contour>
			<point x="308" y="761" type="line"/>
			<point x="165" y="761" type="line"/>
			<point x="23" y="587" type="line"/>
			<point x="139" y="587" type="line"/>
		</contour>
	</outline>
	<anchor name="_top.LC" x="0" y="544"/>
</glyph>
<glyph name="caroncomb" format="2">
	<unicode hex="030C"/>
	<outline>
		<contour>
			<point x="-194" y="761" type="line"/>
			<point x="-70" y="587" type="line"/>
			<point x="70" y="587" type="line"/>
			<point x="194" y="761" type="line"/>
			<point x="78" y="761" type="line"/>
			<point x="-49" y="603" type="line"/>
			<point x="52" y="603" type="line"/>
			<point x="-75" y="761" type="line"/>
		</contour>
	</outline>
	<anchor name="_top.LC" x="0" y="544"/>
</glyph>
<glyph name="commaturnedabovecomb" format="2">
	<unicode hex="0312"/>
	<outline>
		<contour>
			<point x="4" y="785" type="line"/>
			<point x="-31" y="747"/>
			<point x="-64" y="686"/>
			<point x="-64" y="643" type="curve" smooth="yes"/>
			<point x="-64" y="600"/>
			<point x="-37" y="571"/>
			<point x="2" y="571" type="curve" smooth="yes"/>
			<point x="37" y="571"/>
			<point x="64" y="598"/>
			<point x="64" y="632" type="curve" smooth="yes"/>
			<point x="64" y="666"/>
			<point x="35" y="693"/>
			<point x="-2" y="693" type="curve"/>
			<point x="18" y="671" type="line"/>
			<point x="16" y="701"/>
			<point x="38" y="748"/>
			<point x="69" y="785" type="curve"/>
		</contour>
	</outline>
	<anchor name="_top.LC" x="0" y="544"/>
</glyph>
<glyph name="commaaboverightcomb" format="2">
	<unicode hex="0315"/>
	<outline>
		<contour>
			<point x="0" y="491" type="line"/>
			<point x="40" y="534"/>
			<point x="76" y="603"/>
			<point x="76" y="651" type="curve" smooth="yes"/>
			<point x="76" y="698"/>
			<point x="47" y="731"/>
			<point x="4" y="731" type="curve" smooth="yes"/>
			<point x="-34" y="731"/>
			<point x="-63" y="701"/>
			<point x="-63" y="663" type="curve" smooth="yes"/>
			<point x="-63" y="626"/>
			<point x="-33" y="596"/>
			<point x="7" y="596" type="curve"/>
			<point x="-11" y="618" type="line"/>
			<point x="-9" y="585"/>
			<point x="-32" y="532"/>
			<point x="-68" y="491" type="curve"/>
		</contour>
	</outline>
	<anchor name="_top_right" x="0" y="540"/>
</glyph>
<glyph name="horncomb" format="2">
	<unicode hex="031B"/>
	<outline>
		<contour>
			<point x="0" y="420" type="line"/>
			<point x="51" y="420" type="line" smooth="yes"/>
			<point x="180" y="420"/>
			<point x="242" y="472"/>
			<point x="242" y="581" type="curve" smooth="yes"/>
			<point x="242" y="621" type="line"/>
			<point x="135" y="621" type="line"/>
			<point x="135" y="577" type="line" smooth="yes"/>
			<point x="135" y="526"/>
			<point x="111" y="503"/>
			<point x="57" y="503" type="curve" smooth="yes"/>
			<point x="0" y="503" type="line"/>
		</contour>
	</outline>
	<anchor name="_topright.LC" x="0" y="544"/>
</glyph>
<glyph name="dotbelowcomb" format="2">
	<unicode hex="0323"/>
	<outline>
		<contour>
			<point x="0" y="-249" type="curve" smooth="yes"/>
			<point x="43" y="-249"/>
			<point x="77" y="-216"/>
			<point x="77" y="-174" type="curve" smooth="yes"/>
			<point x="77" y="-131"/>
			<point x="43" y="-99"/>
			<point x="0" y="-99" type="curve" smooth="yes"/>
			<point x="-43" y="-99"/>
			<point x="-77" y="-131"/>
			<point x="-77" y="-174" type="curve" smooth="yes"/>
			<point x="-77" y="-216"/>
			<point x="-43" y="-249"/>
		</contour>
	</outline>
	<anchor name="_bottom.LC" x="0" y="-50"/>
</glyph>
<glyph name="commabelowcomb" format="2">
	<unicode hex="0326"/>
	<outline>
		<contour>
			<point x="-8" y="-292" type="line"/>
			<point x="27" y="-254"/>
			<point x="59" y="-193"/>
			<point x="59" y="-150" type="curve" smooth="yes"/>
			<point x="59" y="-107"/>
			<point x="33" y="-78"/>
			<point x="-6" y="-78" type="curve" smooth="yes"/>
			<point x="-42" y="-78"/>
			<point x="-68" y="-105"/>
			<point x="-68" y="-139" type="curve" smooth="yes"/>
			<point x="-68" y="-173"/>
			<point x="-39" y="-200"/>
			<point x="-2" y="-200" type="curve"/>
			<point x="-22" y="-178" type="line"/>
			<point x="-20" y="-208"/>
			<point x="-42" y="-255"/>
			<point x="-74" y="-292" type="curve"/>
		</contour>
	</outline>
	<anchor name="_bottom.LC" x="0" y="-50"/>
</glyph>
<glyph name="cedillacomb" format="2">
	<unicode hex="0327"/>
	<outline>
		<contour>
			<point x="-142" y="-222" type="line"/>
			<point x="-112" y="-246"/>
			<point x="-75" y="-261"/>
			<point x="-30" y="-261" type="curve" smooth="yes"/>
			<point x="59" y="-261"/>
			<point x="113" y="-211"/>
			<point x="113" y="-146" type="curve" smooth="yes"/>
			<point x="113" y="-81"/>
			<point x="44" y="-39"/>
			<point x="-37" y="-42" type="curve"/>
			<point x="0" y="-86" type="line"/>
			<point x="27" y="10" type="line"/>
			<point x="-46" y="10" type="line"/>
			<point x="-82" y="-115" type="line"/>
			<point x="-65" y="-110"/>
			<point x="-48" y="-109"/>
			<point x="-36" y="-109" type="curve" smooth="yes"/>
			<point x="1" y="-109"/>
			<point x="24" y="-124"/>
			<point x="24" y="-148" type="curve" smooth="yes"/>
			<point x="24" y="-171"/>
			<point x="4" y="-186"/>
			<point x="-28" y="-186" type="curve" smooth="yes"/>
			<point x="-55" y="-186"/>
			<point x="-83" y="-174"/>
			<point x="-101" y="-158" type="curve"/>
		</contour>
	</outline>
	<anchor name="_bottom.LC" x="0" y="-50"/>
</glyph>
<glyph name="Dje" format="2">
	<unicode hex="0402"/>
	<advance width="771"/>
	<outline>
		<contour>
			<point x="400" y="0" type="line"/>
			<point x="457" y="0" type="line" smooth="yes"/>
			<point x="636" y="0"/>
			<point x="732" y="79"/>
			<point x="732" y="225" type="curve" smooth="yes"/>
			<point x="732" y="370"/>
			<point x="637" y="453"/>
			<point x="469" y="453" type="curve" smooth="yes"/>
			<point x="389" y="453"/>
			<point x="317" y="433"/>
			<point x="254" y="395" type="curve"/>
			<point x="280" y="297" type="line"/>
			<point x="335" y="322"/>
			<point x="388" y="334"/>
			<point x="448" y="334" type="curve" smooth="yes"/>
			<point x="546" y="334"/>
			<point x="597" y="296"/>
			<point x="597" y="223" type="curve" smooth="yes"/>
			<point x="597" y="153"/>
			<point x="546" y="116"/>
			<point x="449" y="116" type="curve" smooth="yes"/>
			<point x="400" y="116" type="line"/>
		</contour>
		<contour>
			<point x="164" y="0" type="line"/>
			<point x="299" y="0" type="line"/>
			<point x="299" y="692" type="line"/>
			<point x="164" y="692" type="line"/>
		</contour>
		<contour>
			<point x="19" y="599" type="line"/>
			<point x="567" y="599" type="line"/>
			<point x="567" y="715" type="line"/>
			<point x="19" y="715" type="line"/>
		</contour>
	</outline>
</glyph>
<glyph name="Ieukrain" format="2">
	<unicode hex="0404"/>
	<advance width="752"/>
	<outline>
		<contour>
			<point x="427" y="-16" type="curve" smooth="yes"/>
			<point x="548" y="-16"/>
			<point x="654" y="36"/>
			<point x="718" y="118" type="curve"/>
			<point x="629" y="208" type="line"/>
			<point x="583" y="143"/>
			<point x="512" y="104"/>
			<point x="430" y="104" type="curve" smooth="yes"/>
			<point x="293" y="104"/>
			<point x="193" y="211"/>
			<point x="193" y="358" type="curve" smooth="yes"/>
			<point x="193" y="504"/>
			<point x="293" y="611"/>
			<point x="430" y="611" type="curve" smooth="yes"/>
			<point x="512" y="611"/>
			<point x="583" y="572"/>
			<point x="629" y="507" type="curve"/>
			<point x="718" y="597" type="line"/>
			<point x="654" y="679"/>
			<point x="551" y="731"/>
			<point x="430" y="731" type="curve" smooth="yes"/>
			<point x="210" y="731"/>
			<point x="50" y="573"/>
			<point x="50" y="358" type="curve" smooth="yes"/>
			<point x="50" y="141"/>
			<point x="206" y="-16"/>
		</contour>
		<contour>
			<point x="134" y="310" type="line"/>
			<point x="556" y="310" type="line"/>
			<point x="556" y="425" type="line"/>
			<point x="134" y="425" type="line"/>
		</contour>
	</outline>
	<anchor name="top.UC" x="424" y="750"/>
	<anchor name="bottom.UC" x="424" y="-50"/>
</glyph>
<glyph name="Lje" format="2">
	<unicode hex="0409"/>
	<advance width="1122"/>
	<outline>
		<contour>
			<point x="26" y="0" type="line"/>
			<point x="110" y="0" type="line" smooth="yes"/>
			<point x="212" y="0"/>
			<point x="257" y="45"/>
			<point x="272" y="162" type="curve" smooth="yes"/>
			<point x="329" y="625" type="line"/>
			<point x="301" y="600" type="line"/>
			<point x="562" y="600" type="line"/>
			<point x="537" y="625" type="line"/>
			<point x="537" y="0" type="line"/>
			<point x="831" y="0" type="line" smooth="yes"/>
			<point x="985" y="0"/>
			<point x="1088" y="91"/>
			<point x="1088" y="224" type="curve" smooth="yes"/>
			<point x="1088" y="357"/>
			<point x="986" y="444"/>
			<point x="831" y="444" type="curve" smooth="yes"/>
			<point x="602" y="444" type="line"/>
			<point x="602" y="328" type="line"/>
			<point x="831" y="328" type="line" smooth="yes"/>
			<point x="906" y="328"/>
			<point x="951" y="289"/>
			<point x="951" y="224" type="curve" smooth="yes"/>
			<point x="951" y="156"/>
			<point x="906" y="115"/>
			<point x="831" y="115" type="curve" smooth="yes"/>
			<point x="647" y="115" type="line"/>
			<point x="672" y="90" type="line"/>
			<point x="672" y="715" type="line"/>
			<point x="209" y="715" type="line"/>
			<point x="144" y="167" type="line" smooth="yes"/>
			<point x="139" y="128"/>
			<point x="126" y="115"/>
			<point x="88" y="115" type="curve" smooth="yes"/>
			<point x="26" y="115" type="line"/>
		</contour>
	</outline>
</glyph>
<glyph name="Nje" format="2">
	<unicode hex="040A"/>
	<advance width="1136"/>
	<outline>
		<contour>
			<point x="540" y="0" type="line"/>
			<point x="845" y="0" type="line" smooth="yes"/>
			<point x="999" y="0"/>
			<point x="1102" y="88"/>
			<point x="1102" y="217" type="curve" smooth="yes"/>
			<point x="1102" y="346"/>
			<point x="1000" y="430"/>
			<point x="845" y="430" type="curve" smooth="yes"/>
			<point x="605" y="430" type="line"/>
			<point x="605" y="316" type="line"/>
			<point x="846" y="316" type="line" smooth="yes"/>
			<point x="920" y="316"/>
			<point x="965" y="278"/>
			<point x="965" y="217" type="curve" smooth="yes"/>
			<point x="965" y="153"/>
			<point x="920" y="114"/>
			<point x="846" y="114" type="curve" smooth="yes"/>
			<point x="650" y="114" type="line"/>
			<point x="675" y="89" type="line"/>
			<point x="675" y="715" type="line"/>
			<point x="540" y="715" type="line"/>
		</contour>
		<contour>
			<point x="86" y="0" type="line"/>
			<point x="221" y="0" type="line"/>
			<point x="221" y="715" type="line"/>
			<point x="86" y="715" type="line"/>
		</contour>
		<contour>
			<point x="168" y="315" type="line"/>
			<point x="603" y="315" type="line"/>
			<point x="603" y="430" type="line"/>
			<point x="168" y="430" type="line"/>
		</contour>
	</outline>
	<anchor name="top.UC" x="391" y="750"/>
	<anchor name="bottom.UC" x="391" y="-50"/>
</glyph>
<glyph name="Tshe" format="2">
	<unicode hex="040B"/>
	<advance width="782"/>
	<outline>
		<contour>
			<point x="597" y="0" type="line"/>
			<point x="732" y="0" type="line"/>
			<point x="732" y="225" type="line" smooth="yes"/>
			<point x="732" y="373"/>
			<point x="641" y="453"/>
			<point x="481" y="453" type="curve" smooth="yes"/>
			<point x="393" y="453"/>
			<point x="320" y="435"/>
			<point x="254" y="395" type="curve"/>
			<point x="280" y="298" type="line"/>
			<point x="338" y="323"/>
			<point x="391" y="334"/>
			<point x="448" y="334" type="curve" smooth="yes"/>
			<point x="547" y="334"/>
			<point x="597" y="294"/>
			<point x="597" y="208" type="curve" smooth="yes"/>
		</contour>
		<contour>
			<point x="164" y="0" type="line"/>
			<point x="299" y="0" type="line"/>
			<point x="299" y="692" type="line"/>
			<point x="164" y="692" type="line"/>
		</contour>
		<contour>
			<point x="19" y="599" type="line"/>
			<point x="567" y="599" type="line"/>
			<point x="567" y="715" type="line"/>
			<point x="19" y="715" type="line"/>
		</contour>
	</outline>
</glyph>
<glyph name="De" format="2">
	<unicode hex="0414"/>
	<advance width="823"/>
	<outline>
		<contour>
			<point x="63" y="61" type="line"/>
			<point x="126" y="61" type="line" smooth="yes"/>
			<point x="234" y="61"/>
			<point x="283" y="127"/>
			<point x="300" y="260" type="curve" smooth="yes"/>
			<point x="354" y="695" type="line"/>
			<point x="247" y="600" type="line"/>
			<point x="635" y="600" type="line"/>
			<point x="565" y="695" type="line"/>
			<point x="565" y="76" type="line"/>
			<point x="699" y="76" type="line"/>
			<point x="699" y="715" type="line"/>
			<point x="225" y="715" type="line"/>
			<point x="172" y="275" type="line" smooth="yes"/>
			<point x="159" y="162"/>
			<point x="138" y="115"/>
			<point x="101" y="115" type="curve" smooth="yes"/>
			<point x="63" y="115" type="line"/>
		</contour>
		<contour>
			<point x="31" y="-174" type="line"/>
			<point x="158" y="-174" type="line"/>
			<point x="158" y="61" type="line"/>
			<point x="104" y="0" type="line"/>
			<point x="737" y="0" type="line"/>
			<point x="658" y="72" type="line"/>
			<point x="658" y="-174" type="line"/>
			<point x="784" y="-174" type="line"/>
			<point x="784" y="115" type="line"/>
			<point x="31" y="115" type="line"/>
		</contour>
	</outline>
</glyph>
<glyph name="Zhe" format="2">
	<unicode hex="0416"/>
	<advance width="1085"/>
	<outline>
		<contour>
			<point x="906" y="0" type="line"/>
			<point x="1072" y="0" type="line"/>
			<point x="757" y="371" type="line"/>
			<point x="1055" y="715" type="line"/>
			<point x="896" y="715" type="line"/>
			<point x="601" y="371" type="line"/>
			<point x="586" y="371" type="line"/>
		</contour>
		<contour>
			<point x="13" y="0" type="line"/>
			<point x="180" y="0" type="line"/>
			<point x="499" y="371" type="line"/>
			<point x="484" y="371" type="line"/>
			<point x="189" y="715" type="line"/>
			<point x="31" y="715" type="line"/>
			<point x="329" y="371" type="line"/>
		</contour>
		<contour>
			<point x="475" y="0" type="line"/>
			<point x="610" y="0" type="line"/>
			<point x="610" y="715" type="line"/>
			<point x="475" y="715" type="line"/>
		</contour>
	</outline>
</glyph>
<glyph name="Ze" format="2">
	<unicode hex="0417"/>
	<advance width="658"/>
	<outline>
		<contour>
			<point x="316" y="-16" type="curve" smooth="yes"/>
			<point x="489" y="-16"/>
			<point x="618" y="78"/>
			<point x="618" y="207" type="curve" smooth="yes"/>
			<point x="618" y="288"/>
			<point x="567" y="350"/>
			<point x="484" y="379" type="curve"/>
			<point x="555" y="408"/>
			<point x="597" y="464"/>
			<point x="597" y="534" type="curve" smooth="yes"/>
			<point x="597" y="648"/>
			<point x="480" y="732"/>
			<point x="321" y="732" type="curve" smooth="yes"/>
			<point x="202" y="732"/>
			<point x="110" y="688"/>
			<point x="35" y="596" type="curve"/>
			<point x="123" y="508" type="line"/>
			<point x="181" y="583"/>
			<point x="238" y="612"/>
			<point x="317" y="612" type="curve" smooth="yes"/>
			<point x="403" y="612"/>
			<point x="460" y="574"/>
			<point x="460" y="516" type="curve" smooth="yes"/>
			<point x="460" y="461"/>
			<point x="411" y="425"/>
			<point x="333" y="425" type="curve" smooth="yes"/>
			<point x="192" y="425" type="line"/>
			<point x="192" y="311" type="line"/>
			<point x="332" y="311" type="line" smooth="yes"/>
			<point x="426" y="311"/>
			<point x="481" y="275"/>
			<point x="481" y="214" type="curve" smooth="yes"/>
			<point x="481" y="149"/>
			<point x="416" y="103"/>
			<point x="320" y="103" type="curve" smooth="yes"/>
			<point x="234" y="103"/>
			<point x="158" y="139"/>
			<point x="104" y="205" type="curve"/>
			<point x="18" y="118" type="line"/>
			<point x="86" y="32"/>
			<point x="193" y="-16"/>
		</contour>
	</outline>
</glyph>
<glyph name="Icyr" format="2">
	<unicode hex="0418"/>
	<advance width="788"/>
	<outline>
		<contour>
			<point x="86" y="0" type="line"/>
			<point x="228" y="0" type="line"/>
			<point x="656" y="656" type="line"/>
			<point x="567" y="656" type="line"/>
			<point x="567" y="0" type="line"/>
			<point x="702" y="0" type="line"/>
			<point x="702" y="715" type="line"/>
			<point x="558" y="715" type="line"/>
			<point x="131" y="63" type="line"/>
			<point x="221" y="63" type="line"/>
			<point x="221" y="715" type="line"/>
			<point x="86" y="715" type="line"/>
		</contour>
	</outline>
	<anchor name="top.UC" x="399" y="750"/>
</glyph>
<glyph name="El" format="2">
	<unicode hex="041B"/>
	<advance width="767"/>
	<outline>
		<contour>
			<point x="26" y="0" type="line"/>
			<point x="110" y="0" type="line" smooth="yes"/>
			<point x="212" y="0"/>
			<point x="257" y="45"/>
			<point x="272" y="162" type="curve" smooth="yes"/>
			<point x="338" y="695" type="line"/>
			<point x="240" y="600" type="line"/>
			<point x="617" y="600" type="line"/>
			<point x="547" y="695" type="line"/>
			<point x="547" y="0" type="line"/>
			<point x="682" y="0" type="line"/>
			<point x="682" y="715" type="line"/>
			<point x="209" y="715" type="line"/>
			<point x="144" y="167" type="line" smooth="yes"/>
			<point x="139" y="128"/>
			<point x="126" y="115"/>
			<point x="88" y="115" type="curve" smooth="yes"/>
			<point x="26" y="115" type="line"/>
		</contour>
	</outline>
</glyph>
<glyph name="Pe" format="2">
	<unicode hex="041F"/>
	<advance width="780"/>
	<outline>
		<contour>
			<point x="86" y="0" type="line"/>
			<point x="221" y="0" type="line"/>
			<point x="221" y="683" type="line"/>
			<point x="148" y="600" type="line"/>
			<point x="626" y="600" type="line"/>
			<point x="559" y="683" type="line"/>
			<point x="559" y="0" type="line"/>
			<point x="694" y="0" type="line"/>
			<point x="694" y="715" type="line"/>
			<point x="86" y="715" type="line"/>
		</contour>
	</outline>
</glyph>
<glyph name="Ucyr" format="2">
	<unicode hex="0423"/>
	<advance width="686"/>
	<outline>
		<contour>
			<point x="72" y="0" type="line"/>
			<point x="172" y="0" type="line" smooth="yes"/>
			<point x="281" y="0"/>
			<point x="344" y="44"/>
			<point x="397" y="152" type="curve" smooth="yes"/>
			<point x="672" y="715" type="line"/>
			<point x="534" y="715" type="line"/>
			<point x="309" y="234" type="line" smooth="yes"/>
			<point x="267" y="143"/>
			<point x="234" y="114"/>
			<point x="165" y="114" type="curve" smooth="yes"/>
			<point x="72" y="114" type="line"/>
		</contour>
		<contour>
			<point x="294" y="160" type="line"/>
			<point x="394" y="221" type="line"/>
			<point x="152" y="715" type="line"/>
			<point x="14" y="715" type="line"/>
		</contour>
	</outline>
	<anchor name="top.UC" x="346" y="750"/>
</glyph>
<glyph name="Tse" format="2">
	<unicode hex="0426"/>
	<advance width="813"/>
	<outline>
		<contour>
			<point x="86" y="0" type="line"/>
			<point x="689" y="0" type="line"/>
			<point x="689" y="715" type="line"/>
			<point x="554" y="715" type="line"/>
			<point x="554" y="32" type="line"/>
			<point x="620" y="115" type="line"/>
			<point x="148" y="115" type="line"/>
			<point x="221" y="32" type="line"/>
			<point x="221" y="715" type="line"/>
			<point x="86" y="715" type="line"/>
		</contour>
		<contour>
			<point x="648" y="-174" type="line"/>
			<point x="774" y="-174" type="line"/>
			<point x="774" y="115" type="line"/>
			<point x="648" y="115" type="line"/>
		</contour>
	</outline>
</glyph>
<glyph name="Che" format="2">
	<unicode hex="0427"/>
	<advance width="704"/>
	<outline>
		<contour>
			<point x="302" y="253" type="curve" smooth="yes"/>
			<point x="394" y="253"/>
			<point x="475" y="281"/>
			<point x="529" y="333" type="curve"/>
			<point x="493" y="416" type="line"/>
			<point x="452" y="388"/>
			<point x="388" y="369"/>
			<point x="326" y="369" type="curve" smooth="yes"/>
			<point x="232" y="369"/>
			<point x="185" y="410"/>
			<point x="185" y="493" type="curve" smooth="yes"/>
			<point x="185" y="715" type="line"/>
			<point x="50" y="715" type="line"/>
			<point x="50" y="477" type="line" smooth="yes"/>
			<point x="50" y="336"/>
			<point x="143" y="253"/>
		</contour>
		<contour>
			<point x="484" y="0" type="line"/>
			<point x="619" y="0" type="line"/>
			<point x="619" y="715" type="line"/>
			<point x="484" y="715" type="line"/>
		</contour>
	</outline>
</glyph>
<glyph name="Sha" format="2">
	<unicode hex="0428"/>
	<advance width="1131"/>
	<outline>
		<contour>
			<point x="86" y="0" type="line"/>
			<point x="1045" y="0" type="line"/>
			<point x="1045" y="715" type="line"/>
			<point x="910" y="715" type="line"/>
			<point x="910" y="27" type="line"/>
			<point x="989" y="115" type="line"/>
			<point x="583" y="115" type="line"/>
			<point x="633" y="27" type="line"/>
			<point x="633" y="715" type="line"/>
			<point x="498" y="715" type="line"/>
			<point x="498" y="27" type="line"/>
			<point x="548" y="115" type="line"/>
			<point x="142" y="115" type="line"/>
			<point x="221" y="27" type="line"/>
			<point x="221" y="715" type="line"/>
			<point x="86" y="715" type="line"/>
		</contour>
	</outline>
</glyph>
<glyph name="Shcha" format="2">
	<unicode hex="0429"/>
	<advance width="1170"/>
	<outline>
		<contour>
			<point x="86" y="0" type="line"/>
			<point x="1045" y="0" type="line"/>
			<point x="1045" y="715" type="line"/>
			<point x="910" y="715" type="line"/>
			<point x="910" y="42" type="line"/>
			<point x="977" y="115" type="line"/>
			<point x="590" y="115" type="line"/>
			<point x="633" y="42" type="line"/>
			<point x="633" y="715" type="line"/>
			<point x="498" y="715" type="line"/>
			<point x="498" y="42" type="line"/>
			<point x="541" y="115" type="line"/>
			<point x="154" y="115" type="line"/>
			<point x="221" y="42" type="line"/>
			<point x="221" y="715" type="line"/>
			<point x="86" y="715" type="line"/>
		</contour>
		<contour>
			<point x="1004" y="-174" type="line"/>
			<point x="1131" y="-174" type="line"/>
			<point x="1131" y="115" type="line"/>
			<point x="1004" y="115" type="line"/>
		</contour>
	</outline>
</glyph>
<glyph name="Hard" format="2">
	<unicode hex="042A"/>
	<advance width="760"/>
	<outline>
		<contour>
			<point x="164" y="0" type="line"/>
			<point x="469" y="0" type="line" smooth="yes"/>
			<point x="623" y="0"/>
			<point x="726" y="91"/>
			<point x="726" y="224" type="curve" smooth="yes"/>
			<point x="726" y="357"/>
			<point x="624" y="444"/>
			<point x="469" y="444" type="curve" smooth="yes"/>
			<point x="249" y="444" type="line"/>
			<point x="249" y="329" type="line"/>
			<point x="470" y="329" type="line" smooth="yes"/>
			<point x="544" y="329"/>
			<point x="589" y="289"/>
			<point x="589" y="224" type="curve" smooth="yes"/>
			<point x="589" y="156"/>
			<point x="544" y="115"/>
			<point x="470" y="115" type="curve" smooth="yes"/>
			<point x="287" y="115" type="line"/>
			<point x="299" y="103" type="line"/>
			<point x="299" y="715" type="line"/>
			<point x="19" y="715" type="line"/>
			<point x="19" y="599" type="line"/>
			<point x="176" y="599" type="line"/>
			<point x="164" y="611" type="line"/>
		</contour>
	</outline>
</glyph>
<glyph name="Ecyr" format="2">
	<unicode hex="042D"/>
	<advance width="748"/>
	<outline>
		<contour>
			<point x="330" y="-16" type="curve" smooth="yes"/>
			<point x="552" y="-16"/>
			<point x="698" y="138"/>
			<point x="698" y="357" type="curve" smooth="yes"/>
			<point x="698" y="576"/>
			<point x="548" y="731"/>
			<point x="327" y="731" type="curve" smooth="yes"/>
			<point x="203" y="731"/>
			<point x="97" y="678"/>
			<point x="31" y="597" type="curve"/>
			<point x="117" y="509" type="line"/>
			<point x="168" y="570"/>
			<point x="240" y="611"/>
			<point x="327" y="611" type="curve" smooth="yes"/>
			<point x="469" y="611"/>
			<point x="561" y="507"/>
			<point x="561" y="358" type="curve" smooth="yes"/>
			<point x="561" y="208"/>
			<point x="470" y="104"/>
			<point x="327" y="104" type="curve" smooth="yes"/>
			<point x="237" y="104"/>
			<point x="163" y="144"/>
			<point x="113" y="202" type="curve"/>
			<point x="29" y="118" type="line"/>
			<point x="92" y="37"/>
			<point x="202" y="-16"/>
		</contour>
		<contour>
			<point x="200" y="310" type="line"/>
			<point x="634" y="310" type="line"/>
			<point x="634" y="425" type="line"/>
			<point x="200" y="425" type="line"/>
		</contour>
	</outline>
</glyph>
<glyph name="Yu" format="2">
	<unicode hex="042E"/>
	<advance width="1106"/>
	<outline>
		<contour>
			<point x="695" y="-16" type="curve" smooth="yes"/>
			<point x="903" y="-16"/>
			<point x="1056" y="142"/>
			<point x="1056" y="358" type="curve" smooth="yes"/>
			<point x="1056" y="573"/>
			<point x="903" y="731"/>
			<point x="695" y="731" type="curve" smooth="yes"/>
			<point x="486" y="731"/>
			<point x="333" y="573"/>
			<point x="333" y="358" type="curve" smooth="yes"/>
			<point x="333" y="142"/>
			<point x="486" y="-16"/>
		</contour>
		<contour>
			<point x="86" y="0" type="line"/>
			<point x="221" y="0" type="line"/>
			<point x="221" y="715" type="line"/>
			<point x="86" y="715" type="line"/>
		</contour>
		<contour>
			<point x="168" y="310" type="line"/>
			<point x="420" y="310" type="line"/>
			<point x="420" y="425" type="line"/>
			<point x="168" y="425" type="line"/>
		</contour>
		<contour>
			<point x="695" y="104" type="curve" smooth="yes"/>
			<point x="563" y="104"/>
			<point x="475" y="207"/>
			<point x="475" y="358" type="curve" smooth="yes"/>
			<point x="475" y="508"/>
			<point x="563" y="611"/>
			<point x="695" y="611" type="curve" smooth="yes"/>
			<point x="826" y="611"/>
			<point x="914" y="509"/>
			<point x="914" y="358" type="curve" smooth="yes"/>
			<point x="914" y="207"/>
			<point x="826" y="104"/>
		</contour>
	</outline>
</glyph>
<glyph name="Ya" format="2">
	<unicode hex="042F"/>
	<advance width="709"/>
	<outline>
		<contour>
			<point x="488" y="0" type="line"/>
			<point x="623" y="0" type="line"/>
			<point x="623" y="715" type="line"/>
			<point x="333" y="715" type="line" smooth="yes"/>
			<point x="180" y="715"/>
			<point x="76" y="627"/>
			<point x="76" y="497" type="curve" smooth="yes"/>
			<point x="76" y="366"/>
			<point x="180" y="278"/>
			<point x="333" y="278" type="curve" smooth="yes"/>
			<point x="498" y="278" type="line"/>
			<point x="498" y="392" type="line"/>
			<point x="333" y="392" type="line" smooth="yes"/>
			<point x="259" y="392"/>
			<point x="213" y="432"/>
			<point x="213" y="497" type="curve" smooth="yes"/>
			<point x="213" y="561"/>
			<point x="259" y="601"/>
			<point x="333" y="601" type="curve" smooth="yes"/>
			<point x="488" y="601" type="line"/>
		</contour>
		<contour>
			<point x="23" y="0" type="line"/>
			<point x="183" y="0" type="line"/>
			<point x="412" y="333" type="line"/>
			<point x="262" y="333" type="line"/>
		</contour>
	</outline>
</glyph>
<glyph name="ghe" format="2">
	<unicode hex="0433"/>
	<advance width="466"/>
	<outline>
		<contour>
			<point x="69" y="0" type="line"/>
			<point x="201" y="0" type="line"/>
			<point x="201" y="477" type="line"/>
			<point x="99" y="396" type="line"/>
			<point x="439" y="396" type="line"/>
			<point x="439" y="503" type="line"/>
			<point x="69" y="503" type="line"/>
		</contour>
	</outline>
	<anchor name="top.LC" x="254" y="544"/>
</glyph>
<glyph name="de" format="2">
	<unicode hex="0434"/>
	<advance width="656"/>
	<outline>
		<contour>
			<point x="50" y="62" type="line"/>
			<point x="102" y="62" type="line" smooth="yes"/>
			<point x="207" y="62"/>
			<point x="240" y="94"/>
			<point x="252" y="194" type="curve" smooth="yes"/>
			<point x="284" y="484" type="line"/>
			<point x="183" y="396" type="line"/>
			<point x="512" y="396" type="line"/>
			<point x="421" y="484" type="line"/>
			<point x="421" y="79" type="line"/>
			<point x="550" y="79" type="line"/>
			<point x="550" y="503" type="line"/>
			<point x="160" y="503" type="line"/>
			<point x="128" y="204" type="line" smooth="yes"/>
			<point x="120" y="124"/>
			<point x="106" y="107"/>
			<point x="64" y="107" type="curve" smooth="yes"/>
			<point x="50" y="107" type="line"/>
		</contour>
		<contour>
			<point x="23" y="-137" type="line"/>
			<point x="147" y="-137" type="line"/>
			<point x="147" y="71" type="line"/>
			<point x="102" y="0" type="line"/>
			<point x="577" y="0" type="line"/>
			<point x="508" y="71" type="line"/>
			<point x="508" y="-137" type="line"/>
			<point x="632" y="-137" type="line"/>
			<point x="632" y="107" type="line"/>
			<point x="23" y="107" type="line"/>
		</contour>
	</outline>
</glyph>
<glyph name="ze" format="2">
	<unicode hex="0437"/>
	<advance width="507"/>
	<outline>
		<contour>
			<point x="239" y="-16" type="curve" smooth="yes"/>
			<point x="377" y="-16"/>
			<point x="477" y="54"/>
			<point x="477" y="149" type="curve" smooth="yes"/>
			<point x="477" y="209"/>
			<point x="439" y="252"/>
			<point x="373" y="270" type="curve"/>
			<point x="373" y="261" type="line"/>
			<point x="430" y="279"/>
			<point x="462" y="319"/>
			<point x="462" y="372" type="curve" smooth="yes"/>
			<point x="462" y="456"/>
			<point x="368" y="519"/>
			<point x="240" y="519" type="curve" smooth="yes"/>
			<point x="154" y="519"/>
			<point x="81" y="490"/>
			<point x="24" y="433" type="curve"/>
			<point x="92" y="352" type="line"/>
			<point x="134" y="394"/>
			<point x="179" y="414"/>
			<point x="236" y="414" type="curve" smooth="yes"/>
			<point x="297" y="414"/>
			<point x="335" y="392"/>
			<point x="335" y="355" type="curve" smooth="yes"/>
			<point x="335" y="318"/>
			<point x="305" y="300"/>
			<point x="247" y="300" type="curve" smooth="yes"/>
			<point x="149" y="300" type="line"/>
			<point x="149" y="213" type="line"/>
			<point x="248" y="213" type="line" smooth="yes"/>
			<point x="317" y="213"/>
			<point x="349" y="195"/>
			<point x="349" y="156" type="curve" smooth="yes"/>
			<point x="349" y="114"/>
			<point x="308" y="89"/>
			<point x="236" y="89" type="curve" smooth="yes"/>
			<point x="173" y="89"/>
			<point x="121" y="110"/>
			<point x="78" y="153" type="curve"/>
			<point x="9" y="74" type="line"/>
			<point x="66" y="14"/>
			<point x="154" y="-16"/>
		</contour>
	</outline>
</glyph>
<glyph name="icyr" format="2">
	<unicode hex="0438"/>
	<advance width="625"/>
	<outline>
		<contour>
			<point x="69" y="0" type="line"/>
			<point x="185" y="0" type="line"/>
			<point x="437" y="332" type="line"/>
			<point x="430" y="334" type="line"/>
			<point x="430" y="0" type="line"/>
			<point x="556" y="0" type="line"/>
			<point x="556" y="503" type="line"/>
			<point x="440" y="503" type="line"/>
			<point x="188" y="171" type="line"/>
			<point x="195" y="169" type="line"/>
			<point x="195" y="503" type="line"/>
			<point x="69" y="503" type="line"/>
		</contour>
	</outline>
	<anchor name="top.LC" x="318" y="544"/>
</glyph>
<glyph name="ka" format="2">
	<unicode hex="043A"/>
	<advance width="588"/>
	<outline>
		<contour>
			<point x="410" y="0" type="line"/>
			<point x="576" y="0" type="line"/>
			<point x="292" y="305" type="line"/>
			<point x="299" y="217" type="line"/>
			<point x="556" y="503" type="line"/>
			<point x="398" y="503" type="line"/>
			<point x="182" y="262" type="line"/>
			<point x="171" y="262" type="line"/>
		</contour>
		<contour>
			<point x="69" y="0" type="line"/>
			<point x="201" y="0" type="line"/>
			<point x="201" y="503" type="line"/>
			<point x="69" y="503" type="line"/>
		</contour>
	</outline>
	<anchor name="top.LC" x="303" y="544"/>
</glyph>
<glyph name="el" format="2">
	<unicode hex="043B"/>
	<advance width="604"/>
	<outline>
		<contour>
			<point x="18" y="0" type="line"/>
			<point x="76" y="0" type="line" smooth="yes"/>
			<point x="174" y="0"/>
			<point x="219" y="33"/>
			<point x="229" y="134" type="curve" smooth="yes"/>
			<point x="264" y="484" type="line"/>
			<point x="163" y="396" type="line"/>
			<point x="498" y="396" type="line"/>
			<point x="403" y="484" type="line"/>
			<point x="403" y="0" type="line"/>
			<point x="535" y="0" type="line"/>
			<point x="535" y="503" type="line"/>
			<point x="140" y="503" type="line"/>
			<point x="108" y="161" type="line" smooth="yes"/>
			<point x="104" y="123"/>
			<point x="89" y="108"/>
			<point x="52" y="108" type="curve" smooth="yes"/>
			<point x="18" y="108" type="line"/>
		</contour>
	</outline>
</glyph>
<glyph name="em" format="2">
	<unicode hex="043C"/>
	<advance width="746"/>
	<outline>
		<contour>
			<point x="69" y="0" type="line"/>
			<point x="183" y="0" type="line"/>
			<point x="183" y="453" type="line"/>
			<point x="134" y="421" type="line"/>
			<point x="327" y="52" type="line"/>
			<point x="412" y="52" type="line"/>
			<point x="605" y="420" type="line"/>
			<point x="559" y="459" type="line"/>
			<point x="559" y="0" type="line"/>
			<point x="677" y="0" type="line"/>
			<point x="677" y="503" type="line"/>
			<point x="537" y="503" type="line"/>
			<point x="363" y="167" type="line"/>
			<point x="382" y="166" type="line"/>
			<point x="204" y="503" type="line"/>
			<point x="69" y="503" type="line"/>
		</contour>
	</outline>
</glyph>
<glyph name="en" format="2">
	<unicode hex="043D"/>
	<advance width="626"/>
	<outline>
		<contour>
			<point x="425" y="0" type="line"/>
			<point x="557" y="0" type="line"/>
			<point x="557" y="503" type="line"/>
			<point x="425" y="503" type="line"/>
		</contour>
		<contour>
			<point x="69" y="0" type="line"/>
			<point x="201" y="0" type="line"/>
			<point x="201" y="503" type="line"/>
			<point x="69" y="503" type="line"/>
		</contour>
		<contour>
			<point x="131" y="210" type="line"/>
			<point x="502" y="210" type="line"/>
			<point x="502" y="317" type="line"/>
			<point x="131" y="317" type="line"/>
		</contour>
	</outline>
</glyph>
<glyph name="pe" format="2">
	<unicode hex="043F"/>
	<advance width="613"/>
	<outline>
		<contour>
			<point x="69" y="0" type="line"/>
			<point x="201" y="0" type="line"/>
			<point x="201" y="484" type="line"/>
			<point x="102" y="396" type="line"/>
			<point x="506" y="396" type="line"/>
			<point x="412" y="484" type="line"/>
			<point x="412" y="0" type="line"/>
			<point x="544" y="0" type="line"/>
			<point x="544" y="503" type="line"/>
			<point x="69" y="503" type="line"/>
		</contour>
	</outline>
</glyph>
<glyph name="te" format="2">
	<unicode hex="0442"/>
	<advance width="517"/>
	<outline>
		<contour>
			<point x="193" y="0" type="line"/>
			<point x="325" y="0" type="line"/>
			<point x="325" y="457" type="line"/>
			<point x="193" y="457" type="line"/>
		</contour>
		<contour>
			<point x="23" y="396" type="line"/>
			<point x="495" y="396" type="line"/>
			<point x="495" y="503" type="line"/>
			<point x="23" y="503" type="line"/>
		</contour>
	</outline>
</glyph>
<glyph name="tse" format="2">
	<unicode hex="0446"/>
	<advance width="640"/>
	<outline>
		<contour>
			<point x="69" y="0" type="line"/>
			<point x="537" y="0" type="line"/>
			<point x="537" y="503" type="line"/>
			<point x="405" y="503" type="line"/>
			<point x="405" y="19" type="line"/>
			<point x="463" y="107" type="line"/>
			<point x="102" y="107" type="line"/>
			<point x="201" y="19" type="line"/>
			<point x="201" y="503" type="line"/>
			<point x="69" y="503" type="line"/>
		</contour>
		<contour>
			<point x="492" y="-137" type="line"/>
			<point x="616" y="-137" type="line"/>
			<point x="616" y="107" type="line"/>
			<point x="492" y="107" type="line"/>
		</contour>
	</outline>
</glyph>
<glyph name="che" format="2">
	<unicode hex="0447"/>
	<advance width="590"/>
	<outline>
		<contour>
			<point x="240" y="151" type="curve" smooth="yes"/>
			<point x="303" y="151"/>
			<point x="375" y="173"/>
			<point x="416" y="206" type="curve"/>
			<point x="395" y="296" type="line"/>
			<point x="359" y="273"/>
			<point x="319" y="261"/>
			<point x="280" y="261" type="curve" smooth="yes"/>
			<point x="210" y="261"/>
			<point x="172" y="292"/>
			<point x="172" y="369" type="curve" smooth="yes"/>
			<point x="172" y="503" type="line"/>
			<point x="40" y="503" type="line"/>
			<point x="40" y="355" type="line" smooth="yes"/>
			<point x="40" y="224"/>
			<point x="111" y="151"/>
		</contour>
		<contour>
			<point x="389" y="0" type="line"/>
			<point x="521" y="0" type="line"/>
			<point x="521" y="503" type="line"/>
			<point x="389" y="503" type="line"/>
		</contour>
	</outline>
</glyph>
<glyph name="shcha" format="2">
	<unicode hex="0449"/>
	<advance width="904"/>
	<outline>
		<contour>
			<point x="69" y="0" type="line"/>
			<point x="800" y="0" type="line"/>
			<point x="800" y="503" type="line"/>
			<point x="671" y="503" type="line"/>
			<point x="671" y="22" type="line"/>
			<point x="746" y="107" type="line"/>
			<point x="466" y="107" type="line"/>
			<point x="499" y="22" type="line"/>
			<point x="499" y="503" type="line"/>
			<point x="370" y="503" type="line"/>
			<point x="370" y="22" type="line"/>
			<point x="424" y="107" type="line"/>
			<point x="147" y="107" type="line"/>
			<point x="198" y="22" type="line"/>
			<point x="198" y="503" type="line"/>
			<point x="69" y="503" type="line"/>
		</contour>
		<contour>
			<point x="756" y="-137" type="line"/>
			<point x="880" y="-137" type="line"/>
			<point x="880" y="107" type="line"/>
			<point x="756" y="107" type="line"/>
		</contour>
	</outline>
</glyph>
<glyph name="yeru" format="2">
	<unicode hex="044B"/>
	<advance width="775"/>
	<outline>
		<contour>
			<point x="69" y="0" type="line"/>
			<point x="317" y="0" type="line" smooth="yes"/>
			<point x="438" y="0"/>
			<point x="519" y="69"/>
			<point x="519" y="179" type="curve" smooth="yes"/>
			<point x="519" y="280"/>
			<point x="440" y="350"/>
			<point x="317" y="350" type="curve" smooth="yes"/>
			<point x="137" y="350" type="line"/>
			<point x="137" y="243" type="line"/>
			<point x="304" y="243" type="line" smooth="yes"/>
			<point x="356" y="243"/>
			<point x="385" y="219"/>
			<point x="385" y="175" type="curve" smooth="yes"/>
			<point x="385" y="131"/>
			<point x="356" y="107"/>
			<point x="304" y="107" type="curve" smooth="yes"/>
			<point x="101" y="107" type="line"/>
			<point x="196" y="17" type="line"/>
			<point x="196" y="503" type="line"/>
			<point x="69" y="503" type="line"/>
		</contour>
		<contour>
			<point x="574" y="0" type="line"/>
			<point x="706" y="0" type="line"/>
			<point x="706" y="503" type="line"/>
			<point x="574" y="503" type="line"/>
		</contour>
	</outline>
	<anchor name="top.LC" x="643" y="544"/>
</glyph>
<glyph name="soft" format="2">
	<unicode hex="044C"/>
	<advance width="541"/>
	<outline>
		<contour>
			<point x="69" y="0" type="line"/>
			<point x="320" y="0" type="line" smooth="yes"/>
			<point x="441" y="0"/>
			<point x="523" y="69"/>
			<point x="523" y="179" type="curve" smooth="yes"/>
			<point x="523" y="280"/>
			<point x="444" y="350"/>
			<point x="320" y="350" type="curve" smooth="yes"/>
			<point x="141" y="350" type="line"/>
			<point x="141" y="243" type="line"/>
			<point x="308" y="243" type="line" smooth="yes"/>
			<point x="360" y="243"/>
			<point x="388" y="219"/>
			<point x="388" y="175" type="curve" smooth="yes"/>
			<point x="388" y="131"/>
			<point x="360" y="107"/>
			<point x="308" y="107" type="curve" smooth="yes"/>
			<point x="104" y="107" type="line"/>
			<point x="196" y="17" type="line"/>
			<point x="196" y="503" type="line"/>
			<point x="69" y="503" type="line"/>
		</contour>
	</outline>
</glyph>
<glyph name="ecyr" format="2">
	<unicode hex="044D"/>
	<advance width="565"/>
	<outline>
		<contour>
			<point x="250" y="-16" type="curve" smooth="yes"/>
			<point x="416" y="-16"/>
			<point x="525" y="90"/>
			<point x="525" y="252" type="curve" smooth="yes"/>
			<point x="525" y="410"/>
			<point x="412" y="519"/>
			<point x="251" y="519" type="curve" smooth="yes"/>
			<point x="158" y="519"/>
			<point x="82" y="483"/>
			<point x="29" y="418" type="curve"/>
			<point x="107" y="341" type="line"/>
			<point x="138" y="387"/>
			<point x="185" y="414"/>
			<point x="246" y="414" type="curve" smooth="yes"/>
			<point x="337" y="414"/>
			<point x="392" y="351"/>
			<point x="392" y="250" type="curve" smooth="yes"/>
			<point x="392" y="152"/>
			<point x="339" y="89"/>
			<point x="246" y="89" type="curve" smooth="yes"/>
			<point x="185" y="89"/>
			<point x="138" y="115"/>
			<point x="105" y="163" type="curve"/>
			<point x="27" y="86" type="line"/>
			<point x="80" y="20"/>
			<point x="158" y="-16"/>
		</contour>
		<contour>
			<point x="147" y="211" type="line"/>
			<point x="479" y="211" type="line"/>
			<point x="479" y="298" type="line"/>
			<point x="147" y="298" type="line"/>
		</contour>
	</outline>
</glyph>
<glyph name="ya" format="2">
	<unicode hex="044F"/>
	<advance width="573"/>
	<outline>
		<contour>
			<point x="383" y="0" type="line"/>
			<point x="504" y="0" type="line"/>
			<point x="504" y="503" type="line"/>
			<point x="254" y="503" type="line" smooth="yes"/>
			<point x="138" y="503"/>
			<point x="55" y="435"/>
			<point x="55" y="341" type="curve" smooth="yes"/>
			<point x="55" y="243"/>
			<point x="131" y="180"/>
			<point x="250" y="180" type="curve" smooth="yes"/>
			<point x="432" y="180" type="line"/>
			<point x="432" y="272" type="line"/>
			<point x="268" y="272" type="line" smooth="yes"/>
			<point x="217" y="272"/>
			<point x="186" y="295"/>
			<point x="186" y="339" type="curve" smooth="yes"/>
			<point x="186" y="384"/>
			<point x="220" y="405"/>
			<point x="266" y="405" type="curve" smooth="yes"/>
			<point x="468" y="405" type="line"/>
			<point x="383" y="486" type="line"/>
		</contour>
		<contour>
			<point x="30" y="0" type="line"/>
			<point x="173" y="0" type="line"/>
			<point x="330" y="218" type="line"/>
			<point x="198" y="218" type="line"/>
		</contour>
	</outline>
</glyph>
<glyph name="dje" format="2">
	<unicode hex="0452"/>
	<advance width="636"/>
	<outline>
		<contour>
			<point x="372" y="-210" type="line"/>
			<point x="512" y="-140"/>
			<point x="590" y="2"/>
			<point x="590" y="200" type="curve" smooth="yes"/>
			<point x="590" y="390"/>
			<point x="523" y="492"/>
			<point x="393" y="492" type="curve" smooth="yes"/>
			<point x="290" y="492"/>
			<point x="222" y="428"/>
			<point x="208" y="319" type="curve"/>
			<point x="226" y="319" type="line"/>
			<point x="226" y="720" type="line"/>
			<point x="94" y="720" type="line"/>
			<point x="94" y="0" type="line"/>
			<point x="226" y="0" type="line"/>
			<point x="226" y="217" type="line" smooth="yes"/>
			<point x="226" y="318"/>
			<point x="274" y="382"/>
			<point x="352" y="382" type="curve" smooth="yes"/>
			<point x="423" y="382"/>
			<point x="458" y="317"/>
			<point x="458" y="188" type="curve" smooth="yes"/>
			<point x="458" y="39"/>
			<point x="407" y="-57"/>
			<point x="304" y="-105" type="curve"/>
		</contour>
		<contour>
			<point x="13" y="552" type="line"/>
			<point x="412" y="552" type="line"/>
			<point x="412" y="646" type="line"/>
			<point x="13" y="646" type="line"/>
		</contour>
	</outline>
</glyph>
<glyph name="ieukrain" format="2">
	<unicode hex="0454"/>
	<advance width="570"/>
	<outline>
		<contour>
			<point x="315" y="-16" type="curve" smooth="yes"/>
			<point x="407" y="-16"/>
			<point x="485" y="20"/>
			<point x="539" y="86" type="curve"/>
			<point x="460" y="163" type="line"/>
			<point x="428" y="116"/>
			<point x="381" y="89"/>
			<point x="319" y="89" type="curve" smooth="yes"/>
			<point x="228" y="89"/>
			<point x="173" y="150"/>
			<point x="173" y="250" type="curve" smooth="yes"/>
			<point x="173" y="352"/>
			<point x="229" y="414"/>
			<point x="319" y="414" type="curve" smooth="yes"/>
			<point x="379" y="414"/>
			<point x="426" y="387"/>
			<point x="458" y="341" type="curve"/>
			<point x="536" y="418" type="line"/>
			<point x="483" y="483"/>
			<point x="407" y="519"/>
			<point x="314" y="519" type="curve" smooth="yes"/>
			<point x="153" y="519"/>
			<point x="40" y="410"/>
			<point x="40" y="252" type="curve" smooth="yes"/>
			<point x="40" y="90"/>
			<point x="149" y="-16"/>
		</contour>
		<contour>
			<point x="86" y="211" type="line"/>
			<point x="418" y="211" type="line"/>
			<point x="418" y="298" type="line"/>
			<point x="86" y="298" type="line"/>
		</contour>
	</outline>
	<anchor name="bottom.LC" x="317" y="-50"/>
	<anchor name="top.LC" x="317" y="544"/>
</glyph>
<glyph name="nje" format="2">
	<unicode hex="045A"/>
	<advance width="879"/>
	<outline>
		<contour>
			<point x="414" y="0" type="line"/>
			<point x="659" y="0" type="line" smooth="yes"/>
			<point x="779" y="0"/>
			<point x="861" y="69"/>
			<point x="861" y="168" type="curve" smooth="yes"/>
			<point x="861" y="267"/>
			<point x="782" y="336"/>
			<point x="659" y="336" type="curve" smooth="yes"/>
			<point x="518" y="336" type="line"/>
			<point x="518" y="231" type="line"/>
			<point x="646" y="231" type="line" smooth="yes"/>
			<point x="698" y="231"/>
			<point x="726" y="207"/>
			<point x="726" y="168" type="curve" smooth="yes"/>
			<point x="726" y="128"/>
			<point x="698" y="104"/>
			<point x="646" y="104" type="curve" smooth="yes"/>
			<point x="534" y="104" type="line"/>
			<point x="546" y="92" type="line"/>
			<point x="546" y="503" type="line"/>
			<point x="414" y="503" type="line"/>
		</contour>
		<contour>
			<point x="69" y="0" type="line"/>
			<point x="201" y="0" type="line"/>
			<point x="201" y="503" type="line"/>
			<point x="69" y="503" type="line"/>
		</contour>
		<contour>
			<point x="162" y="222" type="line"/>
			<point x="453" y="222" type="line"/>
			<point x="453" y="327" type="line"/>
			<point x="162" y="327" type="line"/>
		</contour>
	</outline>
</glyph>
<glyph name="tshe" format="2">
	<unicode hex="045B"/>
	<advance width="636"/>
	<outline>
		<contour>
			<point x="94" y="0" type="line"/>
			<point x="226" y="0" type="line"/>
			<point x="226" y="217" type="line" smooth="yes"/>
			<point x="226" y="333"/>
			<point x="286" y="382"/>
			<point x="352" y="382" type="curve" smooth="yes"/>
			<point x="412" y="382"/>
			<point x="451" y="342"/>
			<point x="451" y="263" type="curve" smooth="yes"/>
			<point x="451" y="0" type="line"/>
			<point x="583" y="0" type="line"/>
			<point x="583" y="277" type="line" smooth="yes"/>
			<point x="583" y="416"/>
			<point x="509" y="492"/>
			<point x="390" y="492" type="curve" smooth="yes"/>
			<point x="313" y="492"/>
			<point x="225" y="455"/>
			<point x="208" y="319" type="curve"/>
			<point x="226" y="319" type="line"/>
			<point x="226" y="720" type="line"/>
			<point x="94" y="720" type="line"/>
		</contour>
		<contour>
			<point x="13" y="552" type="line"/>
			<point x="412" y="552" type="line"/>
			<point x="412" y="646" type="line"/>
			<point x="13" y="646" type="line"/>
		</contour>
	</outline>
</glyph>
<glyph name="yat" format="2">
	<unicode hex="0463"/>
	<advance width="594"/>
	<outline>
		<contour>
			<point x="121" y="0" type="line"/>
			<point x="373" y="0" type="line" smooth="yes"/>
			<point x="493" y="0"/>
			<point x="575" y="66"/>
			<point x="575" y="171" type="curve" smooth="yes"/>
			<point x="575" y="268"/>
			<point x="496" y="335"/>
			<point x="373" y="335" type="curve" smooth="yes"/>
			<point x="193" y="335" type="line"/>
			<point x="193" y="234" type="line"/>
			<point x="360" y="234" type="line" smooth="yes"/>
			<point x="412" y="234"/>
			<point x="441" y="212"/>
			<point x="441" y="171" type="curve" smooth="yes"/>
			<point x="441" y="129"/>
			<point x="412" y="107"/>
			<point x="360" y="107" type="curve" smooth="yes"/>
			<point x="157" y="107" type="line"/>
			<point x="248" y="17" type="line"/>
			<point x="248" y="720" type="line"/>
			<point x="121" y="720" type="line"/>
		</contour>
		<contour>
			<point x="26" y="406" type="line"/>
			<point x="447" y="406" type="line"/>
			<point x="447" y="503" type="line"/>
			<point x="26" y="503" type="line"/>
		</contour>
	</outline>
</glyph>
<glyph name="Fita" format="2">
	<unicode hex="0472"/>
	<advance width="864"/>
	<outline>
		<contour>
			<point x="432" y="-16" type="curve" smooth="yes"/>
			<point x="653" y="-16"/>
			<point x="814" y="142"/>
			<point x="814" y="358" type="curve" smooth="yes"/>
			<point x="814" y="573"/>
			<point x="653" y="731"/>
			<point x="432" y="731" type="curve" smooth="yes"/>
			<point x="211" y="731"/>
			<point x="50" y="573"/>
			<point x="50" y="358" type="curve" smooth="yes"/>
			<point x="50" y="142"/>
			<point x="211" y="-16"/>
		</contour>
		<contour>
			<point x="432" y="101" type="curve" smooth="yes"/>
			<point x="286" y="101"/>
			<point x="187" y="206"/>
			<point x="187" y="358" type="curve" smooth="yes"/>
			<point x="187" y="509"/>
			<point x="286" y="614"/>
			<point x="432" y="614" type="curve" smooth="yes"/>
			<point x="577" y="614"/>
			<point x="677" y="509"/>
			<point x="677" y="358" type="curve" smooth="yes"/>
			<point x="677" y="206"/>
			<point x="577" y="101"/>
		</contour>
		<contour>
			<point x="127" y="310" type="line"/>
			<point x="737" y="310" type="line"/>
			<point x="737" y="425" type="line"/>
			<point x="127" y="425" type="line"/>
		</contour>
	</outline>
	<anchor name="top.UC" x="432" y="750"/>
</glyph>
<glyph name="fita" format="2">
	<unicode hex="0473"/>
	<advance width="636"/>
	<outline>
		<contour>
			<point x="318" y="-16" type="curve" smooth="yes"/>
			<point x="482" y="-16"/>
			<point x="596" y="95"/>
			<point x="596" y="252" type="curve" smooth="yes"/>
			<point x="596" y="408"/>
			<point x="482" y="519"/>
			<point x="318" y="519" type="curve" smooth="yes"/>
			<point x="154" y="519"/>
			<point x="40" y="408"/>
			<point x="40" y="252" type="curve" smooth="yes"/>
			<point x="40" y="95"/>
			<point x="154" y="-16"/>
		</contour>
		<contour>
			<point x="318" y="87" type="curve" smooth="yes"/>
			<point x="228" y="87"/>
			<point x="171" y="151"/>
			<point x="171" y="252" type="curve" smooth="yes"/>
			<point x="171" y="352"/>
			<point x="228" y="416"/>
			<point x="318" y="416" type="curve" smooth="yes"/>
			<point x="408" y="416"/>
			<point x="465" y="352"/>
			<point x="465" y="252" type="curve" smooth="yes"/>
			<point x="465" y="151"/>
			<point x="408" y="87"/>
		</contour>
		<contour>
			<point x="114" y="211" type="line"/>
			<point x="522" y="211" type="line"/>
			<point x="522" y="295" type="line"/>
			<point x="114" y="295" type="line"/>
		</contour>
	</outline>
</glyph>
<glyph name="Izhitsa" format="2">
	<unicode hex="0474"/>
	<advance width="796"/>
	<outline>
		<contour>
			<point x="311" y="0" type="line"/>
			<point x="448" y="0" type="line"/>
			<point x="659" y="560" type="line" smooth="yes"/>
			<point x="671" y="591"/>
			<point x="683" y="600"/>
			<point x="716" y="600" type="curve" smooth="yes"/>
			<point x="778" y="600" type="line"/>
			<point x="778" y="715" type="line"/>
			<point x="690" y="715" type="line" smooth="yes"/>
			<point x="605" y="715"/>
			<point x="571" y="694"/>
			<point x="542" y="609" type="curve" smooth="yes"/>
			<point x="363" y="106" type="line"/>
			<point x="400" y="106" type="line"/>
			<point x="176" y="715" type="line"/>
			<point x="29" y="715" type="line"/>
		</contour>
	</outline>
</glyph>
<glyph name="izhitsa" format="2">
	<unicode hex="0475"/>
	<advance width="610"/>
	<outline>
		<contour>
			<point x="231" y="0" type="line"/>
			<point x="359" y="0" type="line"/>
			<point x="506" y="360" type="line" smooth="yes"/>
			<point x="516" y="386"/>
			<point x="529" y="395"/>
			<point x="557" y="395" type="curve" smooth="yes"/>
			<point x="596" y="395" type="line"/>
			<point x="596" y="503" type="line"/>
			<point x="531" y="503" type="line" smooth="yes"/>
			<point x="455" y="503"/>
			<point x="423" y="482"/>
			<point x="399" y="414" type="curve" smooth="yes"/>
			<point x="281" y="91" type="line"/>
			<point x="312" y="91" type="line"/>
			<point x="154" y="503" type="line"/>
			<point x="17" y="503" type="line"/>
		</contour>
	</outline>
</glyph>
<glyph name="gheup" format="2">
	<unicode hex="0491"/>
	<advance width="472"/>
	<outline>
		<contour>
			<point x="69" y="0" type="line"/>
			<point x="201" y="0" type="line"/>
			<point x="201" y="479" type="line"/>
			<point x="107" y="396" type="line"/>
			<point x="446" y="396" type="line"/>
			<point x="446" y="631" type="line"/>
			<point x="321" y="631" type="line"/>
			<point x="321" y="468" type="line"/>
			<point x="357" y="503" type="line"/>
			<point x="69" y="503" type="line"/>
		</contour>
	</outline>
</glyph>
<glyph name="Germandbls" format="2">
	<unicode hex="1E9E"/>
	<advance width="774"/>
	<outline>
		<contour>
			<point x="251" y="71" type="line"/>
			<point x="308" y="17"/>
			<point x="391" y="-16"/>
			<point x="480" y="-16" type="curve" smooth="yes"/>
			<point x="636" y="-16"/>
			<point x="750" y="85"/>
			<point x="750" y="210" type="curve" smooth="yes"/>
			<point x="750" y="354"/>
			<point x="607" y="452"/>
			<point x="462" y="417" type="curve"/>
			<point x="500" y="403" type="line"/>
			<point x="686" y="608" type="line"/>
			<point x="686" y="715" type="line"/>
			<point x="381" y="715" type="line" smooth="yes"/>
			<point x="182" y="715"/>
			<point x="64" y="604"/>
			<point x="64" y="417" type="curve" smooth="yes"/>
			<point x="64" y="0" type="line"/>
			<point x="199" y="0" type="line"/>
			<point x="199" y="417" type="line" smooth="yes"/>
			<point x="199" y="540"/>
			<point x="264" y="608"/>
			<point x="381" y="608" type="curve" smooth="yes"/>
			<point x="633" y="608" type="line"/>
			<point x="578" y="648" type="line"/>
			<point x="328" y="372" type="line"/>
			<point x="400" y="305" type="line"/>
			<point x="424" y="323"/>
			<point x="451" y="332"/>
			<point x="483" y="332" type="curve" smooth="yes"/>
			<point x="561" y="332"/>
			<point x="615" y="282"/>
			<point x="615" y="212" type="curve" smooth="yes"/>
			<point x="615" y="142"/>
			<point x="559" y="91"/>
			<point x="480" y="91" type="curve" smooth="yes"/>
			<point x="419" y="91"/>
			<point x="367" y="120"/>
			<point x="330" y="163" type="curve"/>
		</contour>
	</outline>
</glyph>
<glyph name="endash" format="2">
	<unicode hex="2013"/>
	<advance width="500"/>
	<outline>
		<contour>
			<point x="500" y="224" type="line"/>
			<point x="500" y="330" type="line"/>
			<point x="0" y="330" type="line"/>
			<point x="0" y="224" type="line"/>
		</contour>
	</outline>
</glyph>
<glyph name="emdash" format="2">
	<unicode hex="2014"/>
	<advance width="1000"/>
	<outline>
		<contour>
			<point x="1000" y="224" type="line"/>
			<point x="1000" y="330" type="line"/>
			<point x="0" y="330" type="line"/>
			<point x="0" y="224" type="line"/>
		</contour>
	</outline>
</glyph>
<glyph name="quoteleft" format="2">
	<unicode hex="2018"/>
	<advance width="263"/>
	<outline>
		<contour>
			<point x="136" y="753" type="line"/>
			<point x="90" y="702"/>
			<point x="48" y="620"/>
			<point x="48" y="563" type="curve" smooth="yes"/>
			<point x="48" y="508"/>
			<point x="82" y="470"/>
			<point x="132" y="470" type="curve" smooth="yes"/>
			<point x="176" y="470"/>
			<point x="210" y="505"/>
			<point x="210" y="549" type="curve" smooth="yes"/>
			<point x="210" y="592"/>
			<point x="175" y="626"/>
			<point x="128" y="626" type="curve"/>
			<point x="149" y="601" type="line"/>
			<point x="147" y="641"/>
			<point x="174" y="704"/>
			<point x="215" y="753" type="curve"/>
		</contour>
	</outline>
</glyph>
<glyph name="quoteright" format="2">
	<unicode hex="2019"/>
	<advance width="263"/>
	<outline>
		<contour>
			<point x="127" y="464" type="line"/>
			<point x="173" y="515"/>
			<point x="215" y="596"/>
			<point x="215" y="654" type="curve" smooth="yes"/>
			<point x="215" y="709"/>
			<point x="181" y="747"/>
			<point x="132" y="747" type="curve" smooth="yes"/>
			<point x="87" y="747"/>
			<point x="54" y="712"/>
			<point x="54" y="668" type="curve" smooth="yes"/>
			<point x="54" y="625"/>
			<point x="89" y="591"/>
			<point x="135" y="591" type="curve"/>
			<point x="114" y="616" type="line"/>
			<point x="117" y="576"/>
			<point x="89" y="512"/>
			<point x="48" y="464" type="curve"/>
		</contour>
	</outline>
</glyph>
<glyph name="daggerdbl" format="2">
	<unicode hex="2021"/>
	<advance width="492"/>
	<outline>
		<contour>
			<point x="311" y="-129" type="line"/>
			<point x="311" y="736" type="line"/>
			<point x="182" y="736" type="line"/>
			<point x="182" y="-129" type="line"/>
		</contour>
		<contour>
			<point x="450" y="396" type="line"/>
			<point x="450" y="502" type="line"/>
			<point x="42" y="502" type="line"/>
			<point x="42" y="396" type="line"/>
		</contour>
		<contour>
			<point x="42" y="211" type="line"/>
			<point x="42" y="105" type="line"/>
			<point x="450" y="105" type="line"/>
			<point x="450" y="211" type="line"/>
		</contour>
	</outline>
</glyph>
<glyph name="guilsinglleft" format="2">
	<unicode hex="2039"/>
	<advance width="365"/>
	<outline>
		<contour>
			<point x="181" y="32" type="line"/>
			<point x="326" y="32" type="line"/>
			<point x="174" y="251" type="line"/>
			<point x="326" y="470" type="line"/>
			<point x="181" y="470" type="line"/>
			<point x="33" y="251" type="line"/>
		</contour>
	</outline>
</glyph>
<glyph name="guilsinglright" format="2">
	<unicode hex="203A"/>
	<advance width="365"/>
	<outline>
		<contour>
			<point x="184" y="470" type="line"/>
			<point x="39" y="470" type="line"/>
			<point x="191" y="252" type="line"/>
			<point x="39" y="33" type="line"/>
			<point x="184" y="33" type="line"/>
			<point x="332" y="252" type="line"/>
		</contour>
	</outline>
</glyph>
<glyph name="fraction" format="2">
	<unicode hex="2044"/>
	<advance width="232"/>
	<outline>
		<contour>
			<point x="-68" y="0" type="line"/>
			<point x="432" y="715" type="line"/>
			<point x="299" y="715" type="line"/>
			<point x="-200" y="0" type="line"/>
		</contour>
	</outline>
</glyph>
<glyph name="dong" format="2">
	<unicode hex="20AB"/>
	<advance width="649"/>
	<outline>
		<contour>
			<point x="279" y="154" type="curve" smooth="yes"/>
			<point x="380" y="154"/>
			<point x="439" y="225"/>
			<point x="437" y="313" type="curve"/>
			<point x="410" y="326" type="line"/>
			<point x="404" y="282"/>
			<point x="362" y="250"/>
			<point x="309" y="250" type="curve" smooth="yes"/>
			<point x="250" y="250"/>
			<point x="208" y="291"/>
			<point x="208" y="350" type="curve" smooth="yes"/>
			<point x="208" y="408"/>
			<point x="247" y="449"/>
			<point x="305" y="449" type="curve" smooth="yes"/>
			<point x="364" y="449"/>
			<point x="406" y="406"/>
			<point x="406" y="352" type="curve" smooth="yes"/>
			<point x="406" y="260" type="line"/>
			<point x="407" y="253" type="line"/>
			<point x="407" y="166" type="line"/>
			<point x="522" y="166" type="line"/>
			<point x="522" y="715" type="line"/>
			<point x="406" y="715" type="line"/>
			<point x="406" y="411" type="line"/>
			<point x="434" y="411" type="line"/>
			<point x="424" y="489"/>
			<point x="368" y="545"/>
			<point x="279" y="545" type="curve" smooth="yes"/>
			<point x="176" y="545"/>
			<point x="88" y="465"/>
			<point x="88" y="350" type="curve" smooth="yes"/>
			<point x="88" y="234"/>
			<point x="175" y="154"/>
		</contour>
		<contour>
			<point x="112" y="0" type="line"/>
			<point x="522" y="0" type="line"/>
			<point x="522" y="95" type="line"/>
			<point x="112" y="95" type="line"/>
		</contour>
		<contour>
			<point x="301" y="590" type="line"/>
			<point x="582" y="590" type="line"/>
			<point x="582" y="664" type="line"/>
			<point x="301" y="664" type="line"/>
		</contour>
	</outline>
</glyph>
<glyph name="Euro" format="2">
	<unicode hex="20AC"/>
	<advance width="660"/>
	<outline>
		<contour>
			<point x="558" y="181" type="line"/>
			<point x="520" y="128"/>
			<point x="466" y="96"/>
			<point x="400" y="96" type="curve" smooth="yes"/>
			<point x="286" y="96"/>
			<point x="212" y="194"/>
			<point x="212" y="358" type="curve" smooth="yes"/>
			<point x="212" y="522"/>
			<point x="286" y="619"/>
			<point x="401" y="619" type="curve" smooth="yes"/>
			<point x="467" y="619"/>
			<point x="521" y="587"/>
			<point x="559" y="534" type="curve"/>
			<point x="642" y="618" type="line"/>
			<point x="587" y="686"/>
			<point x="501" y="731"/>
			<point x="401" y="731" type="curve" smooth="yes"/>
			<point x="211" y="731"/>
			<point x="83" y="580"/>
			<point x="83" y="358" type="curve" smooth="yes"/>
			<point x="83" y="135"/>
			<point x="207" y="-16"/>
			<point x="398" y="-16" type="curve" smooth="yes"/>
			<point x="498" y="-16"/>
			<point x="586" y="29"/>
			<point x="641" y="97" type="curve"/>
		</contour>
		<contour>
			<point x="445" y="235" type="line"/>
			<point x="462" y="326" type="line"/>
			<point x="19" y="326" type="line"/>
			<point x="19" y="235" type="line"/>
		</contour>
		<contour>
			<point x="474" y="390" type="line"/>
			<point x="491" y="481" type="line"/>
			<point x="19" y="481" type="line"/>
			<point x="19" y="390" type="line"/>
		</contour>
	</outline>
</glyph>
<glyph name="hryvnia" format="2">
	<unicode hex="20B4"/>
	<advance width="660"/>
	<outline>
		<contour>
			<point x="343" y="-16" type="curve" smooth="yes"/>
			<point x="447" y="-16"/>
			<point x="534" y="16"/>
			<point x="597" y="77" type="curve"/>
			<point x="530" y="171" type="line"/>
			<point x="485" y="121"/>
			<point x="423" y="95"/>
			<point x="345" y="95" type="curve" smooth="yes"/>
			<point x="259" y="95"/>
			<point x="211" y="120"/>
			<point x="211" y="164" type="curve" smooth="yes"/>
			<point x="211" y="220"/>
			<point x="271" y="253"/>
			<point x="380" y="330" type="curve" smooth="yes"/>
			<point x="516" y="426"/>
			<point x="581" y="486"/>
			<point x="581" y="570" type="curve" smooth="yes"/>
			<point x="581" y="671"/>
			<point x="492" y="731"/>
			<point x="349" y="731" type="curve" smooth="yes"/>
			<point x="251" y="731"/>
			<point x="162" y="695"/>
			<point x="105" y="633" type="curve"/>
			<point x="174" y="547" type="line"/>
			<point x="215" y="597"/>
			<point x="270" y="620"/>
			<point x="341" y="620" type="curve" smooth="yes"/>
			<point x="412" y="620"/>
			<point x="454" y="595"/>
			<point x="454" y="554" type="curve" smooth="yes"/>
			<point x="454" y="510"/>
			<point x="400" y="477"/>
			<point x="309" y="410" type="curve" smooth="yes"/>
			<point x="176" y="314"/>
			<point x="82" y="253"/>
			<point x="82" y="143" type="curve" smooth="yes"/>
			<point x="82" y="40"/>
			<point x="174" y="-16"/>
		</contour>
		<contour>
			<point x="32" y="240" type="line"/>
			<point x="628" y="240" type="line"/>
			<point x="628" y="327" type="line"/>
			<point x="32" y="327" type="line"/>
		</contour>
		<contour>
			<point x="32" y="394" type="line"/>
			<point x="628" y="394" type="line"/>
			<point x="628" y="481" type="line"/>
			<point x="32" y="481" type="line"/>
		</contour>
	</outline>
</glyph>
<glyph name="rupeeindian" format="2">
	<unicode hex="20B9"/>
	<advance width="660"/>
	<outline>
		<contour>
			<point x="52" y="622" type="line"/>
			<point x="275" y="622" type="line" smooth="yes"/>
			<point x="362" y="622"/>
			<point x="415" y="578"/>
			<point x="415" y="503" type="curve" smooth="yes"/>
			<point x="415" y="428"/>
			<point x="362" y="383"/>
			<point x="275" y="383" type="curve" smooth="yes"/>
			<point x="53" y="383" type="line"/>
			<point x="53" y="290" type="line"/>
			<point x="275" y="290" type="line" smooth="yes"/>
			<point x="427" y="290"/>
			<point x="531" y="376"/>
			<point x="531" y="503" type="curve" smooth="yes"/>
			<point x="531" y="617"/>
			<point x="427" y="695"/>
			<point x="275" y="695" type="curve" smooth="yes"/>
			<point x="52" y="695" type="line"/>
		</contour>
		<contour>
			<point x="611" y="0" type="line"/>
			<point x="215" y="306" type="line"/>
			<point x="53" y="290" type="line"/>
			<point x="415" y="0" type="line"/>
		</contour>
		<contour>
			<point x="582" y="455" type="line"/>
			<point x="599" y="548" type="line"/>
			<point x="52" y="548" type="line"/>
			<point x="52" y="455" type="line"/>
		</contour>
		<contour>
			<point x="613" y="622" type="line"/>
			<point x="630" y="715" type="line"/>
			<point x="52" y="715" type="line"/>
			<point x="52" y="622" type="line"/>
		</contour>
	</outline>
</glyph>
<glyph name="liraturkish" format="2">
	<unicode hex="20BA"/>
	<advance width="660"/>
	<outline>
		<contour>
			<point x="121" y="0" type="line"/>
			<point x="290" y="0" type="line" smooth="yes"/>
			<point x="510" y="0"/>
			<point x="627" y="108"/>
			<point x="627" y="320" type="curve" smooth="yes"/>
			<point x="627" y="330" type="line"/>
			<point x="497" y="338" type="line"/>
			<point x="497" y="311" type="line" smooth="yes"/>
			<point x="497" y="175"/>
			<point x="427" y="109"/>
			<point x="298" y="109" type="curve" smooth="yes"/>
			<point x="251" y="109" type="line"/>
			<point x="251" y="715" type="line"/>
			<point x="121" y="715" type="line"/>
		</contour>
		<contour>
			<point x="415" y="362" type="line"/>
			<point x="415" y="458" type="line"/>
			<point x="28" y="295" type="line"/>
			<point x="28" y="199" type="line"/>
		</contour>
		<contour>
			<point x="415" y="523" type="line"/>
			<point x="415" y="619" type="line"/>
			<point x="28" y="456" type="line"/>
			<point x="28" y="360" type="line"/>
		</contour>
	</outline>
</glyph>
<glyph name="ruble" format="2">
	<unicode hex="20BD"/>
	<advance width="660"/>
	<outline>
		<contour>
			<point x="267" y="0" type="line"/>
			<point x="267" y="613" type="line"/>
			<point x="375" y="613" type="line" smooth="yes"/>
			<point x="452" y="613"/>
			<point x="501" y="570"/>
			<point x="501" y="503" type="curve" smooth="yes"/>
			<point x="501" y="436"/>
			<point x="452" y="392"/>
			<point x="375" y="392" type="curve" smooth="yes"/>
			<point x="35" y="392" type="line"/>
			<point x="35" y="290" type="line"/>
			<point x="375" y="290" type="line" smooth="yes"/>
			<point x="527" y="290"/>
			<point x="631" y="376"/>
			<point x="631" y="503" type="curve" smooth="yes"/>
			<point x="631" y="629"/>
			<point x="527" y="715"/>
			<point x="375" y="715" type="curve" smooth="yes"/>
			<point x="135" y="715" type="line"/>
			<point x="135" y="0" type="line"/>
		</contour>
		<contour>
			<point x="475" y="213" type="line"/>
			<point x="35" y="213" type="line"/>
			<point x="35" y="111" type="line"/>
			<point x="475" y="111" type="line"/>
		</contour>
	</outline>
</glyph>
<glyph name="numero" format="2">
	<unicode hex="2116"/>
	<advance width="1243"/>
	<outline>
		<contour>
			<point x="70" y="0" type="line"/>
			<point x="202" y="0" type="line"/>
			<point x="202" y="586" type="line"/>
			<point x="151" y="586" type="line"/>
			<point x="545" y="0" type="line"/>
			<point x="687" y="0" type="line"/>
			<point x="687" y="715" type="line"/>
			<point x="555" y="715" type="line"/>
			<point x="555" y="129" type="line"/>
			<point x="607" y="129" type="line"/>
			<point x="212" y="715" type="line"/>
			<point x="70" y="715" type="line"/>
		</contour>
		<contour>
			<point x="819" y="201" type="line"/>
			<point x="1177" y="201" type="line"/>
			<point x="1177" y="293" type="line"/>
			<point x="819" y="293" type="line"/>
		</contour>
		<contour>
			<point x="998" y="336" type="curve" smooth="yes"/>
			<point x="1116" y="336"/>
			<point x="1197" y="415"/>
			<point x="1197" y="526" type="curve" smooth="yes"/>
			<point x="1197" y="637"/>
			<point x="1116" y="715"/>
			<point x="998" y="715" type="curve" smooth="yes"/>
			<point x="881" y="715"/>
			<point x="799" y="637"/>
			<point x="799" y="526" type="curve" smooth="yes"/>
			<point x="799" y="415"/>
			<point x="881" y="336"/>
		</contour>
		<contour>
			<point x="998" y="430" type="curve" smooth="yes"/>
			<point x="948" y="430"/>
			<point x="913" y="470"/>
			<point x="913" y="526" type="curve" smooth="yes"/>
			<point x="913" y="582"/>
			<point x="948" y="621"/>
			<point x="998" y="621" type="curve" smooth="yes"/>
			<point x="1049" y="621"/>
			<point x="1083" y="582"/>
			<point x="1083" y="526" type="curve" smooth="yes"/>
			<point x="1083" y="470"/>
			<point x="1049" y="430"/>
		</contour>
	</outline>
</glyph>
<glyph name="upTipLeftArrow" format="2">
	<unicode hex="21B0"/>
	<advance width="931"/>
	<outline>
		<contour>
			<point x="757" y="0" type="line"/>
			<point x="831" y="0" type="line"/>
			<point x="831" y="282" type="line"/>
			<point x="193" y="282" type="line"/>
			<point x="193" y="210" type="line"/>
			<point x="757" y="210" type="line"/>
		</contour>
		<contour>
			<point x="356" y="0" type="line"/>
			<point x="460" y="0" type="line"/>
			<point x="208" y="246" type="line"/>
			<point x="460" y="492" type="line"/>
			<point x="356" y="492" type="line"/>
			<point x="100" y="246" type="line"/>
		</contour>
	</outline>
</glyph>
<glyph name="rightTipDownArrow" format="2">
	<unicode hex="2B0E"/>
	<advance width="752"/>
	<outline>
		<contour>
			<point x="339" y="72" type="line"/>
			<point x="413" y="72" type="line"/>
			<point x="413" y="715" type="line"/>
			<point x="100" y="715" type="line"/>
			<point x="100" y="643" type="line"/>
			<point x="339" y="643" type="line"/>
		</contour>
		<contour>
			<point x="376" y="-16" type="line"/>
			<point x="652" y="240" type="line"/>
			<point x="652" y="341" type="line"/>
			<point x="376" y="84" type="line"/>
			<point x="100" y="341" type="line"/>
			<point x="100" y="240" type="line"/>
		</contour>
	</outline>
</glyph>
<glyph name="De.loclBGR" format="2">
	<advance width="825"/>
	<outline>
		<contour>
			<point x="78" y="33" type="line"/>
			<point x="215" y="33" type="line"/>
			<point x="410" y="564" type="line"/>
			<point x="603" y="33" type="line"/>
			<point x="746" y="33" type="line"/>
			<point x="486" y="715" type="line"/>
			<point x="337" y="715" type="line"/>
		</contour>
		<contour>
			<point x="31" y="-174" type="line"/>
			<point x="158" y="-174" type="line"/>
			<point x="158" y="0" type="line"/>
			<point x="667" y="0" type="line"/>
			<point x="667" y="-174" type="line"/>
			<point x="794" y="-174" type="line"/>
			<point x="794" y="115" type="line"/>
			<point x="31" y="115" type="line"/>
		</contour>
	</outline>
</glyph>
<glyph name="Ef.loclBGR" format="2">
	<advance width="895"/>
	<outline>
		<contour>
			<point x="448" y="51" type="curve" smooth="yes"/>
			<point x="709" y="51"/>
			<point x="845" y="156"/>
			<point x="845" y="358" type="curve" smooth="yes"/>
			<point x="845" y="559"/>
			<point x="709" y="664"/>
			<point x="448" y="664" type="curve" smooth="yes"/>
			<point x="187" y="664"/>
			<point x="50" y="559"/>
			<point x="50" y="358" type="curve" smooth="yes"/>
			<point x="50" y="156"/>
			<point x="186" y="51"/>
		</contour>
		<contour>
			<point x="448" y="163" type="curve" smooth="yes"/>
			<point x="266" y="163"/>
			<point x="184" y="224"/>
			<point x="184" y="358" type="curve" smooth="yes"/>
			<point x="184" y="492"/>
			<point x="266" y="552"/>
			<point x="448" y="552" type="curve" smooth="yes"/>
			<point x="630" y="552"/>
			<point x="712" y="492"/>
			<point x="712" y="358" type="curve" smooth="yes"/>
			<point x="712" y="223"/>
			<point x="630" y="163"/>
		</contour>
		<contour>
			<point x="380" y="-53" type="line"/>
			<point x="515" y="-53" type="line"/>
			<point x="515" y="93" type="line"/>
			<point x="511" y="137" type="line"/>
			<point x="511" y="584" type="line"/>
			<point x="515" y="623" type="line"/>
			<point x="515" y="768" type="line"/>
			<point x="380" y="768" type="line"/>
			<point x="380" y="623" type="line"/>
			<point x="384" y="584" type="line"/>
			<point x="384" y="137" type="line"/>
			<point x="380" y="93" type="line"/>
		</contour>
	</outline>
</glyph>
<glyph name="acutecomb.asc" format="2">
	<outline>
		<contour>
			<point x="194" y="731" type="line"/>
			<point x="47" y="731" type="line"/>
			<point x="-67" y="587" type="line"/>
			<point x="47" y="587" type="line"/>
		</contour>
	</outline>
	<anchor name="_top.LC" x="0" y="544"/>
</glyph>
<glyph name="breveacutecomb" format="2">
	<outline>
		<contour>
			<point x="0" y="585" type="curve" smooth="yes"/>
			<point x="88" y="585"/>
			<point x="161" y="645"/>
			<point x="171" y="747" type="curve"/>
			<point x="72" y="747" type="line"/>
			<point x="65" y="695"/>
			<point x="36" y="673"/>
			<point x="0" y="673" type="curve" smooth="yes"/>
			<point x="-36" y="673"/>
			<point x="-65" y="695"/>
			<point x="-72" y="747" type="curve"/>
			<point x="-171" y="747" type="line"/>
			<point x="-161" y="645"/>
			<point x="-88" y="585"/>
		</contour>
		<contour>
			<point x="-49" y="754" type="line"/>
			<point x="41" y="754" type="line"/>
			<point x="184" y="902" type="line"/>
			<point x="52" y="902" type="line"/>
		</contour>
	</outline>
	<anchor name="_top.LC" x="0" y="544"/>
</glyph>
<glyph name="brevecomb.cyrl.cap" format="2">
	<outline>
		<contour>
			<point x="0" y="588" type="curve" smooth="yes"/>
			<point x="97" y="588"/>
			<point x="169" y="636"/>
			<point x="181" y="735" type="curve"/>
			<point x="76" y="735" type="line"/>
			<point x="70" y="684"/>
			<point x="42" y="663"/>
			<point x="0" y="663" type="curve" smooth="yes"/>
			<point x="-41" y="663"/>
			<point x="-70" y="684"/>
			<point x="-76" y="735" type="curve"/>
			<point x="-181" y="735" type="line"/>
			<point x="-169" y="636"/>
			<point x="-97" y="588"/>
		</contour>
	</outline>
	<anchor name="_top.UC" x="0" y="544"/>
</glyph>
<glyph name="brevecomb.cyrl" format="2">
	<outline>
		<contour>
			<point x="0" y="588" type="curve" smooth="yes"/>
			<point x="97" y="588"/>
			<point x="165" y="636"/>
			<point x="180" y="735" type="curve"/>
			<point x="76" y="735" type="line"/>
			<point x="69" y="682"/>
			<point x="42" y="661"/>
			<point x="0" y="661" type="curve" smooth="yes"/>
			<point x="-41" y="661"/>
			<point x="-69" y="682"/>
			<point x="-77" y="735" type="curve"/>
			<point x="-180" y="735" type="line"/>
			<point x="-165" y="636"/>
			<point x="-97" y="588"/>
		</contour>
	</outline>
	<anchor name="_top.LC" x="0" y="544"/>
</glyph>
<glyph name="brevegravecomb.cap" format="2">
	<outline>
		<contour>
			<point x="0" y="795" type="curve" smooth="yes"/>
			<point x="98" y="795"/>
			<point x="171" y="853"/>
			<point x="181" y="947" type="curve"/>
			<point x="77" y="947" type="line"/>
			<point x="71" y="906"/>
			<point x="40" y="881"/>
			<point x="0" y="881" type="curve" smooth="yes"/>
			<point x="-40" y="881"/>
			<point x="-71" y="906"/>
			<point x="-77" y="947" type="curve"/>
			<point x="-181" y="947" type="line"/>
			<point x="-171" y="853"/>
			<point x="-98" y="795"/>
		</contour>
		<contour>
			<point x="-36" y="949" type="line"/>
			<point x="54" y="949" type="line"/>
			<point x="-53" y="1097" type="line"/>
			<point x="-184" y="1097" type="line"/>
		</contour>
	</outline>
	<anchor name="_top.UC" x="0" y="750"/>
</glyph>
<glyph name="brevehookabovecomb.cap" format="2">
	<outline>
		<contour>
			<point x="0" y="795" type="curve" smooth="yes"/>
			<point x="98" y="795"/>
			<point x="171" y="853"/>
			<point x="181" y="947" type="curve"/>
			<point x="77" y="947" type="line"/>
			<point x="71" y="906"/>
			<point x="40" y="881"/>
			<point x="0" y="881" type="curve" smooth="yes"/>
			<point x="-40" y="881"/>
			<point x="-71" y="906"/>
			<point x="-77" y="947" type="curve"/>
			<point x="-181" y="947" type="line"/>
			<point x="-171" y="853"/>
			<point x="-98" y="795"/>
		</contour>
		<contour>
			<point x="-15" y="933" type="line"/>
			<point x="59" y="960"/>
			<point x="99" y="1003"/>
			<point x="99" y="1053" type="curve" smooth="yes"/>
			<point x="99" y="1107"/>
			<point x="52" y="1147"/>
			<point x="-10" y="1147" type="curve" smooth="yes"/>
			<point x="-50" y="1147"/>
			<point x="-85" y="1133"/>
			<point x="-115" y="1104" type="curve"/>
			<point x="-75" y="1055" type="line"/>
			<point x="-58" y="1068"/>
			<point x="-42" y="1074"/>
			<point x="-23" y="1074" type="curve" smooth="yes"/>
			<point x="1" y="1074"/>
			<point x="14" y="1063"/>
			<point x="14" y="1045" type="curve" smooth="yes"/>
			<point x="14" y="1023"/>
			<point x="-5" y="1005"/>
			<point x="-44" y="987" type="curve"/>
		</contour>
	</outline>
	<anchor name="_top.UC" x="0" y="750"/>
</glyph>
<glyph name="brevetildecomb.cap" format="2">
	<outline>
		<contour>
			<point x="0" y="795" type="curve" smooth="yes"/>
			<point x="98" y="795"/>
			<point x="171" y="853"/>
			<point x="181" y="947" type="curve"/>
			<point x="77" y="947" type="line"/>
			<point x="71" y="906"/>
			<point x="40" y="881"/>
			<point x="0" y="881" type="curve" smooth="yes"/>
			<point x="-40" y="881"/>
			<point x="-71" y="906"/>
			<point x="-77" y="947" type="curve"/>
			<point x="-181" y="947" type="line"/>
			<point x="-171" y="853"/>
			<point x="-98" y="795"/>
		</contour>
		<contour>
			<point x="-111" y="977" type="line"/>
			<point x="-105" y="1015"/>
			<point x="-91" y="1035"/>
			<point x="-71" y="1035" type="curve" smooth="yes"/>
			<point x="-59" y="1035"/>
			<point x="-47" y="1029"/>
			<point x="-21" y="1012" type="curve" smooth="yes"/>
			<point x="19" y="986"/>
			<point x="48" y="975"/>
			<point x="79" y="975" type="curve" smooth="yes"/>
			<point x="137" y="975"/>
			<point x="179" y="1017"/>
			<point x="189" y="1085" type="curve"/>
			<point x="111" y="1115" type="line"/>
			<point x="106" y="1077"/>
			<point x="91" y="1056"/>
			<point x="71" y="1056" type="curve" smooth="yes"/>
			<point x="59" y="1056"/>
			<point x="44" y="1063"/>
			<point x="13" y="1082" type="curve" smooth="yes"/>
			<point x="-28" y="1108"/>
			<point x="-51" y="1116"/>
			<point x="-77" y="1116" type="curve" smooth="yes"/>
			<point x="-137" y="1116"/>
			<point x="-178" y="1076"/>
			<point x="-189" y="1007" type="curve"/>
		</contour>
	</outline>
	<anchor name="_top.UC" x="0" y="750"/>
</glyph>
<glyph name="brevetildecomb" format="2">
	<outline>
		<contour>
			<point x="0" y="585" type="curve"/>
			<point x="88" y="585"/>
			<point x="161" y="645"/>
			<point x="171" y="747" type="curve"/>
			<point x="72" y="747" type="line"/>
			<point x="65" y="695"/>
			<point x="36" y="673"/>
			<point x="0" y="673" type="curve" smooth="yes"/>
			<point x="-36" y="673"/>
			<point x="-65" y="695"/>
			<point x="-72" y="747" type="curve"/>
			<point x="-171" y="747" type="line"/>
			<point x="-161" y="645"/>
			<point x="-88" y="585"/>
		</contour>
		<contour>
			<point x="-103" y="785" type="line"/>
			<point x="-96" y="820"/>
			<point x="-84" y="839"/>
			<point x="-64" y="839" type="curve" smooth="yes"/>
			<point x="-51" y="839"/>
			<point x="-39" y="832"/>
			<point x="-7" y="813" type="curve" smooth="yes"/>
			<point x="23" y="794"/>
			<point x="43" y="785"/>
			<point x="69" y="785" type="curve" smooth="yes"/>
			<point x="122" y="785"/>
			<point x="163" y="823"/>
			<point x="176" y="891" type="curve"/>
			<point x="102" y="921" type="line"/>
			<point x="95" y="885"/>
			<point x="82" y="867"/>
			<point x="63" y="867" type="curve" smooth="yes"/>
			<point x="52" y="867"/>
			<point x="45" y="871"/>
			<point x="10" y="893" type="curve" smooth="yes"/>
			<point x="-24" y="913"/>
			<point x="-42" y="922"/>
			<point x="-70" y="922" type="curve" smooth="yes"/>
			<point x="-123" y="922"/>
			<point x="-164" y="881"/>
			<point x="-177" y="815" type="curve"/>
		</contour>
	</outline>
	<anchor name="_top.LC" x="0" y="544"/>
</glyph>
<glyph name="che.loclBGR" format="2">
	<advance width="589"/>
	<outline>
		<contour>
			<point x="228" y="152" type="curve" smooth="yes"/>
			<point x="347" y="152"/>
			<point x="423" y="236"/>
			<point x="419" y="360" type="curve"/>
			<point x="393" y="378" type="line"/>
			<point x="384" y="308"/>
			<point x="332" y="262"/>
			<point x="266" y="262" type="curve" smooth="yes"/>
			<point x="208" y="262"/>
			<point x="172" y="295"/>
			<point x="172" y="371" type="curve" smooth="yes"/>
			<point x="172" y="503" type="line"/>
			<point x="40" y="503" type="line"/>
			<point x="40" y="357" type="line" smooth="yes"/>
			<point x="40" y="224"/>
			<point x="113" y="152"/>
		</contour>
		<contour>
			<point x="388" y="0" type="line"/>
			<point x="520" y="0" type="line"/>
			<point x="520" y="503" type="line"/>
			<point x="388" y="503" type="line"/>
		</contour>
	</outline>
</glyph>
<glyph name="circumflexacutecomb.cap" format="2">
	<outline>
		<contour>
			<point x="-198" y="799" type="line"/>
			<point x="-75" y="799" type="line"/>
			<point x="51" y="915" type="line"/>
			<point x="-54" y="915" type="line"/>
			<point x="74" y="799" type="line"/>
			<point x="198" y="799" type="line"/>
			<point x="72" y="935" type="line"/>
			<point x="-72" y="935" type="line"/>
		</contour>
		<contour>
			<point x="152" y="879" type="line"/>
			<point x="242" y="879" type="line"/>
			<point x="392" y="1027" type="line"/>
			<point x="260" y="1027" type="line"/>
		</contour>
	</outline>
	<anchor name="_top.UC" x="0" y="750"/>
</glyph>
<glyph name="circumflexacutecomb" format="2">
	<outline>
		<contour>
			<point x="-190" y="587" type="line"/>
			<point x="-71" y="587" type="line"/>
			<point x="49" y="707" type="line"/>
			<point x="-52" y="707" type="line"/>
			<point x="68" y="587" type="line"/>
			<point x="190" y="587" type="line"/>
			<point x="67" y="737" type="line"/>
			<point x="-67" y="737" type="line"/>
		</contour>
		<contour>
			<point x="145" y="678" type="line"/>
			<point x="235" y="678" type="line"/>
			<point x="378" y="826" type="line"/>
			<point x="246" y="826" type="line"/>
		</contour>
	</outline>
	<anchor name="_top.LC" x="0" y="544"/>
</glyph>
<glyph name="circumflexcomb.narrow" format="2">
	<outline>
		<contour>
			<point x="173" y="587" type="line"/>
			<point x="49" y="761" type="line"/>
			<point x="-49" y="761" type="line"/>
			<point x="-173" y="587" type="line"/>
			<point x="-70" y="587" type="line"/>
			<point x="51" y="738" type="line"/>
			<point x="-54" y="738" type="line"/>
			<point x="67" y="587" type="line"/>
		</contour>
	</outline>
	<anchor name="_top.LC" x="0" y="544"/>
</glyph>
<glyph name="circumflexgravecomb.cap" format="2">
	<outline>
		<contour>
			<point x="198" y="799" type="line"/>
			<point x="72" y="935" type="line"/>
			<point x="-72" y="935" type="line"/>
			<point x="-198" y="799" type="line"/>
			<point x="-75" y="799" type="line"/>
			<point x="51" y="915" type="line"/>
			<point x="-54" y="915" type="line"/>
			<point x="74" y="799" type="line"/>
		</contour>
		<contour>
			<point x="208" y="879" type="line"/>
			<point x="298" y="879" type="line"/>
			<point x="191" y="1027" type="line"/>
			<point x="60" y="1027" type="line"/>
		</contour>
	</outline>
	<anchor name="_top.UC" x="0" y="750"/>
</glyph>
<glyph name="circumflexgravecomb" format="2">
	<outline>
		<contour>
			<point x="-190" y="587" type="line"/>
			<point x="-71" y="587" type="line"/>
			<point x="49" y="707" type="line"/>
			<point x="-52" y="707" type="line"/>
			<point x="68" y="587" type="line"/>
			<point x="190" y="587" type="line"/>
			<point x="67" y="737" type="line"/>
			<point x="-67" y="737" type="line"/>
		</contour>
		<contour>
			<point x="189" y="678" type="line"/>
			<point x="281" y="678" type="line"/>
			<point x="179" y="826" type="line"/>
			<point x="46" y="826" type="line"/>
		</contour>
	</outline>
	<anchor name="_top.LC" x="0" y="544"/>
</glyph>
<glyph name="circumflexhookabovecomb.cap" format="2">
	<outline>
		<contour>
			<point x="-197" y="799" type="line"/>
			<point x="-75" y="799" type="line"/>
			<point x="51" y="915" type="line"/>
			<point x="-53" y="915" type="line"/>
			<point x="74" y="799" type="line"/>
			<point x="198" y="799" type="line"/>
			<point x="72" y="935" type="line"/>
			<point x="-72" y="935" type="line"/>
		</contour>
		<contour>
			<point x="189" y="863" type="line"/>
			<point x="263" y="890"/>
			<point x="303" y="933"/>
			<point x="303" y="983" type="curve" smooth="yes"/>
			<point x="303" y="1037"/>
			<point x="256" y="1077"/>
			<point x="194" y="1077" type="curve" smooth="yes"/>
			<point x="154" y="1077"/>
			<point x="119" y="1063"/>
			<point x="89" y="1034" type="curve"/>
			<point x="129" y="985" type="line"/>
			<point x="146" y="998"/>
			<point x="162" y="1004"/>
			<point x="181" y="1004" type="curve" smooth="yes"/>
			<point x="205" y="1004"/>
			<point x="218" y="993"/>
			<point x="218" y="975" type="curve" smooth="yes"/>
			<point x="218" y="953"/>
			<point x="199" y="935"/>
			<point x="160" y="917" type="curve"/>
		</contour>
	</outline>
	<anchor name="_top.UC" x="0" y="750"/>
</glyph>
<glyph name="circumflexhookabovecomb" format="2">
	<outline>
		<contour>
			<point x="-190" y="587" type="line"/>
			<point x="-71" y="587" type="line"/>
			<point x="49" y="707" type="line"/>
			<point x="-53" y="707" type="line"/>
			<point x="67" y="587" type="line"/>
			<point x="190" y="587" type="line"/>
			<point x="66" y="737" type="line"/>
			<point x="-67" y="737" type="line"/>
		</contour>
		<contour>
			<point x="181" y="660" type="line"/>
			<point x="256" y="687"/>
			<point x="296" y="729"/>
			<point x="296" y="779" type="curve" smooth="yes"/>
			<point x="296" y="834"/>
			<point x="249" y="874"/>
			<point x="186" y="874" type="curve" smooth="yes"/>
			<point x="145" y="874"/>
			<point x="109" y="860"/>
			<point x="79" y="831" type="curve"/>
			<point x="120" y="781" type="line"/>
			<point x="138" y="795"/>
			<point x="154" y="801"/>
			<point x="173" y="801" type="curve" smooth="yes"/>
			<point x="196" y="801"/>
			<point x="210" y="790"/>
			<point x="210" y="771" type="curve" smooth="yes"/>
			<point x="210" y="751"/>
			<point x="192" y="733"/>
			<point x="151" y="714" type="curve"/>
		</contour>
	</outline>
	<anchor name="_top.LC" x="0" y="544"/>
</glyph>
<glyph name="circumflextildecomb.cap" format="2">
	<outline>
		<contour>
			<point x="-199" y="799" type="line"/>
			<point x="-77" y="799" type="line"/>
			<point x="50" y="915" type="line"/>
			<point x="-55" y="915" type="line"/>
			<point x="72" y="799" type="line"/>
			<point x="196" y="799" type="line"/>
			<point x="71" y="935" type="line"/>
			<point x="-74" y="935" type="line"/>
		</contour>
		<contour>
			<point x="-111" y="958" type="line"/>
			<point x="-106" y="996"/>
			<point x="-91" y="1017"/>
			<point x="-71" y="1017" type="curve" smooth="yes"/>
			<point x="-59" y="1017"/>
			<point x="-48" y="1011"/>
			<point x="-21" y="994" type="curve" smooth="yes"/>
			<point x="18" y="967"/>
			<point x="47" y="957"/>
			<point x="79" y="957" type="curve" smooth="yes"/>
			<point x="137" y="957"/>
			<point x="178" y="998"/>
			<point x="189" y="1067" type="curve"/>
			<point x="111" y="1096" type="line"/>
			<point x="105" y="1058"/>
			<point x="91" y="1038"/>
			<point x="71" y="1038" type="curve" smooth="yes"/>
			<point x="59" y="1038"/>
			<point x="44" y="1045"/>
			<point x="13" y="1063" type="curve" smooth="yes"/>
			<point x="-29" y="1090"/>
			<point x="-52" y="1098"/>
			<point x="-78" y="1098" type="curve" smooth="yes"/>
			<point x="-137" y="1098"/>
			<point x="-178" y="1057"/>
			<point x="-189" y="988" type="curve"/>
		</contour>
	</outline>
	<anchor name="_top.UC" x="0" y="750"/>
</glyph>
<glyph name="circumflextildecomb" format="2">
	<outline>
		<contour>
			<point x="-190" y="587" type="line"/>
			<point x="-71" y="587" type="line"/>
			<point x="49" y="707" type="line"/>
			<point x="-52" y="707" type="line"/>
			<point x="68" y="587" type="line"/>
			<point x="190" y="587" type="line"/>
			<point x="67" y="737" type="line"/>
			<point x="-67" y="737" type="line"/>
		</contour>
		<contour>
			<point x="-102" y="772" type="line"/>
			<point x="-95" y="806"/>
			<point x="-83" y="826"/>
			<point x="-63" y="826" type="curve" smooth="yes"/>
			<point x="-51" y="826"/>
			<point x="-39" y="819"/>
			<point x="-7" y="799" type="curve" smooth="yes"/>
			<point x="24" y="781"/>
			<point x="43" y="772"/>
			<point x="70" y="772" type="curve" smooth="yes"/>
			<point x="122" y="772"/>
			<point x="163" y="810"/>
			<point x="177" y="878" type="curve"/>
			<point x="103" y="908" type="line"/>
			<point x="96" y="872"/>
			<point x="82" y="854"/>
			<point x="64" y="854" type="curve" smooth="yes"/>
			<point x="52" y="854"/>
			<point x="46" y="858"/>
			<point x="10" y="880" type="curve" smooth="yes"/>
			<point x="-23" y="900"/>
			<point x="-42" y="908"/>
			<point x="-69" y="908" type="curve" smooth="yes"/>
			<point x="-122" y="908"/>
			<point x="-163" y="868"/>
			<point x="-176" y="802" type="curve"/>
		</contour>
	</outline>
	<anchor name="_top.LC" x="0" y="544"/>
</glyph>
<glyph name="commaaboverightcomb.short" format="2">
	<outline>
		<contour>
			<point x="35" y="553" type="line"/>
			<point x="69" y="588"/>
			<point x="102" y="640"/>
			<point x="102" y="681" type="curve" smooth="yes"/>
			<point x="102" y="724"/>
			<point x="75" y="753"/>
			<point x="36" y="753" type="curve" smooth="yes"/>
			<point x="-1" y="753"/>
			<point x="-28" y="727"/>
			<point x="-28" y="691" type="curve" smooth="yes"/>
			<point x="-28" y="659"/>
			<point x="1" y="630"/>
			<point x="39" y="630" type="curve"/>
			<point x="19" y="656" type="line"/>
			<point x="18" y="629"/>
			<point x="-2" y="588"/>
			<point x="-32" y="553" type="curve"/>
		</contour>
	</outline>
	<anchor name="_top_right.LC.short" x="0" y="540"/>
</glyph>
<glyph name="commabelowcomb.cap" format="2">
	<outline>
		<contour>
			<point x="-6" y="-292" type="line"/>
			<point x="29" y="-254"/>
			<point x="61" y="-193"/>
			<point x="61" y="-150" type="curve" smooth="yes"/>
			<point x="61" y="-107"/>
			<point x="35" y="-78"/>
			<point x="-6" y="-78" type="curve" smooth="yes"/>
			<point x="-44" y="-78"/>
			<point x="-70" y="-105"/>
			<point x="-70" y="-139" type="curve" smooth="yes"/>
			<point x="-70" y="-173"/>
			<point x="-41" y="-200"/>
			<point x="-4" y="-200" type="curve"/>
			<point x="-24" y="-178" type="line"/>
			<point x="-22" y="-208"/>
			<point x="-44" y="-255"/>
			<point x="-76" y="-292" type="curve"/>
		</contour>
	</outline>
	<anchor name="_bottom.UC" x="0" y="-50"/>
</glyph>
<glyph name="dieresiscomb.cap" format="2">
	<outline>
		<contour>
			<point x="114" y="790" type="curve" smooth="yes"/>
			<point x="158" y="790"/>
			<point x="192" y="823"/>
			<point x="192" y="865" type="curve" smooth="yes"/>
			<point x="192" y="908"/>
			<point x="158" y="941"/>
			<point x="114" y="941" type="curve" smooth="yes"/>
			<point x="70" y="941"/>
			<point x="36" y="908"/>
			<point x="36" y="865" type="curve" smooth="yes"/>
			<point x="36" y="823"/>
			<point x="70" y="790"/>
		</contour>
		<contour>
			<point x="-114" y="790" type="curve" smooth="yes"/>
			<point x="-70" y="790"/>
			<point x="-36" y="823"/>
			<point x="-36" y="865" type="curve" smooth="yes"/>
			<point x="-36" y="908"/>
			<point x="-70" y="941"/>
			<point x="-114" y="941" type="curve" smooth="yes"/>
			<point x="-158" y="941"/>
			<point x="-192" y="908"/>
			<point x="-192" y="865" type="curve" smooth="yes"/>
			<point x="-192" y="823"/>
			<point x="-158" y="790"/>
		</contour>
	</outline>
	<anchor name="_top.UC" x="0" y="750"/>
</glyph>
<glyph name="dieresiscomb.narrow" format="2">
	<outline>
		<contour>
			<point x="87" y="598" type="curve" smooth="yes"/>
			<point x="127" y="598"/>
			<point x="159" y="628"/>
			<point x="159" y="667" type="curve" smooth="yes"/>
			<point x="159" y="707"/>
			<point x="127" y="737"/>
			<point x="87" y="737" type="curve" smooth="yes"/>
			<point x="47" y="737"/>
			<point x="15" y="707"/>
			<point x="15" y="667" type="curve" smooth="yes"/>
			<point x="15" y="628"/>
			<point x="47" y="598"/>
		</contour>
		<contour>
			<point x="-87" y="598" type="curve" smooth="yes"/>
			<point x="-47" y="598"/>
			<point x="-15" y="628"/>
			<point x="-15" y="667" type="curve" smooth="yes"/>
			<point x="-15" y="707"/>
			<point x="-47" y="737"/>
			<point x="-87" y="737" type="curve" smooth="yes"/>
			<point x="-127" y="737"/>
			<point x="-159" y="707"/>
			<point x="-159" y="667" type="curve" smooth="yes"/>
			<point x="-159" y="628"/>
			<point x="-127" y="598"/>
		</contour>
	</outline>
	<anchor name="_top.LC" x="0" y="544"/>
</glyph>
<glyph name="eight.dnom" format="2">
	<advance width="413"/>
	<outline>
		<contour>
			<point x="207" y="-9" type="curve" smooth="yes"/>
			<point x="308" y="-9"/>
			<point x="378" y="42"/>
			<point x="378" y="113" type="curve" smooth="yes"/>
			<point x="378" y="184"/>
			<point x="307" y="232"/>
			<point x="207" y="232" type="curve" smooth="yes"/>
			<point x="106" y="232"/>
			<point x="35" y="184"/>
			<point x="35" y="113" type="curve" smooth="yes"/>
			<point x="35" y="42"/>
			<point x="104" y="-9"/>
		</contour>
		<contour>
			<point x="207" y="201" type="curve" smooth="yes"/>
			<point x="296" y="201"/>
			<point x="360" y="245"/>
			<point x="360" y="307" type="curve" smooth="yes"/>
			<point x="360" y="369"/>
			<point x="297" y="417"/>
			<point x="207" y="417" type="curve" smooth="yes"/>
			<point x="115" y="417"/>
			<point x="52" y="369"/>
			<point x="52" y="307" type="curve" smooth="yes"/>
			<point x="52" y="245"/>
			<point x="116" y="201"/>
		</contour>
		<contour>
			<point x="207" y="70" type="curve" smooth="yes"/>
			<point x="165" y="70"/>
			<point x="134" y="91"/>
			<point x="134" y="122" type="curve" smooth="yes"/>
			<point x="134" y="154"/>
			<point x="165" y="176"/>
			<point x="207" y="176" type="curve" smooth="yes"/>
			<point x="248" y="176"/>
			<point x="278" y="154"/>
			<point x="278" y="123" type="curve" smooth="yes"/>
			<point x="278" y="91"/>
			<point x="248" y="70"/>
		</contour>
		<contour>
			<point x="207" y="246" type="curve" smooth="yes"/>
			<point x="173" y="246"/>
			<point x="149" y="266"/>
			<point x="149" y="293" type="curve" smooth="yes"/>
			<point x="149" y="321"/>
			<point x="173" y="340"/>
			<point x="207" y="340" type="curve" smooth="yes"/>
			<point x="239" y="340"/>
			<point x="263" y="321"/>
			<point x="263" y="294" type="curve" smooth="yes"/>
			<point x="263" y="266"/>
			<point x="239" y="246"/>
		</contour>
	</outline>
</glyph>
<glyph name="el.loclBGR" format="2">
	<advance width="603"/>
	<outline>
		<contour>
			<point x="17" y="0" type="line"/>
			<point x="150" y="0" type="line"/>
			<point x="299" y="371" type="line"/>
			<point x="448" y="0" type="line"/>
			<point x="586" y="0" type="line"/>
			<point x="365" y="503" type="line"/>
			<point x="237" y="503" type="line"/>
		</contour>
	</outline>
</glyph>
<glyph name="five.dnom" format="2">
	<advance width="393"/>
	<outline>
		<contour>
			<point x="28" y="62" type="line"/>
			<point x="70" y="15"/>
			<point x="127" y="-9"/>
			<point x="195" y="-9" type="curve" smooth="yes"/>
			<point x="290" y="-9"/>
			<point x="362" y="51"/>
			<point x="362" y="138" type="curve" smooth="yes"/>
			<point x="362" y="218"/>
			<point x="300" y="277"/>
			<point x="214" y="277" type="curve" smooth="yes"/>
			<point x="151" y="277"/>
			<point x="108" y="235"/>
			<point x="98" y="175" type="curve"/>
			<point x="129" y="174" type="line"/>
			<point x="146" y="190"/>
			<point x="166" y="200"/>
			<point x="196" y="200" type="curve" smooth="yes"/>
			<point x="236" y="200"/>
			<point x="264" y="172"/>
			<point x="264" y="138" type="curve" smooth="yes"/>
			<point x="264" y="100"/>
			<point x="235" y="71"/>
			<point x="192" y="71" type="curve" smooth="yes"/>
			<point x="148" y="71"/>
			<point x="116" y="87"/>
			<point x="83" y="126" type="curve"/>
		</contour>
		<contour>
			<point x="337" y="330" type="line"/>
			<point x="337" y="408" type="line"/>
			<point x="73" y="408" type="line"/>
			<point x="42" y="174" type="line"/>
			<point x="129" y="174" type="line"/>
			<point x="156" y="384" type="line"/>
			<point x="111" y="330" type="line"/>
		</contour>
	</outline>
</glyph>
<glyph name="four.dnom" format="2">
	<advance width="434"/>
	<outline>
		<contour>
			<point x="345" y="0" type="line"/>
			<point x="345" y="79" type="line"/>
			<point x="402" y="79" type="line"/>
			<point x="402" y="154" type="line"/>
			<point x="345" y="154" type="line"/>
			<point x="345" y="408" type="line"/>
			<point x="247" y="408" type="line"/>
			<point x="32" y="154" type="line"/>
			<point x="32" y="79" type="line"/>
			<point x="247" y="79" type="line"/>
			<point x="247" y="0" type="line"/>
		</contour>
		<contour>
			<point x="247" y="300" type="line"/>
			<point x="247" y="154" type="line"/>
			<point x="125" y="154" type="line"/>
		</contour>
	</outline>
</glyph>
<glyph name="ghe.loclBGR" format="2">
	<advance width="540"/>
	<outline>
		<contour>
			<point x="270" y="-16" type="curve" smooth="yes"/>
			<point x="368" y="-16"/>
			<point x="456" y="16"/>
			<point x="517" y="75" type="curve"/>
			<point x="446" y="156" type="line"/>
			<point x="400" y="111"/>
			<point x="331" y="83"/>
			<point x="266" y="83" type="curve" smooth="yes"/>
			<point x="205" y="83"/>
			<point x="165" y="106"/>
			<point x="165" y="141" type="curve" smooth="yes"/>
			<point x="165" y="173"/>
			<point x="191" y="185"/>
			<point x="287" y="202" type="curve" smooth="yes"/>
			<point x="432" y="228"/>
			<point x="493" y="274"/>
			<point x="493" y="357" type="curve" smooth="yes"/>
			<point x="493" y="454"/>
			<point x="405" y="519"/>
			<point x="273" y="519" type="curve" smooth="yes"/>
			<point x="183" y="519"/>
			<point x="102" y="489"/>
			<point x="42" y="432" type="curve"/>
			<point x="112" y="350" type="line"/>
			<point x="157" y="395"/>
			<point x="215" y="420"/>
			<point x="273" y="420" type="curve" smooth="yes"/>
			<point x="329" y="420"/>
			<point x="364" y="399"/>
			<point x="364" y="368" type="curve" smooth="yes"/>
			<point x="364" y="338"/>
			<point x="340" y="327"/>
			<point x="240" y="309" type="curve" smooth="yes"/>
			<point x="98" y="283"/>
			<point x="38" y="237"/>
			<point x="38" y="154" type="curve" smooth="yes"/>
			<point x="38" y="51"/>
			<point x="130" y="-16"/>
		</contour>
	</outline>
	<anchor name="bottom.LC" x="273" y="-50"/>
	<anchor name="top.LC" x="273" y="544"/>
</glyph>
<glyph name="gravecomb.cap" format="2">
	<outline>
		<contour>
			<point x="-52" y="789" type="line"/>
			<point x="74" y="789" type="line"/>
			<point x="-60" y="933" type="line"/>
			<point x="-219" y="933" type="line"/>
		</contour>
	</outline>
	<anchor name="_top.UC" x="0" y="750"/>
</glyph>
<glyph name="gravecomb.narrow" format="2">
	<outline>
		<contour>
			<point x="-36" y="587" type="line"/>
			<point x="67" y="587" type="line"/>
			<point x="-21" y="761" type="line"/>
			<point x="-157" y="761" type="line"/>
		</contour>
	</outline>
	<anchor name="_top.LC" x="0" y="544"/>
</glyph>
<glyph name="hookabovecomb.cap" format="2">
	<outline>
		<contour>
			<point x="-10" y="766" type="line"/>
			<point x="66" y="794"/>
			<point x="109" y="841"/>
			<point x="109" y="895" type="curve" smooth="yes"/>
			<point x="109" y="952"/>
			<point x="62" y="993"/>
			<point x="-5" y="993" type="curve" smooth="yes"/>
			<point x="-48" y="993"/>
			<point x="-85" y="978"/>
			<point x="-117" y="948" type="curve"/>
			<point x="-75" y="895" type="line"/>
			<point x="-56" y="909"/>
			<point x="-39" y="916"/>
			<point x="-19" y="916" type="curve" smooth="yes"/>
			<point x="5" y="916"/>
			<point x="19" y="904"/>
			<point x="19" y="884" type="curve" smooth="yes"/>
			<point x="19" y="862"/>
			<point x="0" y="843"/>
			<point x="-42" y="823" type="curve"/>
		</contour>
	</outline>
	<anchor name="_top.UC" x="0" y="750"/>
</glyph>
<glyph name="ringcomb.cap" format="2">
	<outline>
		<contour>
			<point x="0" y="742" type="curve" smooth="yes"/>
			<point x="70" y="742"/>
			<point x="125" y="796"/>
			<point x="125" y="865" type="curve" smooth="yes"/>
			<point x="125" y="934"/>
			<point x="70" y="989"/>
			<point x="0" y="989" type="curve" smooth="yes"/>
			<point x="-70" y="989"/>
			<point x="-125" y="934"/>
			<point x="-125" y="865" type="curve" smooth="yes"/>
			<point x="-125" y="796"/>
			<point x="-70" y="742"/>
		</contour>
		<contour>
			<point x="0" y="811" type="curve" smooth="yes"/>
			<point x="-29" y="811"/>
			<point x="-52" y="834"/>
			<point x="-52" y="865" type="curve" smooth="yes"/>
			<point x="-52" y="897"/>
			<point x="-29" y="920"/>
			<point x="0" y="920" type="curve" smooth="yes"/>
			<point x="29" y="920"/>
			<point x="51" y="897"/>
			<point x="51" y="865" type="curve" smooth="yes"/>
			<point x="51" y="834"/>
			<point x="29" y="811"/>
		</contour>
	</outline>
	<anchor name="_top.UC" x="0" y="750"/>
</glyph>
<glyph name="seven.dnom" format="2">
	<advance width="388"/>
	<outline>
		<contour>
			<point x="351" y="408" type="line"/>
			<point x="37" y="408" type="line"/>
			<point x="37" y="330" type="line"/>
			<point x="250" y="330" type="line"/>
			<point x="43" y="0" type="line"/>
			<point x="148" y="0" type="line"/>
			<point x="351" y="330" type="line"/>
		</contour>
	</outline>
</glyph>
